<?xml version="1.0" encoding="UTF-8"?>
<svg width="370px" height="15px" viewBox="0 0 370 15" version="1.1" xmlns="http://www.w3.org/2000/svg" xmlns:xlink="http://www.w3.org/1999/xlink">
    <title>编组 10@1x</title>
    <g id="ESG评估" stroke="none" stroke-width="1" fill="none" fill-rule="evenodd">
        <g id="编组-10" transform="translate(0.000000, 0.472656)">
            <g id="该企业总碳排放量-=-∑-行业碳排放总量" transform="translate(16.265625, 1.419922)" fill="#75787A" fill-rule="nonzero">
                <path d="M3.59765625,8.44921875 C5.05859375,7.70703125 6.28515625,6.8203125 7.27734375,5.7890625 C6.37890625,5.8671875 5.5703125,5.94921875 4.8515625,6.03515625 C4.578125,6.06640625 4.30078125,6.125 4.01953125,6.2109375 L3.5859375,5.35546875 C3.8515625,5.20703125 4.10546875,4.99609375 4.34765625,4.72265625 C4.8125,4.16015625 5.29882812,3.49609375 5.80664062,2.73046875 L3.515625,2.73046875 L3.515625,1.88671875 L7.44726562,1.88671875 C7.11132812,1.37890625 6.796875,0.9296875 6.50390625,0.5390625 L7.265625,0.05859375 C7.5625,0.42578125 7.90625,0.875 8.296875,1.40625 L7.57617188,1.88671875 L11.484375,1.88671875 L11.484375,2.73046875 L6.91992188,2.73046875 C6.34570312,3.55078125 5.74609375,4.34375 5.12109375,5.109375 C5.91796875,5.05859375 6.89257812,4.9921875 8.04492188,4.91015625 C8.47070312,4.3671875 8.83984375,3.7890625 9.15234375,3.17578125 L10.0078125,3.6328125 C8.75,5.9140625 6.8359375,7.7578125 4.265625,9.1640625 C4.046875,8.921875 3.82421875,8.68359375 3.59765625,8.44921875 Z M3.59765625,10.9453125 C6.28515625,9.8203125 8.484375,7.9921875 10.1953125,5.4609375 L10.9921875,6 C10.34375,6.94921875 9.62890625,7.8046875 8.84765625,8.56640625 C9.7421875,9.26953125 10.6171875,9.98046875 11.4726562,10.6992188 L10.7578125,11.4609375 C10.0351562,10.7695312 9.18554688,10.0039062 8.20898438,9.1640625 C7.01757812,10.2070312 5.6875,11.0585938 4.21875,11.71875 C4.0703125,11.5078125 3.86328125,11.25 3.59765625,10.9453125 Z M3.48046875,8.66015625 C3.51171875,9.01953125 3.5546875,9.34765625 3.609375,9.64453125 C3.125,10.0195312 2.640625,10.40625 2.15625,10.8046875 C1.9609375,10.9765625 1.78515625,11.1523438 1.62890625,11.3320312 L0.9609375,10.59375 C1.203125,10.34375 1.32421875,9.9765625 1.32421875,9.4921875 L1.32421875,4.91015625 L0,4.91015625 L0,4.0546875 L2.23828125,4.0546875 L2.23828125,9.6796875 C2.65234375,9.34375 3.06640625,9.00390625 3.48046875,8.66015625 Z M1.2421875,0.36328125 C1.8984375,1.01953125 2.46484375,1.62109375 2.94140625,2.16796875 L2.1796875,2.82421875 C1.6171875,2.13671875 1.078125,1.51171875 0.5625,0.94921875 L1.2421875,0.36328125 Z" id="形状"></path>
                <path d="M12.5273438,10.3007812 L14.109375,10.3007812 L14.109375,5.75390625 L15.0820312,5.75390625 L15.0820312,10.3007812 L17.5078125,10.3007812 L17.5078125,3.75 L18.4804688,3.75 L18.4804688,6.33984375 L22.0546875,6.33984375 L22.0546875,7.1953125 L18.4804688,7.1953125 L18.4804688,10.3007812 L23.1679688,10.3007812 L23.1679688,11.1679688 L12.5273438,11.1679688 L12.5273438,10.3007812 Z M18.7265625,0.24609375 L18.4921875,0.5625 C19.7109375,2.171875 21.4414062,3.421875 23.6835938,4.3125 C23.5117188,4.5625 23.296875,4.8984375 23.0390625,5.3203125 C20.90625,4.25 19.1875,2.90625 17.8828125,1.2890625 C16.65625,2.875 14.8867188,4.3125 12.5742188,5.6015625 C12.3710938,5.3046875 12.1445312,4.984375 11.8945312,4.640625 C14.2773438,3.5546875 16.1328125,2.08984375 17.4609375,0.24609375 L18.7265625,0.24609375 Z" id="形状"></path>
                <path d="M24.0585938,10.0195312 L27.8203125,10.0195312 L27.8203125,0.33984375 L28.8046875,0.33984375 L28.8046875,10.0195312 L30.8554688,10.0195312 L30.8554688,0.33984375 L31.8398438,0.33984375 L31.8398438,10.0195312 L35.6367188,10.0195312 L35.6367188,10.8867188 L24.0585938,10.8867188 L24.0585938,10.0195312 Z M25.4179688,2.63671875 C26.0585938,4.14453125 26.6796875,5.74609375 27.28125,7.44140625 L26.3203125,7.875 C25.796875,6.2265625 25.2109375,4.60546875 24.5625,3.01171875 L25.4179688,2.63671875 Z M32.2617188,7.546875 C33.0429688,5.890625 33.6992188,4.2890625 34.2304688,2.7421875 L35.1796875,3.1171875 C34.453125,4.984375 33.7617188,6.58984375 33.1054688,7.93359375 L32.2617188,7.546875 Z" id="形状"></path>
                <path d="M37.5234375,2.1328125 L42.6445312,2.1328125 C43.1328125,1.421875 43.5703125,0.734375 43.9570312,0.0703125 L44.859375,0.5390625 C44.46875,1.07421875 44.0703125,1.60546875 43.6640625,2.1328125 L46.1484375,2.1328125 L46.1484375,6.9140625 L45.2109375,6.9140625 L45.2109375,6.3984375 L38.4609375,6.3984375 L38.4609375,6.9140625 L37.5234375,6.9140625 L37.5234375,2.1328125 Z M45.2109375,2.9765625 L38.4609375,2.9765625 L38.4609375,5.5546875 L45.2109375,5.5546875 L45.2109375,2.9765625 Z M39.0117188,7.5234375 L39.9257812,7.5234375 L39.9257812,9.57421875 C39.9257812,10.1835938 40.1992188,10.4882812 40.7460938,10.4882812 L43.1015625,10.4882812 C43.5625,10.4882812 43.8515625,10.2539062 43.96875,9.78515625 C44.0390625,9.54296875 44.109375,9.10546875 44.1796875,8.47265625 C44.40625,8.57421875 44.7070312,8.69140625 45.0820312,8.82421875 C44.9804688,9.41796875 44.8671875,9.90625 44.7421875,10.2890625 C44.5,10.96875 43.96875,11.3085938 43.1484375,11.3085938 L40.5585938,11.3085938 C39.5273438,11.3085938 39.0117188,10.7851562 39.0117188,9.73828125 L39.0117188,7.5234375 Z M37.1835938,7.44140625 L38.0625,7.72265625 C37.7421875,8.69921875 37.3359375,9.703125 36.84375,10.734375 C36.59375,10.625 36.3085938,10.5 35.9882812,10.359375 C36.4414062,9.4453125 36.8398438,8.47265625 37.1835938,7.44140625 Z M44.9882812,7.8515625 L45.65625,7.3359375 C46.375,8.1328125 47.0507812,8.93359375 47.6835938,9.73828125 L46.8984375,10.359375 C46.34375,9.578125 45.7070312,8.7421875 44.9882812,7.8515625 Z M40.828125,7.125 L41.5429688,6.65625 C42.0976562,7.2421875 42.609375,7.8671875 43.078125,8.53125 L42.2929688,9.08203125 C41.8242188,8.37890625 41.3359375,7.7265625 40.828125,7.125 Z M38.8242188,0.52734375 L39.5390625,0.0703125 C40.0078125,0.5625 40.4296875,1.0703125 40.8046875,1.59375 L40.0078125,2.109375 C39.671875,1.625 39.2773438,1.09765625 38.8242188,0.52734375 Z" id="形状"></path>
                <path d="M47.9296875,6.92578125 C48.734375,5.61328125 49.34375,3.98046875 49.7578125,2.02734375 L48.3515625,2.02734375 L48.3515625,1.23046875 L52.078125,1.23046875 L52.078125,2.02734375 L50.5898438,2.02734375 C50.4023438,2.93359375 50.171875,3.78125 49.8984375,4.5703125 L51.7851562,4.5703125 L51.7851562,10.7695312 L51.0117188,10.7695312 L51.0117188,10.0429688 L49.9101562,10.0429688 L49.9101562,10.9101562 L49.1367188,10.9101562 L49.1367188,6.4453125 C48.9414062,6.8359375 48.734375,7.2109375 48.515625,7.5703125 C48.3203125,7.34375 48.125,7.12890625 47.9296875,6.92578125 Z M52.1484375,4.30078125 L53.6601562,4.30078125 C53.6914062,4.00390625 53.7226562,3.71484375 53.7539062,3.43359375 L54.5625,3.43359375 C54.53125,3.73046875 54.5,4.01953125 54.46875,4.30078125 L59.4609375,4.30078125 L59.4609375,5.09765625 L54.3515625,5.09765625 C54.2734375,5.55078125 54.1757812,5.984375 54.0585938,6.3984375 L54.2460938,6.26953125 C54.6367188,6.80078125 55.0039062,7.34765625 55.3476562,7.91015625 L54.6679688,8.3671875 C54.4101562,7.90625 54.1367188,7.45703125 53.8476562,7.01953125 C53.4726562,8.08984375 52.9335938,9.04296875 52.2304688,9.87890625 C52.0976562,9.55859375 51.9609375,9.2890625 51.8203125,9.0703125 C52.6953125,7.9609375 53.265625,6.63671875 53.53125,5.09765625 L52.1484375,5.09765625 L52.1484375,4.30078125 Z M55.8515625,5.47265625 L56.6367188,5.47265625 C56.6289062,5.98828125 56.5976562,6.5625 56.5429688,7.1953125 C56.7851562,9.109375 57.8359375,10.328125 59.6953125,10.8515625 C59.46875,11.1484375 59.2851562,11.4335938 59.1445312,11.7070312 C57.5976562,11.0507812 56.609375,10.0039062 56.1796875,8.56640625 C55.7890625,9.91015625 54.6914062,10.9882812 52.8867188,11.8007812 C52.6992188,11.5039062 52.5039062,11.2265625 52.3007812,10.96875 C54.1132812,10.359375 55.2070312,9.3984375 55.5820312,8.0859375 C55.7382812,7.6171875 55.828125,6.74609375 55.8515625,5.47265625 Z M58.265625,0.85546875 L59.0390625,0.85546875 L59.0390625,3.4453125 L58.265625,3.4453125 L58.265625,3.0703125 L52.5234375,3.0703125 L52.5234375,0.85546875 L53.296875,0.85546875 L53.296875,2.296875 L55.3828125,2.296875 L55.3828125,0.2578125 L56.1796875,0.2578125 L56.1796875,2.296875 L58.265625,2.296875 L58.265625,0.85546875 Z M51.0117188,5.34375 L49.9101562,5.34375 L49.9101562,9.26953125 L51.0117188,9.26953125 L51.0117188,5.34375 Z M57.0820312,7.7578125 C57.5898438,7.2734375 58.0546875,6.76171875 58.4765625,6.22265625 L59.1679688,6.78515625 C58.6679688,7.33203125 58.1484375,7.84375 57.609375,8.3203125 L57.0820312,7.7578125 Z" id="形状"></path>
                <path d="M68.0390625,0.15234375 L68.953125,0.15234375 L68.953125,2.30859375 L71.4375,2.30859375 L71.4375,3.19921875 L68.953125,3.19921875 L68.953125,5.21484375 L71.15625,5.21484375 L71.15625,6.10546875 L68.953125,6.10546875 L68.953125,8.14453125 L71.6367188,8.14453125 L71.6367188,9.03515625 L68.953125,9.03515625 L68.953125,11.6835938 L68.0390625,11.6835938 L68.0390625,0.15234375 Z M63.2929688,8.14453125 L65.71875,8.14453125 L65.71875,6.10546875 L63.8671875,6.10546875 L63.8671875,5.21484375 L65.71875,5.21484375 L65.71875,3.19921875 L63.890625,3.19921875 L63.890625,2.30859375 L65.71875,2.30859375 L65.71875,0.15234375 L66.6328125,0.15234375 L66.6328125,11.6835938 L65.71875,11.6835938 L65.71875,9.03515625 L63.2929688,9.03515625 L63.2929688,8.14453125 Z M60.0820312,2.296875 L61.4765625,2.296875 L61.4765625,0.140625 L62.3671875,0.140625 L62.3671875,2.296875 L63.5273438,2.296875 L63.5273438,3.1171875 L62.3671875,3.1171875 L62.3671875,5.30273438 C62.7421875,5.11132812 63.109375,4.91796875 63.46875,4.72265625 C63.4921875,5.05859375 63.5234375,5.37109375 63.5625,5.66015625 C63.1796875,5.85546875 62.78125,6.06054688 62.3671875,6.27539062 L62.3671875,10.359375 C62.3671875,11.15625 61.9414062,11.5585938 61.0898438,11.5664062 C60.8554688,11.5742188 60.5351562,11.5742188 60.1289062,11.5664062 C60.0976562,11.2539062 60.046875,10.9296875 59.9765625,10.59375 C60.40625,10.625 60.7421875,10.640625 60.984375,10.640625 C61.3125,10.640625 61.4765625,10.4609375 61.4765625,10.1015625 L61.4765625,6.73828125 C61.0390625,6.96484375 60.5859375,7.203125 60.1171875,7.453125 L60,6.421875 C60.5039062,6.19921875 60.9960938,5.97265625 61.4765625,5.7421875 L61.4765625,3.1171875 L60.0820312,3.1171875 L60.0820312,2.296875 Z" id="形状"></path>
                <path d="M79.2539062,0.05859375 L80.1914062,0.22265625 C80.0234375,0.9609375 79.8046875,1.67578125 79.5351562,2.3671875 L83.6132812,2.3671875 L83.6132812,3.234375 L82.6347656,3.234375 C82.4824219,5.546875 81.9355469,7.38476562 80.9941406,8.74804688 C81.6972656,9.62304688 82.6054688,10.296875 83.71875,10.7695312 C83.4609375,11.1132812 83.2460938,11.421875 83.0742188,11.6953125 C82.0234375,11.1289062 81.1269531,10.3984375 80.3847656,9.50390625 C79.6191406,10.3515625 78.703125,11.1171875 77.6367188,11.8007812 C77.4570312,11.5742188 77.234375,11.328125 76.96875,11.0625 C78.1328125,10.3554688 79.0839844,9.58007812 79.8222656,8.73632812 C79.1386719,7.61914062 78.703125,6.20898438 78.515625,4.50585938 C78.2851562,4.90429688 78.0351562,5.29296875 77.765625,5.671875 C77.6015625,5.4375 77.40625,5.1875 77.1796875,4.921875 C78.1953125,3.5234375 78.8867188,1.90234375 79.2539062,0.05859375 Z M72.1289062,2.26171875 L77.7773438,2.26171875 L77.7773438,3.12890625 L74.4609375,3.12890625 C74.453125,3.82421875 74.4394531,4.4609375 74.4199219,5.0390625 L77.109375,5.0390625 C77.03125,6.9609375 76.9570312,8.5 76.8867188,9.65625 C76.8164062,10.6875 76.3710938,11.2226562 75.5507812,11.2617188 C75.0742188,11.2695312 74.625,11.265625 74.203125,11.25 C74.15625,10.9609375 74.0898438,10.6328125 74.0039062,10.265625 C74.5195312,10.3203125 74.9179688,10.3476562 75.1992188,10.3476562 C75.6757812,10.3476562 75.9335938,10.0507812 75.9726562,9.45703125 C76.0507812,8.54296875 76.1132812,7.359375 76.1601562,5.90625 L74.3847656,5.90625 C74.3574219,8.4375 73.7382812,10.3710938 72.5273438,11.7070312 C72.3476562,11.4414062 72.140625,11.1679688 71.90625,10.8867188 C72.640625,10.0585938 73.0859375,9.171875 73.2421875,8.2265625 C73.4414062,7.33984375 73.5390625,5.640625 73.5351562,3.12890625 L72.1289062,3.12890625 L72.1289062,2.26171875 Z M81.703125,3.234375 L79.2128906,3.234375 C79.3378906,5.1484375 79.7441406,6.7109375 80.4316406,7.921875 C81.1855469,6.71484375 81.609375,5.15234375 81.703125,3.234375 Z M74.0976562,0.46875 L74.8945312,0.046875 C75.2304688,0.546875 75.5507812,1.0859375 75.8554688,1.6640625 L75.0351562,2.09765625 C74.7226562,1.49609375 74.4101562,0.953125 74.0976562,0.46875 Z" id="形状"></path>
                <path d="M84.046875,10.6289062 L89.4257812,10.6289062 L89.4257812,9.9609375 L84.7265625,9.9609375 L84.7265625,9.3515625 L89.4257812,9.3515625 L89.4257812,8.68359375 L86.6367188,8.68359375 L86.6367188,8.98828125 L85.8398438,8.98828125 L85.8398438,5.390625 L93.8671875,5.390625 L93.8671875,8.98828125 L93.0703125,8.98828125 L93.0703125,8.68359375 L90.2460938,8.68359375 L90.2460938,9.3515625 L94.9570312,9.3515625 L94.9570312,9.9609375 L90.2460938,9.9609375 L90.2460938,10.6289062 L95.625,10.6289062 L95.625,11.2617188 L84.046875,11.2617188 L84.046875,10.6289062 Z M85.9335938,0.59765625 L93.7851562,0.59765625 L93.7851562,3.94921875 L92.9882812,3.94921875 L92.9882812,3.6328125 L86.7304688,3.6328125 L86.7304688,3.94921875 L85.9335938,3.94921875 L85.9335938,0.59765625 Z M84.140625,4.1953125 L95.578125,4.1953125 L95.578125,4.828125 L84.140625,4.828125 L84.140625,4.1953125 Z M86.7304688,3.0234375 L92.9882812,3.0234375 L92.9882812,2.390625 L86.7304688,2.390625 L86.7304688,3.0234375 Z M92.9882812,1.20703125 L86.7304688,1.20703125 L86.7304688,1.828125 L92.9882812,1.828125 L92.9882812,1.20703125 Z M90.2460938,8.07421875 L93.0703125,8.07421875 L93.0703125,7.3125 L90.2460938,7.3125 L90.2460938,8.07421875 Z M86.6367188,8.07421875 L89.4257812,8.07421875 L89.4257812,7.3125 L86.6367188,7.3125 L86.6367188,8.07421875 Z M93.0703125,6 L90.2460938,6 L90.2460938,6.75 L93.0703125,6.75 L93.0703125,6 Z M86.6367188,6.75 L89.4257812,6.75 L89.4257812,6 L86.6367188,6 L86.6367188,6.75 Z" id="形状"></path>
                <path d="M106.833984,5.42578125 L100.863281,5.42578125 L100.863281,4.54101562 L106.833984,4.54101562 L106.833984,5.42578125 Z M106.833984,8.1328125 L100.863281,8.1328125 L100.863281,7.24804688 L106.833984,7.24804688 L106.833984,8.1328125 Z" id="形状"></path>
                <polygon id="路径" points="119.537109 13.078125 112.160156 13.078125 112.160156 12.5097656 116.390625 6.99609375 112.388672 1.66992188 112.388672 1.03125 119.291016 1.03125 119.291016 2.0859375 114.09375 2.0859375 117.779297 6.96679688 113.894531 12.0292969 119.537109 12.0292969"></polygon>
                <path d="M134.947266,4.5234375 L142.365234,4.5234375 L142.365234,5.40234375 L140.091797,5.40234375 L140.091797,9.984375 C140.091797,10.953125 139.603516,11.4375 138.626953,11.4375 C137.970703,11.4375 137.302734,11.4335938 136.623047,11.4257812 C136.576172,11.1132812 136.517578,10.7617188 136.447266,10.3710938 C137.056641,10.4335938 137.669922,10.4648438 138.287109,10.4648438 C138.826172,10.4648438 139.095703,10.1992188 139.095703,9.66796875 L139.095703,5.40234375 L134.947266,5.40234375 L134.947266,4.5234375 Z M130.705078,7.1484375 C131.916016,6.15625 133.017578,4.76171875 134.009766,2.96484375 L134.830078,3.46875 C134.427734,4.1640625 134.001953,4.81445312 133.552734,5.41992188 L133.552734,11.625 L132.580078,11.625 L132.580078,6.62695312 C132.111328,7.15820312 131.623047,7.6484375 131.115234,8.09765625 C130.990234,7.76953125 130.853516,7.453125 130.705078,7.1484375 Z M135.626953,0.984375 L141.708984,0.984375 L141.708984,1.86328125 L135.626953,1.86328125 L135.626953,0.984375 Z M130.763672,3.43359375 C132.005859,2.47265625 133.005859,1.35546875 133.763672,0.08203125 L134.607422,0.59765625 C133.701172,1.98828125 132.576172,3.234375 131.232422,4.3359375 C131.091797,4.0390625 130.935547,3.73828125 130.763672,3.43359375 Z" id="形状"></path>
                <path d="M142.740234,10.0195312 L146.501953,10.0195312 L146.501953,0.33984375 L147.486328,0.33984375 L147.486328,10.0195312 L149.537109,10.0195312 L149.537109,0.33984375 L150.521484,0.33984375 L150.521484,10.0195312 L154.318359,10.0195312 L154.318359,10.8867188 L142.740234,10.8867188 L142.740234,10.0195312 Z M144.099609,2.63671875 C144.740234,4.14453125 145.361328,5.74609375 145.962891,7.44140625 L145.001953,7.875 C144.478516,6.2265625 143.892578,4.60546875 143.244141,3.01171875 L144.099609,2.63671875 Z M150.943359,7.546875 C151.724609,5.890625 152.380859,4.2890625 152.912109,2.7421875 L153.861328,3.1171875 C153.134766,4.984375 152.443359,6.58984375 151.787109,7.93359375 L150.943359,7.546875 Z" id="形状"></path>
                <path d="M154.611328,6.92578125 C155.416016,5.61328125 156.025391,3.98046875 156.439453,2.02734375 L155.033203,2.02734375 L155.033203,1.23046875 L158.759766,1.23046875 L158.759766,2.02734375 L157.271484,2.02734375 C157.083984,2.93359375 156.853516,3.78125 156.580078,4.5703125 L158.466797,4.5703125 L158.466797,10.7695312 L157.693359,10.7695312 L157.693359,10.0429688 L156.591797,10.0429688 L156.591797,10.9101562 L155.818359,10.9101562 L155.818359,6.4453125 C155.623047,6.8359375 155.416016,7.2109375 155.197266,7.5703125 C155.001953,7.34375 154.806641,7.12890625 154.611328,6.92578125 Z M158.830078,4.30078125 L160.341797,4.30078125 C160.373047,4.00390625 160.404297,3.71484375 160.435547,3.43359375 L161.244141,3.43359375 C161.212891,3.73046875 161.181641,4.01953125 161.150391,4.30078125 L166.142578,4.30078125 L166.142578,5.09765625 L161.033203,5.09765625 C160.955078,5.55078125 160.857422,5.984375 160.740234,6.3984375 L160.927734,6.26953125 C161.318359,6.80078125 161.685547,7.34765625 162.029297,7.91015625 L161.349609,8.3671875 C161.091797,7.90625 160.818359,7.45703125 160.529297,7.01953125 C160.154297,8.08984375 159.615234,9.04296875 158.912109,9.87890625 C158.779297,9.55859375 158.642578,9.2890625 158.501953,9.0703125 C159.376953,7.9609375 159.947266,6.63671875 160.212891,5.09765625 L158.830078,5.09765625 L158.830078,4.30078125 Z M162.533203,5.47265625 L163.318359,5.47265625 C163.310547,5.98828125 163.279297,6.5625 163.224609,7.1953125 C163.466797,9.109375 164.517578,10.328125 166.376953,10.8515625 C166.150391,11.1484375 165.966797,11.4335938 165.826172,11.7070312 C164.279297,11.0507812 163.291016,10.0039062 162.861328,8.56640625 C162.470703,9.91015625 161.373047,10.9882812 159.568359,11.8007812 C159.380859,11.5039062 159.185547,11.2265625 158.982422,10.96875 C160.794922,10.359375 161.888672,9.3984375 162.263672,8.0859375 C162.419922,7.6171875 162.509766,6.74609375 162.533203,5.47265625 Z M164.947266,0.85546875 L165.720703,0.85546875 L165.720703,3.4453125 L164.947266,3.4453125 L164.947266,3.0703125 L159.205078,3.0703125 L159.205078,0.85546875 L159.978516,0.85546875 L159.978516,2.296875 L162.064453,2.296875 L162.064453,0.2578125 L162.861328,0.2578125 L162.861328,2.296875 L164.947266,2.296875 L164.947266,0.85546875 Z M157.693359,5.34375 L156.591797,5.34375 L156.591797,9.26953125 L157.693359,9.26953125 L157.693359,5.34375 Z M163.763672,7.7578125 C164.271484,7.2734375 164.736328,6.76171875 165.158203,6.22265625 L165.849609,6.78515625 C165.349609,7.33203125 164.830078,7.84375 164.291016,8.3203125 L163.763672,7.7578125 Z" id="形状"></path>
                <path d="M174.720703,0.15234375 L175.634766,0.15234375 L175.634766,2.30859375 L178.119141,2.30859375 L178.119141,3.19921875 L175.634766,3.19921875 L175.634766,5.21484375 L177.837891,5.21484375 L177.837891,6.10546875 L175.634766,6.10546875 L175.634766,8.14453125 L178.318359,8.14453125 L178.318359,9.03515625 L175.634766,9.03515625 L175.634766,11.6835938 L174.720703,11.6835938 L174.720703,0.15234375 Z M169.974609,8.14453125 L172.400391,8.14453125 L172.400391,6.10546875 L170.548828,6.10546875 L170.548828,5.21484375 L172.400391,5.21484375 L172.400391,3.19921875 L170.572266,3.19921875 L170.572266,2.30859375 L172.400391,2.30859375 L172.400391,0.15234375 L173.314453,0.15234375 L173.314453,11.6835938 L172.400391,11.6835938 L172.400391,9.03515625 L169.974609,9.03515625 L169.974609,8.14453125 Z M166.763672,2.296875 L168.158203,2.296875 L168.158203,0.140625 L169.048828,0.140625 L169.048828,2.296875 L170.208984,2.296875 L170.208984,3.1171875 L169.048828,3.1171875 L169.048828,5.30273438 C169.423828,5.11132812 169.791016,4.91796875 170.150391,4.72265625 C170.173828,5.05859375 170.205078,5.37109375 170.244141,5.66015625 C169.861328,5.85546875 169.462891,6.06054688 169.048828,6.27539062 L169.048828,10.359375 C169.048828,11.15625 168.623047,11.5585938 167.771484,11.5664062 C167.537109,11.5742188 167.216797,11.5742188 166.810547,11.5664062 C166.779297,11.2539062 166.728516,10.9296875 166.658203,10.59375 C167.087891,10.625 167.423828,10.640625 167.666016,10.640625 C167.994141,10.640625 168.158203,10.4609375 168.158203,10.1015625 L168.158203,6.73828125 C167.720703,6.96484375 167.267578,7.203125 166.798828,7.453125 L166.681641,6.421875 C167.185547,6.19921875 167.677734,5.97265625 168.158203,5.7421875 L168.158203,3.1171875 L166.763672,3.1171875 L166.763672,2.296875 Z" id="形状"></path>
                <path d="M185.935547,0.05859375 L186.873047,0.22265625 C186.705078,0.9609375 186.486328,1.67578125 186.216797,2.3671875 L190.294922,2.3671875 L190.294922,3.234375 L189.316406,3.234375 C189.164062,5.546875 188.617188,7.38476562 187.675781,8.74804688 C188.378906,9.62304688 189.287109,10.296875 190.400391,10.7695312 C190.142578,11.1132812 189.927734,11.421875 189.755859,11.6953125 C188.705078,11.1289062 187.808594,10.3984375 187.066406,9.50390625 C186.300781,10.3515625 185.384766,11.1171875 184.318359,11.8007812 C184.138672,11.5742188 183.916016,11.328125 183.650391,11.0625 C184.814453,10.3554688 185.765625,9.58007812 186.503906,8.73632812 C185.820312,7.61914062 185.384766,6.20898438 185.197266,4.50585938 C184.966797,4.90429688 184.716797,5.29296875 184.447266,5.671875 C184.283203,5.4375 184.087891,5.1875 183.861328,4.921875 C184.876953,3.5234375 185.568359,1.90234375 185.935547,0.05859375 Z M178.810547,2.26171875 L184.458984,2.26171875 L184.458984,3.12890625 L181.142578,3.12890625 C181.134766,3.82421875 181.121094,4.4609375 181.101562,5.0390625 L183.791016,5.0390625 C183.712891,6.9609375 183.638672,8.5 183.568359,9.65625 C183.498047,10.6875 183.052734,11.2226562 182.232422,11.2617188 C181.755859,11.2695312 181.306641,11.265625 180.884766,11.25 C180.837891,10.9609375 180.771484,10.6328125 180.685547,10.265625 C181.201172,10.3203125 181.599609,10.3476562 181.880859,10.3476562 C182.357422,10.3476562 182.615234,10.0507812 182.654297,9.45703125 C182.732422,8.54296875 182.794922,7.359375 182.841797,5.90625 L181.066406,5.90625 C181.039062,8.4375 180.419922,10.3710938 179.208984,11.7070312 C179.029297,11.4414062 178.822266,11.1679688 178.587891,10.8867188 C179.322266,10.0585938 179.767578,9.171875 179.923828,8.2265625 C180.123047,7.33984375 180.220703,5.640625 180.216797,3.12890625 L178.810547,3.12890625 L178.810547,2.26171875 Z M188.384766,3.234375 L185.894531,3.234375 C186.019531,5.1484375 186.425781,6.7109375 187.113281,7.921875 C187.867188,6.71484375 188.291016,5.15234375 188.384766,3.234375 Z M180.779297,0.46875 L181.576172,0.046875 C181.912109,0.546875 182.232422,1.0859375 182.537109,1.6640625 L181.716797,2.09765625 C181.404297,1.49609375 181.091797,0.953125 180.779297,0.46875 Z" id="形状"></path>
                <path d="M192.205078,2.1328125 L197.326172,2.1328125 C197.814453,1.421875 198.251953,0.734375 198.638672,0.0703125 L199.541016,0.5390625 C199.150391,1.07421875 198.751953,1.60546875 198.345703,2.1328125 L200.830078,2.1328125 L200.830078,6.9140625 L199.892578,6.9140625 L199.892578,6.3984375 L193.142578,6.3984375 L193.142578,6.9140625 L192.205078,6.9140625 L192.205078,2.1328125 Z M199.892578,2.9765625 L193.142578,2.9765625 L193.142578,5.5546875 L199.892578,5.5546875 L199.892578,2.9765625 Z M193.693359,7.5234375 L194.607422,7.5234375 L194.607422,9.57421875 C194.607422,10.1835938 194.880859,10.4882812 195.427734,10.4882812 L197.783203,10.4882812 C198.244141,10.4882812 198.533203,10.2539062 198.650391,9.78515625 C198.720703,9.54296875 198.791016,9.10546875 198.861328,8.47265625 C199.087891,8.57421875 199.388672,8.69140625 199.763672,8.82421875 C199.662109,9.41796875 199.548828,9.90625 199.423828,10.2890625 C199.181641,10.96875 198.650391,11.3085938 197.830078,11.3085938 L195.240234,11.3085938 C194.208984,11.3085938 193.693359,10.7851562 193.693359,9.73828125 L193.693359,7.5234375 Z M191.865234,7.44140625 L192.744141,7.72265625 C192.423828,8.69921875 192.017578,9.703125 191.525391,10.734375 C191.275391,10.625 190.990234,10.5 190.669922,10.359375 C191.123047,9.4453125 191.521484,8.47265625 191.865234,7.44140625 Z M199.669922,7.8515625 L200.337891,7.3359375 C201.056641,8.1328125 201.732422,8.93359375 202.365234,9.73828125 L201.580078,10.359375 C201.025391,9.578125 200.388672,8.7421875 199.669922,7.8515625 Z M195.509766,7.125 L196.224609,6.65625 C196.779297,7.2421875 197.291016,7.8671875 197.759766,8.53125 L196.974609,9.08203125 C196.505859,8.37890625 196.017578,7.7265625 195.509766,7.125 Z M193.505859,0.52734375 L194.220703,0.0703125 C194.689453,0.5625 195.111328,1.0703125 195.486328,1.59375 L194.689453,2.109375 C194.353516,1.625 193.958984,1.09765625 193.505859,0.52734375 Z" id="形状"></path>
                <path d="M202.728516,10.6289062 L208.107422,10.6289062 L208.107422,9.9609375 L203.408203,9.9609375 L203.408203,9.3515625 L208.107422,9.3515625 L208.107422,8.68359375 L205.318359,8.68359375 L205.318359,8.98828125 L204.521484,8.98828125 L204.521484,5.390625 L212.548828,5.390625 L212.548828,8.98828125 L211.751953,8.98828125 L211.751953,8.68359375 L208.927734,8.68359375 L208.927734,9.3515625 L213.638672,9.3515625 L213.638672,9.9609375 L208.927734,9.9609375 L208.927734,10.6289062 L214.306641,10.6289062 L214.306641,11.2617188 L202.728516,11.2617188 L202.728516,10.6289062 Z M204.615234,0.59765625 L212.466797,0.59765625 L212.466797,3.94921875 L211.669922,3.94921875 L211.669922,3.6328125 L205.412109,3.6328125 L205.412109,3.94921875 L204.615234,3.94921875 L204.615234,0.59765625 Z M202.822266,4.1953125 L214.259766,4.1953125 L214.259766,4.828125 L202.822266,4.828125 L202.822266,4.1953125 Z M205.412109,3.0234375 L211.669922,3.0234375 L211.669922,2.390625 L205.412109,2.390625 L205.412109,3.0234375 Z M211.669922,1.20703125 L205.412109,1.20703125 L205.412109,1.828125 L211.669922,1.828125 L211.669922,1.20703125 Z M208.927734,8.07421875 L211.751953,8.07421875 L211.751953,7.3125 L208.927734,7.3125 L208.927734,8.07421875 Z M205.318359,8.07421875 L208.107422,8.07421875 L208.107422,7.3125 L205.318359,7.3125 L205.318359,8.07421875 Z M211.751953,6 L208.927734,6 L208.927734,6.75 L211.751953,6.75 L211.751953,6 Z M205.318359,6.75 L208.107422,6.75 L208.107422,6 L205.318359,6 L205.318359,6.75 Z" id="形状"></path>
                <polygon id="路径" points="225.298828 8.47851562 224.666016 9.11132812 222.515625 6.9609375 220.376953 9.11132812 219.744141 8.47851562 221.900391 6.33984375 219.744141 4.18945312 220.376953 3.5625 222.515625 5.71289062 224.671875 3.5625 225.298828 4.1953125 223.148438 6.33984375"></polygon>
                <path d="M232.78125,10.4648438 L231.867188,10.4648438 L231.867188,4.40625 L236.050781,4.40625 L236.050781,2.7890625 L230.871094,2.7890625 L230.871094,1.8984375 L236.337891,1.8984375 C236.095703,1.41015625 235.8125,0.91796875 235.488281,0.421875 L236.390625,0 C236.726562,0.4921875 237.035156,0.99609375 237.316406,1.51171875 L236.542969,1.8984375 L242.214844,1.8984375 L242.214844,2.7890625 L236.988281,2.7890625 L236.988281,4.40625 L241.242188,4.40625 L241.242188,8.7890625 C241.242188,9.7734375 240.777344,10.265625 239.847656,10.265625 C239.417969,10.265625 238.859375,10.2578125 238.171875,10.2421875 C238.132812,9.984375 238.078125,9.671875 238.007812,9.3046875 C238.65625,9.34375 239.175781,9.36328125 239.566406,9.36328125 C240.074219,9.36328125 240.328125,9.10546875 240.328125,8.58984375 L240.328125,5.2734375 L236.988281,5.2734375 L236.988281,11.6835938 L236.050781,11.6835938 L236.050781,5.2734375 L232.78125,5.2734375 L232.78125,10.4648438 Z" id="路径"></path>
                <path d="M251.519531,1.6875 L246.949219,1.6875 L246.949219,0.84375 L253.183594,0.84375 L253.183594,1.69921875 L248.566406,4.6171875 L253.886719,4.6171875 C253.792969,6.78125 253.703125,8.453125 253.617188,9.6328125 C253.515625,10.828125 252.964844,11.4257812 251.964844,11.4257812 C251.621094,11.4257812 251.09375,11.4140625 250.382812,11.390625 C250.328125,11 250.261719,10.6601562 250.183594,10.3710938 C250.722656,10.4570312 251.269531,10.5 251.824219,10.5 C252.378906,10.5 252.683594,10.1679688 252.738281,9.50390625 C252.816406,8.52734375 252.894531,7.1796875 252.972656,5.4609375 L251.71875,5.4609375 C251.371094,8.08984375 250.15625,10.171875 248.074219,11.7070312 C247.855469,11.4335938 247.636719,11.1953125 247.417969,10.9921875 C249.355469,9.65234375 250.498047,7.80859375 250.845703,5.4609375 L249.345703,5.4609375 C248.896484,7.41796875 247.785156,9.03125 246.011719,10.3007812 C245.824219,10.0742188 245.621094,9.84765625 245.402344,9.62109375 C247.019531,8.515625 248.042969,7.12890625 248.472656,5.4609375 L247.078125,5.4609375 L247.078125,4.5703125 L251.519531,1.6875 Z M242.695312,8.7890625 C243.261719,8.55859375 243.832031,8.31835938 244.40625,8.06835938 L244.40625,4.01953125 L242.835938,4.01953125 L242.835938,3.17578125 L244.40625,3.17578125 L244.40625,0.24609375 L245.273438,0.24609375 L245.273438,3.17578125 L246.703125,3.17578125 L246.703125,4.01953125 L245.273438,4.01953125 L245.273438,7.68164062 C245.710938,7.48242188 246.152344,7.27734375 246.597656,7.06640625 C246.613281,7.39453125 246.648438,7.6875 246.703125,7.9453125 C245.5625,8.4609375 244.347656,9.04296875 243.058594,9.69140625 L242.695312,8.7890625 Z" id="形状"></path>
                <path d="M258.773438,5.1328125 L264.632812,5.1328125 C264.625,5.2421875 264.566406,6.671875 264.457031,9.421875 C264.425781,10.765625 263.8125,11.4453125 262.617188,11.4609375 C261.976562,11.4609375 261.417969,11.4492188 260.941406,11.4257812 C260.902344,11.0664062 260.84375,10.7421875 260.765625,10.453125 C261.304688,10.5234375 261.847656,10.5664062 262.394531,10.5820312 C263.152344,10.6367188 263.535156,10.2148438 263.542969,9.31640625 C263.605469,8.26953125 263.652344,7.1484375 263.683594,5.953125 L261.046875,5.953125 C261.023438,7.1953125 260.835938,8.22265625 260.484375,9.03515625 C260.0625,9.96484375 259.335938,10.8359375 258.304688,11.6484375 C258.101562,11.3984375 257.875,11.1445312 257.625,10.8867188 C258.617188,10.1132812 259.277344,9.37109375 259.605469,8.66015625 C259.925781,8.03125 260.103516,7.12890625 260.138672,5.953125 L258.773438,5.953125 L258.773438,5.1328125 Z M254.660156,5.6953125 C255.777344,4.21875 256.683594,2.38671875 257.378906,0.19921875 L258.292969,0.515625 C257.914062,1.5546875 257.5,2.52734375 257.050781,3.43359375 L257.050781,11.625 L256.160156,11.625 L256.160156,5.0625 C255.800781,5.65625 255.425781,6.21484375 255.035156,6.73828125 C254.917969,6.40234375 254.792969,6.0546875 254.660156,5.6953125 Z M262.03125,0.515625 L262.804688,0.1875 C263.578125,2.171875 264.769531,3.62109375 266.378906,4.53515625 C266.082031,4.87890625 265.859375,5.1640625 265.710938,5.390625 C263.96875,4.1953125 262.742188,2.5703125 262.03125,0.515625 Z M257.496094,4.96875 C258.714844,3.8984375 259.699219,2.46484375 260.449219,0.66796875 L261.28125,0.984375 C260.554688,2.8046875 259.527344,4.34765625 258.199219,5.61328125 C257.917969,5.32421875 257.683594,5.109375 257.496094,4.96875 Z" id="形状"></path>
                <path d="M268.136719,5.44921875 L268.570312,4.79296875 C269.03125,5.01953125 269.46875,5.234375 269.882812,5.4375 C270.289062,5.0390625 270.632812,4.59375 270.914062,4.1015625 L268.628906,4.1015625 C268.214844,4.78125 267.773438,5.37890625 267.304688,5.89453125 C267.132812,5.70703125 266.949219,5.51953125 266.753906,5.33203125 C267.496094,4.55078125 268.105469,3.59765625 268.582031,2.47265625 L269.355469,2.73046875 C269.246094,2.96484375 269.132812,3.1875 269.015625,3.3984375 L271.851562,3.3984375 L271.851562,4.06640625 C271.53125,4.71484375 271.125,5.296875 270.632812,5.8125 C271.3125,6.15625 271.9375,6.4765625 272.507812,6.7734375 L272.027344,7.53515625 C271.363281,7.15234375 270.683594,6.7734375 269.988281,6.3984375 C269.402344,6.875 268.722656,7.28515625 267.949219,7.62890625 L271.6875,7.62890625 L271.6875,11.390625 L270.914062,11.390625 L270.914062,10.8867188 L268.511719,10.8867188 L268.511719,11.484375 L267.738281,11.484375 L267.738281,7.72265625 C267.503906,7.81640625 267.265625,7.90625 267.023438,7.9921875 C266.921875,7.78125 266.792969,7.54296875 266.636719,7.27734375 C267.644531,6.95703125 268.507812,6.53125 269.226562,6 C268.867188,5.8203125 268.503906,5.63671875 268.136719,5.44921875 Z M272.835938,3.1171875 L274.546875,3.1171875 L274.816406,1.640625 L272.601562,1.640625 L272.601562,0.84375 L278.203125,0.84375 L278.203125,1.640625 L275.71875,1.640625 L275.402344,3.1171875 L277.839844,3.1171875 L277.839844,9 L277.019531,9 L277.019531,3.9140625 L273.65625,3.9140625 L273.65625,9 L272.835938,9 L272.835938,3.1171875 Z M274.921875,4.640625 L275.765625,4.640625 C275.78125,6.6328125 275.691406,8.01171875 275.496094,8.77734375 C276.621094,9.56640625 277.601562,10.2929688 278.4375,10.9570312 L277.851562,11.7070312 C277.09375,11.0195312 276.203125,10.3046875 275.179688,9.5625 C274.695312,10.4453125 273.789062,11.1992188 272.460938,11.8242188 C272.304688,11.5976562 272.117188,11.3476562 271.898438,11.0742188 C273.335938,10.4335938 274.226562,9.6640625 274.570312,8.765625 C274.851562,8.140625 274.96875,6.765625 274.921875,4.640625 Z M266.988281,1.5 L269.402344,1.5 C269.246094,1.1484375 269.0625,0.78515625 268.851562,0.41015625 L269.613281,0.08203125 C269.902344,0.62109375 270.140625,1.09375 270.328125,1.5 L272.402344,1.5 L272.402344,3.15234375 L271.605469,3.15234375 L271.605469,2.203125 L267.785156,2.203125 L267.785156,3.15234375 L266.988281,3.15234375 L266.988281,1.5 Z M270.914062,8.35546875 L268.511719,8.35546875 L268.511719,10.1601562 L270.914062,10.1601562 L270.914062,8.35546875 Z" id="形状"></path>
                <polygon id="路径" points="289.300781 8.47851562 288.667969 9.11132812 286.517578 6.9609375 284.378906 9.11132812 283.746094 8.47851562 285.902344 6.33984375 283.746094 4.18945312 284.378906 3.5625 286.517578 5.71289062 288.673828 3.5625 289.300781 4.1953125 287.150391 6.33984375"></polygon>
                <path d="M294.744141,10.0195312 L298.505859,10.0195312 L298.505859,0.33984375 L299.490234,0.33984375 L299.490234,10.0195312 L301.541016,10.0195312 L301.541016,0.33984375 L302.525391,0.33984375 L302.525391,10.0195312 L306.322266,10.0195312 L306.322266,10.8867188 L294.744141,10.8867188 L294.744141,10.0195312 Z M296.103516,2.63671875 C296.744141,4.14453125 297.365234,5.74609375 297.966797,7.44140625 L297.005859,7.875 C296.482422,6.2265625 295.896484,4.60546875 295.248047,3.01171875 L296.103516,2.63671875 Z M302.947266,7.546875 C303.728516,5.890625 304.384766,4.2890625 304.916016,2.7421875 L305.865234,3.1171875 C305.138672,4.984375 304.447266,6.58984375 303.791016,7.93359375 L302.947266,7.546875 Z" id="形状"></path>
                <path d="M310.083984,0 L310.962891,0.375 C310.787109,0.6640625 310.603516,0.9453125 310.412109,1.21875 L316.751953,1.21875 L316.751953,2.00390625 C316.025391,2.88671875 315.03125,3.65820312 313.769531,4.31835938 C315.082031,4.79492188 316.646484,5.08984375 318.462891,5.203125 C318.212891,5.5546875 317.994141,5.8828125 317.806641,6.1875 C315.771484,5.91796875 314.064453,5.46289062 312.685547,4.82226562 C311.134766,5.48242188 309.259766,6.00390625 307.060547,6.38671875 C306.927734,6.14453125 306.767578,5.87109375 306.580078,5.56640625 C308.537109,5.265625 310.236328,4.83984375 311.677734,4.2890625 C310.787109,3.74609375 310.074219,3.10351562 309.539062,2.36132812 C308.933594,3.08007812 308.263672,3.74609375 307.529297,4.359375 C307.294922,4.109375 307.080078,3.8984375 306.884766,3.7265625 C308.322266,2.5859375 309.388672,1.34375 310.083984,0 Z M307.623047,6.8671875 L311.033203,6.8671875 C311.087891,6.48828125 311.134766,6.06640625 311.173828,5.6015625 L312.123047,5.6015625 C312.072266,6.06640625 312.019531,6.48828125 311.964844,6.8671875 L316.693359,6.8671875 C316.615234,8.265625 316.541016,9.24609375 316.470703,9.80859375 C316.345703,10.9101562 315.689453,11.4648438 314.501953,11.4726562 C314.041016,11.4804688 313.349609,11.4648438 312.427734,11.4257812 C312.380859,11.1367188 312.322266,10.8125 312.251953,10.453125 C313.150391,10.53125 313.892578,10.5742188 314.478516,10.5820312 C315.142578,10.5664062 315.509766,10.2304688 315.580078,9.57421875 C315.650391,8.98828125 315.701172,8.36328125 315.732422,7.69921875 L311.824219,7.69921875 C311.410156,9.578125 309.955078,10.9414062 307.458984,11.7890625 C307.279297,11.53125 307.087891,11.2695312 306.884766,11.0039062 C309.126953,10.2773438 310.455078,9.17578125 310.869141,7.69921875 L307.623047,7.69921875 L307.623047,6.8671875 Z M315.498047,1.9921875 L310.265625,1.9921875 C310.894531,2.74609375 311.703125,3.3671875 312.691406,3.85546875 C313.820312,3.328125 314.755859,2.70703125 315.498047,1.9921875 Z" id="形状"></path>
                <path d="M320.138672,5.54296875 L323.724609,5.54296875 L323.724609,0.24609375 L324.685547,0.24609375 L324.685547,2.21484375 L330.052734,2.21484375 L330.052734,3.08203125 L324.685547,3.08203125 L324.685547,5.54296875 L328.880859,5.54296875 L328.880859,11.6835938 L327.943359,11.6835938 L327.943359,10.9570312 L321.076172,10.9570312 L321.076172,11.7070312 L320.138672,11.7070312 L320.138672,5.54296875 Z M327.943359,6.38671875 L321.076172,6.38671875 L321.076172,10.125 L327.943359,10.125 L327.943359,6.38671875 Z" id="形状"></path>
                <path d="M336.568359,0.140625 L337.541016,0.140625 L337.541016,5.09765625 C339.060547,4 340.310547,2.8515625 341.291016,1.65234375 L342.123047,2.2734375 C340.857422,3.66796875 339.330078,4.99414062 337.541016,6.25195312 L337.541016,9.64453125 C337.541016,10.1601562 337.767578,10.4179688 338.220703,10.4179688 L340.224609,10.4179688 C340.740234,10.4179688 341.037109,10.1875 341.115234,9.7265625 C341.208984,9.1328125 341.279297,8.48046875 341.326172,7.76953125 C341.654297,7.89453125 341.990234,8.0078125 342.333984,8.109375 C342.263672,8.8359375 342.169922,9.48828125 342.052734,10.0664062 C341.888672,10.8710938 341.369141,11.2734375 340.494141,11.2734375 L337.916016,11.2734375 C337.017578,11.2734375 336.568359,10.7851562 336.568359,9.80859375 L336.568359,0.140625 Z M332.513672,0.4453125 L332.513672,3.9609375 L335.818359,3.9609375 L335.818359,4.83984375 L332.513672,4.83984375 L332.513672,9.8203125 C333.326172,9.4765625 334.388672,8.9921875 335.701172,8.3671875 C335.701172,8.734375 335.716797,9.0859375 335.748047,9.421875 C334.599609,9.8828125 333.626953,10.3164062 332.830078,10.7226562 C332.486328,10.9023438 332.169922,11.1171875 331.880859,11.3671875 L331.166016,10.453125 C331.416016,10.265625 331.541016,9.98046875 331.541016,9.59765625 L331.541016,0.4453125 L332.513672,0.4453125 Z" id="形状"></path>
                <path d="M353.519531,5.42578125 L347.548828,5.42578125 L347.548828,4.54101562 L353.519531,4.54101562 L353.519531,5.42578125 Z M353.519531,8.1328125 L347.548828,8.1328125 L347.548828,7.24804688 L353.519531,7.24804688 L353.519531,8.1328125 Z" id="形状"></path>
            </g>
            <g id="n" transform="translate(137.854492, 0.000000)" fill="#75787A" fill-rule="nonzero">
                <path d="M4.56542969,5.52734375 L3.61328125,5.52734375 L3.61328125,2.45605469 C3.61328125,1.34602865 3.20800781,0.791015625 2.39746094,0.791015625 C1.97753906,0.791015625 1.63248698,0.947265625 1.36230469,1.25976562 C1.0921224,1.57226563 0.95703125,1.96777344 0.95703125,2.44628906 L0.95703125,5.52734375 L0,5.52734375 L0,0.126953125 L0.95703125,0.126953125 L0.95703125,1.02050781 L0.9765625,1.02050781 C1.38346354,0.340169271 1.97428385,0 2.74902344,0 C3.34147135,0 3.79231771,0.189615885 4.1015625,0.568847656 C4.41080729,0.948079427 4.56542969,1.50065104 4.56542969,2.2265625 L4.56542969,5.52734375 Z" id="路径"></path>
            </g>
            <circle id="椭圆形" fill="#86BC25" cx="5" cy="7.52734375" r="5"></circle>
        </g>
    </g>
</svg>