<?xml version="1.0" encoding="UTF-8"?>
<svg width="346px" height="59px" viewBox="0 0 346 59" version="1.1" xmlns="http://www.w3.org/2000/svg" xmlns:xlink="http://www.w3.org/1999/xlink">
    <g id="ESG数据库" stroke="none" stroke-width="1" fill="none" fill-rule="evenodd">
        <g id="05-查看指标缺失-切图专用" transform="translate(-563.000000, -898.000000)" fill="#75787A">
            <g id="企业二【A指标】估算结果-=企业一三四单" transform="translate(563.164062, 898.939453)">
                <path d="M0.3984375,9.6328125 L2.0625,9.6328125 L2.0625,5.1328125 L3.7734375,5.1328125 L3.7734375,9.6328125 L5.4609375,9.6328125 L5.4609375,3.73828125 L7.171875,3.73828125 L7.171875,5.9765625 L10.1484375,5.9765625 L10.1484375,7.48828125 L7.171875,7.48828125 L7.171875,9.6328125 L11.2734375,9.6328125 L11.2734375,11.1445312 L0.3984375,11.1445312 L0.3984375,9.6328125 Z M7.23046875,0.12890625 L6.84375,0.57421875 C8.0078125,2.01171875 9.61328125,3.11328125 11.6601562,3.87890625 C11.2929688,4.48046875 10.9765625,5.0078125 10.7109375,5.4609375 C8.640625,4.3984375 7.03125,3.1640625 5.8828125,1.7578125 C4.8046875,3.171875 3.171875,4.47265625 0.984375,5.66015625 C0.765625,5.29296875 0.4375,4.78125 0,4.125 C2.296875,3.0859375 4.00390625,1.75390625 5.12109375,0.12890625 L7.23046875,0.12890625 Z" id="形状" fill-rule="nonzero"></path>
                <path d="M15.375,0.28125 L17.0859375,0.28125 L17.0859375,9.4921875 L18.5859375,9.4921875 L18.5859375,0.28125 L20.2734375,0.28125 L20.2734375,6.61523438 C20.9101562,5.34960938 21.53125,3.890625 22.1367188,2.23828125 L23.6484375,2.8828125 C23.0546875,4.3671875 22.34375,5.9765625 21.515625,7.7109375 L20.2734375,7.13085938 L20.2734375,9.4921875 L23.6484375,9.4921875 L23.6484375,11.0976562 L12.0703125,11.0976562 L12.0703125,9.4921875 L15.375,9.4921875 L15.375,7.171875 L14.0625,7.734375 C13.421875,5.9140625 12.78125,4.2421875 12.140625,2.71875 L13.546875,2.07421875 C14.2226562,3.58984375 14.8320312,5.05078125 15.375,6.45703125 L15.375,0.28125 Z" id="路径" fill-rule="nonzero"></path>
                <path d="M25.0546875,1.359375 L34.6171875,1.359375 L34.6171875,3.1171875 L25.0546875,3.1171875 L25.0546875,1.359375 Z M24.2109375,8.6015625 L35.484375,8.6015625 L35.484375,10.3828125 L24.2109375,10.3828125 L24.2109375,8.6015625 Z" id="形状" fill-rule="nonzero"></path>
                <path d="M47.0917969,0.09375 C45.3691406,1.49609375 44.5078125,3.37695312 44.5078125,5.73632812 C44.5078125,6.93945312 44.703125,7.99902344 45.09375,8.91503906 C45.484375,9.83105469 46.1503906,10.7382812 47.0917969,11.6367188 L42.7265625,11.6367188 L42.7265625,0.09375 L47.0917969,0.09375 Z" id="路径" fill-rule="nonzero"></path>
                <path d="M56.7597656,10.0605469 L54.6503906,10.0605469 L53.9707031,7.98046875 L50.671875,7.98046875 L50.0039062,10.0605469 L47.90625,10.0605469 L51.2285156,0.984375 L53.5019531,0.984375 L56.7597656,10.0605469 Z M53.5136719,6.48632812 L52.4824219,3.33984375 C52.4160156,3.140625 52.3691406,2.87695312 52.3417969,2.54882812 L52.2890625,2.54882812 C52.265625,2.81445312 52.2128906,3.0703125 52.1308594,3.31640625 L51.09375,6.48632812 L53.5136719,6.48632812 Z" id="形状" fill-rule="nonzero"></path>
                <path d="M57.0585938,2.00390625 L58.359375,2.00390625 L58.359375,0.09375 L59.8476562,0.09375 L59.8476562,2.00390625 L60.9726562,2.00390625 L60.9726562,3.45703125 L59.8476562,3.45703125 L59.8476562,5.27929688 L60.984375,4.96875 C60.9765625,5.5859375 60.9804688,6.109375 60.9960938,6.5390625 C60.859375,6.57421875 60.4765625,6.68554688 59.8476562,6.87304688 L59.8476562,10.1132812 C59.8476562,10.546875 59.7626953,10.8789062 59.5927734,11.109375 C59.4228516,11.3398438 59.1787109,11.4726562 58.8603516,11.5078125 C58.5419922,11.5429688 58.0703125,11.5664062 57.4453125,11.578125 C57.3671875,11.109375 57.2695312,10.6015625 57.1523438,10.0546875 C57.6289062,10.0664062 57.9492188,10.0634766 58.1132812,10.0458984 C58.2773438,10.0283203 58.359375,9.890625 58.359375,9.6328125 L58.359375,7.31835938 L57.1523438,7.67578125 L57.0234375,5.953125 C57.4570312,5.86328125 57.9023438,5.76367188 58.359375,5.65429688 L58.359375,3.45703125 L57.0585938,3.45703125 L57.0585938,2.00390625 Z M67.1835938,2.0390625 C67.6523438,2.2890625 68.1367188,2.48828125 68.6367188,2.63671875 C68.4414062,3.69140625 68.1796875,4.31640625 67.8515625,4.51171875 C67.5234375,4.70703125 67.1210938,4.8046875 66.6445312,4.8046875 L63.0585938,4.8046875 C61.9179688,4.8046875 61.3476562,4.21484375 61.3476562,3.03515625 L61.3476562,0.140625 L62.90625,0.140625 L62.90625,1.3828125 C64.6132812,1.15625 66.296875,0.81640625 67.9570312,0.36328125 L68.4960938,1.7578125 C66.8203125,2.12890625 64.9570312,2.43359375 62.90625,2.671875 L62.90625,2.77734375 C62.90625,3.22265625 63.1679688,3.4453125 63.6914062,3.4453125 L66.28125,3.4453125 C66.6679688,3.4453125 66.9042969,3.33007812 66.9902344,3.09960938 C67.0761719,2.86914062 67.140625,2.515625 67.1835938,2.0390625 Z M61.4765625,11.625 L61.4765625,5.5078125 L68.15625,5.5078125 L68.15625,11.6015625 L66.609375,11.6015625 L66.609375,11.015625 L63.0234375,11.015625 L63.0234375,11.625 L61.4765625,11.625 Z M66.609375,6.84375 L63.0234375,6.84375 L63.0234375,7.6171875 L66.609375,7.6171875 L66.609375,6.84375 Z M63.0234375,9.6796875 L66.609375,9.6796875 L66.609375,8.90625 L63.0234375,8.90625 L63.0234375,9.6796875 Z" id="形状" fill-rule="nonzero"></path>
                <path d="M68.9882812,6.8671875 C69.5898438,5.82421875 70.0351562,4.76953125 70.3242188,3.703125 L69.0703125,3.703125 L69.0703125,2.16796875 L70.4179688,2.16796875 L70.4179688,0.1171875 L71.859375,0.1171875 L71.859375,2.16796875 L72.984375,2.16796875 L72.984375,3.703125 L71.859375,3.703125 L71.859375,5.05664062 C72.3632812,5.33789062 72.84375,5.61328125 73.3007812,5.8828125 L72.5742188,7.20703125 C72.4101562,7.06640625 72.171875,6.890625 71.859375,6.6796875 L71.859375,11.6367188 L70.4179688,11.6367188 L70.4179688,6.80859375 C70.1210938,7.57421875 69.7695312,8.30859375 69.3632812,9.01171875 C69.2304688,8.19921875 69.1054688,7.484375 68.9882812,6.8671875 Z M73.4882812,0.7265625 L80.109375,0.7265625 L80.109375,2.25 L73.4882812,2.25 L73.4882812,0.7265625 Z M73.0195312,3.65625 L80.5546875,3.65625 L80.5546875,5.1796875 L77.6015625,5.1796875 L77.6015625,10.1953125 C77.6015625,10.6132812 77.4863281,10.9345703 77.2558594,11.1591797 C77.0253906,11.3837891 76.6943359,11.5097656 76.2626953,11.5371094 C75.8310547,11.5644531 75.2421875,11.578125 74.4960938,11.578125 C74.3867188,10.9453125 74.28125,10.4023438 74.1796875,9.94921875 C74.59375,9.98828125 74.9648438,10.0078125 75.2929688,10.0078125 C75.7460938,10.0078125 75.9726562,9.796875 75.9726562,9.375 L75.9726562,5.1796875 L73.0195312,5.1796875 L73.0195312,3.65625 Z M73.9570312,5.91796875 L75.3515625,6.31640625 C74.875,7.83203125 74.3867188,9.140625 73.8867188,10.2421875 C73.3945312,9.9921875 72.9335938,9.8046875 72.5039062,9.6796875 C73.0195312,8.625 73.5039062,7.37109375 73.9570312,5.91796875 Z M79.3125,6.01171875 C79.8046875,7.19140625 80.2773438,8.4296875 80.7304688,9.7265625 L79.2890625,10.2773438 C78.8359375,8.89453125 78.3789062,7.640625 77.9179688,6.515625 L79.3125,6.01171875 Z" id="形状" fill-rule="nonzero"></path>
                <path d="M81.6035156,0.09375 L85.96875,0.09375 L85.96875,11.625 L81.6035156,11.625 C82.2324219,11.03125 82.7548828,10.3945312 83.1708984,9.71484375 C83.5869141,9.03515625 83.8613281,8.38671875 83.9941406,7.76953125 C84.1269531,7.15234375 84.1933594,6.48046875 84.1933594,5.75390625 C84.1933594,3.3828125 83.3300781,1.49609375 81.6035156,0.09375 Z" id="路径" fill-rule="nonzero"></path>
                <path d="M95.3554688,0.140625 L96.9140625,0.6328125 C96.6679688,1.37109375 96.4101562,2.07617188 96.140625,2.74804688 L96.140625,11.5546875 L94.5117188,11.5546875 L94.5117188,6.1875 C94.1992188,6.7421875 93.875,7.265625 93.5390625,7.7578125 C93.4140625,7.171875 93.2460938,6.453125 93.0351562,5.6015625 C93.8710938,4.2265625 94.6445312,2.40625 95.3554688,0.140625 Z M104.578125,3.80859375 L101.507812,3.80859375 L101.507812,5.6484375 L103.980469,5.6484375 L103.980469,11.4960938 L102.339844,11.4960938 L102.339844,10.8632812 L99.0234375,10.8632812 L99.0234375,11.5195312 L97.3828125,11.5195312 L97.3828125,5.6484375 L99.7734375,5.6484375 L99.7734375,3.80859375 L96.8554688,3.80859375 L96.8554688,2.296875 L99.7734375,2.296875 L99.7734375,0.1875 L101.507812,0.1875 L101.507812,2.296875 L104.578125,2.296875 L104.578125,3.80859375 Z M102.339844,7.16015625 L99.0234375,7.16015625 L99.0234375,9.3515625 L102.339844,9.3515625 L102.339844,7.16015625 Z" id="形状" fill-rule="nonzero"></path>
                <path d="M105.046875,8.75390625 L107.8125,8.75390625 C107.847656,8.5703125 107.871094,8.37890625 107.882812,8.1796875 L106.183594,8.1796875 L106.183594,3.13476562 C106.015625,3.27539062 105.84375,3.41015625 105.667969,3.5390625 C105.535156,3.1328125 105.3125,2.6640625 105,2.1328125 C105.78125,1.625 106.433594,0.9296875 106.957031,0.046875 L108.621094,0.046875 C108.472656,0.3203125 108.318359,0.58203125 108.158203,0.83203125 L110.695312,0.83203125 L110.695312,1.84570313 C111.257812,1.33789062 111.6875,0.734375 111.984375,0.03515625 L113.519531,0.03515625 C113.421875,0.3125 113.316406,0.578125 113.203125,0.83203125 L116.507812,0.83203125 L116.507812,1.91015625 L114.867188,1.91015625 L115.195312,2.61328125 L113.742188,2.90625 L115.582031,2.90625 L115.582031,8.1796875 L114.058594,8.1796875 L114.058594,8.75390625 L116.671875,8.75390625 L116.671875,9.87890625 L114.058594,9.87890625 L114.058594,11.578125 L112.511719,11.578125 L112.511719,9.87890625 L109.136719,9.87890625 C108.847656,10.6679688 108.289062,11.2890625 107.460938,11.7421875 C106.96875,11.390625 106.464844,11.0703125 105.949219,10.78125 C106.511719,10.5625 106.955078,10.2617188 107.279297,9.87890625 L105.046875,9.87890625 L105.046875,8.75390625 Z M109.6875,2.61328125 L108.234375,2.90625 L111.457031,2.90625 C111.0625,2.66015625 110.648438,2.43359375 110.214844,2.2265625 C110.355469,2.125 110.488281,2.01953125 110.613281,1.91015625 L109.365234,1.91015625 C109.478516,2.1484375 109.585938,2.3828125 109.6875,2.61328125 Z M111.785156,2.90625 L113.677734,2.90625 C113.552734,2.54296875 113.416016,2.2109375 113.267578,1.91015625 L112.605469,1.91015625 C112.359375,2.2734375 112.085938,2.60546875 111.785156,2.90625 Z M106.435547,2.90625 L108.169922,2.90625 C108.091797,2.63671875 107.970703,2.3046875 107.806641,1.91015625 L107.378906,1.91015625 C107.082031,2.26953125 106.767578,2.6015625 106.435547,2.90625 Z M114.046875,3.8671875 L107.71875,3.8671875 L107.71875,4.453125 L114.046875,4.453125 L114.046875,3.8671875 Z M107.71875,5.8359375 L114.046875,5.8359375 L114.046875,5.25 L107.71875,5.25 L107.71875,5.8359375 Z M114.046875,7.21875 L114.046875,6.6328125 L107.71875,6.6328125 L107.71875,7.21875 L114.046875,7.21875 Z M109.371094,8.75390625 L112.511719,8.75390625 L112.511719,8.1796875 L109.412109,8.1796875 C109.408203,8.36328125 109.394531,8.5546875 109.371094,8.75390625 Z" id="形状" fill-rule="nonzero"></path>
                <path d="M121.617188,4.1953125 L124.078125,4.1953125 L124.078125,2.91796875 L121.494141,2.91796875 L121.886719,3.10546875 C120.917969,4.58203125 120.085938,5.78515625 119.390625,6.71484375 C119.953125,6.64453125 120.554688,6.578125 121.195312,6.515625 C121.148438,7.046875 121.117188,7.53125 121.101562,7.96875 C119.390625,8.15625 118.226562,8.33203125 117.609375,8.49609375 L117.152344,7.18359375 C117.648438,6.74609375 118.238281,6.01953125 118.921875,5.00390625 C118.335938,5.046875 117.828125,5.09765625 117.398438,5.15625 L116.964844,3.8203125 C117.582031,3.0625 118.257812,1.7890625 118.992188,0 L120.539062,0.57421875 C119.921875,1.73046875 119.3125,2.76953125 118.710938,3.69140625 L119.789062,3.63867188 L120.492188,2.4375 L121.265625,2.80664063 L121.265625,1.5234375 L124.078125,1.5234375 L124.078125,0.046875 L125.71875,0.046875 L125.71875,1.5234375 L128.648438,1.5234375 L128.648438,2.91796875 L125.71875,2.91796875 L125.71875,4.1953125 L128.296875,4.1953125 L128.296875,5.58984375 L121.617188,5.58984375 L121.617188,4.1953125 Z M121.722656,11.6367188 L121.722656,6.59765625 L128.15625,6.59765625 L128.15625,11.6367188 L126.585938,11.6367188 L126.585938,10.9453125 L123.292969,10.9453125 L123.292969,11.6367188 L121.722656,11.6367188 Z M126.585938,8.02734375 L123.292969,8.02734375 L123.292969,9.515625 L126.585938,9.515625 L126.585938,8.02734375 Z M117.292969,11.0273438 L117.035156,9.38671875 C118.386719,9.21484375 119.832031,9.01171875 121.371094,8.77734375 C121.324219,9.43359375 121.304688,9.9765625 121.3125,10.40625 C119.921875,10.6015625 118.582031,10.8085938 117.292969,11.0273438 Z" id="形状" fill-rule="nonzero"></path>
                <path d="M129.28125,6.7734375 L134.085938,6.7734375 L134.085938,5.9765625 L130.335938,5.9765625 L130.335938,0.515625 L139.429688,0.515625 L139.429688,5.9765625 L135.679688,5.9765625 L135.679688,6.7734375 L140.449219,6.7734375 L140.449219,8.2265625 L136.728516,8.2265625 C137.978516,9.0078125 139.316406,9.5078125 140.742188,9.7265625 C140.445312,10.3125 140.21875,10.8359375 140.0625,11.296875 C138.238281,10.75 136.777344,9.92382812 135.679688,8.81835938 L135.679688,11.6367188 L134.085938,11.6367188 L134.085938,8.90625 C133.089844,9.890625 131.710938,10.7070312 129.949219,11.3554688 C129.707031,10.8867188 129.4375,10.3984375 129.140625,9.890625 C130.804688,9.5234375 132.128906,8.96875 133.113281,8.2265625 L129.28125,8.2265625 L129.28125,6.7734375 Z M137.859375,1.78125 L135.679688,1.78125 L135.679688,2.61328125 L137.859375,2.61328125 L137.859375,1.78125 Z M131.90625,2.61328125 L134.085938,2.61328125 L134.085938,1.78125 L131.90625,1.78125 L131.90625,2.61328125 Z M137.859375,4.7109375 L137.859375,3.87890625 L135.679688,3.87890625 L135.679688,4.7109375 L137.859375,4.7109375 Z M131.90625,4.7109375 L134.085938,4.7109375 L134.085938,3.87890625 L131.90625,3.87890625 L131.90625,4.7109375 Z" id="形状" fill-rule="nonzero"></path>
                <path d="M7.28320312,25.3789062 L1.3125,25.3789062 L1.3125,24.4941406 L7.28320312,24.4941406 L7.28320312,25.3789062 Z M7.28320312,28.0859375 L1.3125,28.0859375 L1.3125,27.2011719 L7.28320312,27.2011719 L7.28320312,28.0859375 Z" id="形状" fill-rule="nonzero"></path>
                <path d="M9.42773438,30.2539062 L11.0097656,30.2539062 L11.0097656,25.7070312 L11.9824219,25.7070312 L11.9824219,30.2539062 L14.4082031,30.2539062 L14.4082031,23.703125 L15.3808594,23.703125 L15.3808594,26.2929688 L18.9550781,26.2929688 L18.9550781,27.1484375 L15.3808594,27.1484375 L15.3808594,30.2539062 L20.0683594,30.2539062 L20.0683594,31.1210938 L9.42773438,31.1210938 L9.42773438,30.2539062 Z M15.6269531,20.1992188 L15.3925781,20.515625 C16.6113281,22.125 18.3417969,23.375 20.5839844,24.265625 C20.4121094,24.515625 20.1972656,24.8515625 19.9394531,25.2734375 C17.8066406,24.203125 16.0878906,22.859375 14.7832031,21.2421875 C13.5566406,22.828125 11.7871094,24.265625 9.47460938,25.5546875 C9.27148438,25.2578125 9.04492188,24.9375 8.79492188,24.59375 C11.1777344,23.5078125 13.0332031,22.0429688 14.3613281,20.1992188 L15.6269531,20.1992188 Z" id="形状" fill-rule="nonzero"></path>
                <path d="M20.9589844,29.9726562 L24.7207031,29.9726562 L24.7207031,20.2929688 L25.7050781,20.2929688 L25.7050781,29.9726562 L27.7558594,29.9726562 L27.7558594,20.2929688 L28.7402344,20.2929688 L28.7402344,29.9726562 L32.5371094,29.9726562 L32.5371094,30.8398438 L20.9589844,30.8398438 L20.9589844,29.9726562 Z M22.3183594,22.5898438 C22.9589844,24.0976562 23.5800781,25.6992188 24.1816406,27.3945312 L23.2207031,27.828125 C22.6972656,26.1796875 22.1113281,24.5585938 21.4628906,22.9648438 L22.3183594,22.5898438 Z M29.1621094,27.5 C29.9433594,25.84375 30.5996094,24.2421875 31.1308594,22.6953125 L32.0800781,23.0703125 C31.3535156,24.9375 30.6621094,26.5429688 30.0058594,27.8867188 L29.1621094,27.5 Z" id="形状" fill-rule="nonzero"></path>
                <polygon id="路径" fill-rule="nonzero" points="32.9238281 24.9921875 44.5722656 24.9921875 44.5722656 26.0234375 32.9238281 26.0234375"></polygon>
                <path d="M45.8144531,21.265625 L55.6347656,21.265625 L55.6347656,22.2734375 L45.8144531,22.2734375 L45.8144531,21.265625 Z M45.0878906,29.75 L56.4082031,29.75 L56.4082031,30.734375 L45.0878906,30.734375 L45.0878906,29.75 Z M46.3417969,25.2851562 L55.1074219,25.2851562 L55.1074219,26.28125 L46.3417969,26.28125 L46.3417969,25.2851562 Z" id="形状" fill-rule="nonzero"></path>
                <path d="M57.8261719,20.9492188 L67.9160156,20.9492188 L67.9160156,31.5664062 L66.9316406,31.5664062 L66.9316406,30.8632812 L58.8105469,30.8632812 L58.8105469,31.5664062 L57.8261719,31.5664062 L57.8261719,20.9492188 Z M65.4082031,26.7851562 C65.7753906,26.7851562 66.2324219,26.7773438 66.7792969,26.7617188 L66.6035156,27.7226562 L65.2558594,27.7226562 C64.2167969,27.7226562 63.6972656,27.25 63.6972656,26.3046875 L63.6972656,21.8867188 L62.0214844,21.8867188 C62.0097656,24.0898438 61.8808594,25.5390625 61.6347656,26.234375 C61.3769531,27.109375 60.6894531,27.90625 59.5722656,28.625 C59.3691406,28.3828125 59.1269531,28.1328125 58.8457031,27.875 C59.9003906,27.2421875 60.5292969,26.5585938 60.7324219,25.8242188 C60.9394531,25.3164062 61.0488281,24.0039062 61.0605469,21.8867188 L58.8105469,21.8867188 L58.8105469,29.9492188 L66.9316406,29.9492188 L66.9316406,21.8867188 L64.6582031,21.8867188 L64.6582031,26.1757812 C64.6582031,26.5820312 64.9082031,26.7851562 65.4082031,26.7851562 Z" id="形状" fill-rule="nonzero"></path>
                <path d="M68.9707031,28.3554688 L74.2792969,28.3554688 L74.2792969,27.03125 L71.0332031,27.03125 L71.0332031,27.5820312 L70.1425781,27.5820312 L70.1425781,21.8984375 L72.5742188,21.8984375 C72.1992188,21.4609375 71.7949219,21.0117188 71.3613281,20.5507812 L72.0292969,20 C72.6074219,20.5546875 73.1152344,21.0664062 73.5527344,21.5351562 L73.1191406,21.8984375 L75.8671875,21.8984375 C76.296875,21.328125 76.7324219,20.7070312 77.1738281,20.0351562 L78.1113281,20.5390625 C77.7089844,21.0273438 77.3203125,21.4804688 76.9453125,21.8984375 L79.3417969,21.8984375 L79.3417969,27.5820312 L78.4511719,27.5820312 L78.4511719,27.03125 L75.1933594,27.03125 L75.1933594,28.3554688 L80.5019531,28.3554688 L80.5019531,29.1992188 L75.1933594,29.1992188 L75.1933594,31.671875 L74.2792969,31.671875 L74.2792969,29.1992188 L68.9707031,29.1992188 L68.9707031,28.3554688 Z M75.1933594,26.2109375 L78.4511719,26.2109375 L78.4511719,24.8515625 L75.1933594,24.8515625 L75.1933594,26.2109375 Z M71.0332031,26.2109375 L74.2792969,26.2109375 L74.2792969,24.8515625 L71.0332031,24.8515625 L71.0332031,26.2109375 Z M78.4511719,22.71875 L75.1933594,22.71875 L75.1933594,24.0546875 L78.4511719,24.0546875 L78.4511719,22.71875 Z M71.0332031,24.0546875 L74.2792969,24.0546875 L74.2792969,22.71875 L71.0332031,22.71875 L71.0332031,24.0546875 Z" id="形状" fill-rule="nonzero"></path>
                <path d="M84.0878906,30.171875 L88.6640625,30.171875 C89.2265625,28.6679688 89.8769531,26.5234375 90.6152344,23.7382812 L91.6699219,24.0546875 C91.1972656,25.5039062 90.5253906,27.5429688 89.6542969,30.171875 L92.5839844,30.171875 L92.5839844,31.0390625 L84.0878906,31.0390625 L84.0878906,30.171875 Z M80.8886719,25.765625 C82.0058594,24.078125 82.8496094,22.1835938 83.4199219,20.0820312 L84.4160156,20.328125 C84.0917969,21.3203125 83.7441406,22.2460938 83.3730469,23.1054688 L83.3730469,31.6601562 L82.4941406,31.6601562 L82.4941406,24.9394531 C82.1269531,25.6269531 81.7402344,26.2617188 81.3339844,26.84375 C81.2246094,26.546875 81.0761719,26.1875 80.8886719,25.765625 Z M84.3339844,22.203125 L88.4648438,22.203125 C88.1171875,21.6171875 87.7324219,21.0742188 87.3105469,20.5742188 L88.1074219,20.0234375 C88.4511719,20.421875 88.8769531,20.9570312 89.3847656,21.6289062 L88.5175781,22.203125 L92.3730469,22.203125 L92.3730469,23.0703125 L84.3339844,23.0703125 L84.3339844,22.203125 Z M85.9277344,23.8554688 C86.4433594,25.2617188 87.0058594,26.9648438 87.6152344,28.9648438 L86.6425781,29.2460938 C86.1113281,27.3320312 85.5761719,25.6367188 85.0371094,24.1601562 L85.9277344,23.8554688 Z" id="形状" fill-rule="nonzero"></path>
                <path d="M94.9980469,30.4179688 L94.0839844,30.4179688 L94.0839844,24.359375 L98.2675781,24.359375 L98.2675781,22.7421875 L93.0878906,22.7421875 L93.0878906,21.8515625 L98.5546875,21.8515625 C98.3125,21.3632812 98.0292969,20.8710938 97.7050781,20.375 L98.6074219,19.953125 C98.9433594,20.4453125 99.2519531,20.9492188 99.5332031,21.4648438 L98.7597656,21.8515625 L104.431641,21.8515625 L104.431641,22.7421875 L99.2050781,22.7421875 L99.2050781,24.359375 L103.458984,24.359375 L103.458984,28.7421875 C103.458984,29.7265625 102.994141,30.21875 102.064453,30.21875 C101.634766,30.21875 101.076172,30.2109375 100.388672,30.1953125 C100.349609,29.9375 100.294922,29.625 100.224609,29.2578125 C100.873047,29.296875 101.392578,29.3164062 101.783203,29.3164062 C102.291016,29.3164062 102.544922,29.0585938 102.544922,28.5429688 L102.544922,25.2265625 L99.2050781,25.2265625 L99.2050781,31.6367188 L98.2675781,31.6367188 L98.2675781,25.2265625 L94.9980469,25.2265625 L94.9980469,30.4179688 Z" id="路径" fill-rule="nonzero"></path>
                <path d="M113.736328,21.640625 L109.166016,21.640625 L109.166016,20.796875 L115.400391,20.796875 L115.400391,21.6523438 L110.783203,24.5703125 L116.103516,24.5703125 C116.009766,26.734375 115.919922,28.40625 115.833984,29.5859375 C115.732422,30.78125 115.181641,31.3789062 114.181641,31.3789062 C113.837891,31.3789062 113.310547,31.3671875 112.599609,31.34375 C112.544922,30.953125 112.478516,30.6132812 112.400391,30.3242188 C112.939453,30.4101562 113.486328,30.453125 114.041016,30.453125 C114.595703,30.453125 114.900391,30.1210938 114.955078,29.4570312 C115.033203,28.4804688 115.111328,27.1328125 115.189453,25.4140625 L113.935547,25.4140625 C113.587891,28.0429688 112.373047,30.125 110.291016,31.6601562 C110.072266,31.3867188 109.853516,31.1484375 109.634766,30.9453125 C111.572266,29.6054688 112.714844,27.7617188 113.0625,25.4140625 L111.5625,25.4140625 C111.113281,27.3710938 110.001953,28.984375 108.228516,30.2539062 C108.041016,30.0273438 107.837891,29.8007812 107.619141,29.5742188 C109.236328,28.46875 110.259766,27.0820312 110.689453,25.4140625 L109.294922,25.4140625 L109.294922,24.5234375 L113.736328,21.640625 Z M104.912109,28.7421875 C105.478516,28.5117188 106.048828,28.2714844 106.623047,28.0214844 L106.623047,23.9726562 L105.052734,23.9726562 L105.052734,23.1289062 L106.623047,23.1289062 L106.623047,20.1992188 L107.490234,20.1992188 L107.490234,23.1289062 L108.919922,23.1289062 L108.919922,23.9726562 L107.490234,23.9726562 L107.490234,27.6347656 C107.927734,27.4355469 108.369141,27.2304688 108.814453,27.0195312 C108.830078,27.3476562 108.865234,27.640625 108.919922,27.8984375 C107.779297,28.4140625 106.564453,28.9960938 105.275391,29.6445312 L104.912109,28.7421875 Z" id="形状" fill-rule="nonzero"></path>
                <path d="M120.990234,25.0859375 L126.849609,25.0859375 C126.841797,25.1953125 126.783203,26.625 126.673828,29.375 C126.642578,30.71875 126.029297,31.3984375 124.833984,31.4140625 C124.193359,31.4140625 123.634766,31.4023438 123.158203,31.3789062 C123.119141,31.0195312 123.060547,30.6953125 122.982422,30.40625 C123.521484,30.4765625 124.064453,30.5195312 124.611328,30.5351562 C125.369141,30.5898438 125.751953,30.1679688 125.759766,29.2695312 C125.822266,28.2226562 125.869141,27.1015625 125.900391,25.90625 L123.263672,25.90625 C123.240234,27.1484375 123.052734,28.1757812 122.701172,28.9882812 C122.279297,29.9179688 121.552734,30.7890625 120.521484,31.6015625 C120.318359,31.3515625 120.091797,31.0976562 119.841797,30.8398438 C120.833984,30.0664062 121.494141,29.3242188 121.822266,28.6132812 C122.142578,27.984375 122.320312,27.0820312 122.355469,25.90625 L120.990234,25.90625 L120.990234,25.0859375 Z M116.876953,25.6484375 C117.994141,24.171875 118.900391,22.3398438 119.595703,20.1523438 L120.509766,20.46875 C120.130859,21.5078125 119.716797,22.4804688 119.267578,23.3867188 L119.267578,31.578125 L118.376953,31.578125 L118.376953,25.015625 C118.017578,25.609375 117.642578,26.1679688 117.251953,26.6914062 C117.134766,26.3554688 117.009766,26.0078125 116.876953,25.6484375 Z M124.248047,20.46875 L125.021484,20.140625 C125.794922,22.125 126.986328,23.5742188 128.595703,24.4882812 C128.298828,24.8320312 128.076172,25.1171875 127.927734,25.34375 C126.185547,24.1484375 124.958984,22.5234375 124.248047,20.46875 Z M119.712891,24.921875 C120.931641,23.8515625 121.916016,22.4179688 122.666016,20.6210938 L123.498047,20.9375 C122.771484,22.7578125 121.744141,24.3007812 120.416016,25.5664062 C120.134766,25.2773438 119.900391,25.0625 119.712891,24.921875 Z" id="形状" fill-rule="nonzero"></path>
                <path d="M130.353516,25.4023438 L130.787109,24.7460938 C131.248047,24.9726562 131.685547,25.1875 132.099609,25.390625 C132.505859,24.9921875 132.849609,24.546875 133.130859,24.0546875 L130.845703,24.0546875 C130.431641,24.734375 129.990234,25.3320312 129.521484,25.8476562 C129.349609,25.6601562 129.166016,25.4726562 128.970703,25.2851562 C129.712891,24.5039062 130.322266,23.5507812 130.798828,22.4257812 L131.572266,22.6835938 C131.462891,22.9179688 131.349609,23.140625 131.232422,23.3515625 L134.068359,23.3515625 L134.068359,24.0195312 C133.748047,24.6679688 133.341797,25.25 132.849609,25.765625 C133.529297,26.109375 134.154297,26.4296875 134.724609,26.7265625 L134.244141,27.4882812 C133.580078,27.1054688 132.900391,26.7265625 132.205078,26.3515625 C131.619141,26.828125 130.939453,27.2382812 130.166016,27.5820312 L133.904297,27.5820312 L133.904297,31.34375 L133.130859,31.34375 L133.130859,30.8398438 L130.728516,30.8398438 L130.728516,31.4375 L129.955078,31.4375 L129.955078,27.6757812 C129.720703,27.7695312 129.482422,27.859375 129.240234,27.9453125 C129.138672,27.734375 129.009766,27.4960938 128.853516,27.2304688 C129.861328,26.9101562 130.724609,26.484375 131.443359,25.953125 C131.083984,25.7734375 130.720703,25.5898438 130.353516,25.4023438 Z M135.052734,23.0703125 L136.763672,23.0703125 L137.033203,21.59375 L134.818359,21.59375 L134.818359,20.796875 L140.419922,20.796875 L140.419922,21.59375 L137.935547,21.59375 L137.619141,23.0703125 L140.056641,23.0703125 L140.056641,28.953125 L139.236328,28.953125 L139.236328,23.8671875 L135.873047,23.8671875 L135.873047,28.953125 L135.052734,28.953125 L135.052734,23.0703125 Z M137.138672,24.59375 L137.982422,24.59375 C137.998047,26.5859375 137.908203,27.9648438 137.712891,28.7304688 C138.837891,29.5195312 139.818359,30.2460938 140.654297,30.9101562 L140.068359,31.6601562 C139.310547,30.9726562 138.419922,30.2578125 137.396484,29.515625 C136.912109,30.3984375 136.005859,31.1523438 134.677734,31.7773438 C134.521484,31.5507812 134.333984,31.3007812 134.115234,31.0273438 C135.552734,30.3867188 136.443359,29.6171875 136.787109,28.71875 C137.068359,28.09375 137.185547,26.71875 137.138672,24.59375 Z M129.205078,21.453125 L131.619141,21.453125 C131.462891,21.1015625 131.279297,20.7382812 131.068359,20.3632812 L131.830078,20.0351562 C132.119141,20.5742188 132.357422,21.046875 132.544922,21.453125 L134.619141,21.453125 L134.619141,23.1054688 L133.822266,23.1054688 L133.822266,22.15625 L130.001953,22.15625 L130.001953,23.1054688 L129.205078,23.1054688 L129.205078,21.453125 Z M133.130859,28.3085938 L130.728516,28.3085938 L130.728516,30.1132812 L133.130859,30.1132812 L133.130859,28.3085938 Z" id="形状" fill-rule="nonzero"></path>
                <path d="M151.570312,20.1289062 C151,20.5625 150.408203,21.2431641 149.794922,22.1708984 C149.181641,23.0986328 148.875,24.2734375 148.875,25.6953125 C148.875,27.9140625 149.738281,29.8867188 151.464844,31.6132812 L147.503906,31.6132812 L147.503906,20.1289062 L151.570312,20.1289062 Z" id="路径" fill-rule="nonzero"></path>
                <path d="M161.039062,30.0605469 L159.744141,30.0605469 L158.818359,27.5761719 L155.039062,27.5761719 L154.166016,30.0605469 L152.871094,30.0605469 L156.328125,20.984375 L157.582031,20.984375 L161.039062,30.0605469 Z M158.455078,26.5507812 L157.083984,22.7773438 C157.041016,22.65625 156.994141,22.4453125 156.943359,22.1445312 L156.914062,22.1445312 C156.871094,22.4179688 156.822266,22.6289062 156.767578,22.7773438 L155.408203,26.5507812 L158.455078,26.5507812 Z" id="形状" fill-rule="nonzero"></path>
                <path d="M165.972656,25.71875 L172.160156,25.71875 L172.160156,31.6015625 L171.269531,31.6015625 L171.269531,30.8867188 L166.863281,30.8867188 L166.863281,31.6015625 L165.972656,31.6015625 L165.972656,25.71875 Z M161.34375,26.3515625 C161.921875,26.2148438 162.476562,26.0800781 163.007812,25.9472656 L163.007812,23.2226562 L161.449219,23.2226562 L161.449219,22.3789062 L163.007812,22.3789062 L163.007812,20.1054688 L163.886719,20.1054688 L163.886719,22.3789062 L165.398438,22.3789062 L165.398438,23.2226562 L163.886719,23.2226562 L163.886719,25.7128906 C164.304688,25.5996094 164.707031,25.484375 165.09375,25.3671875 C165.109375,25.7265625 165.136719,26.03125 165.175781,26.28125 C164.730469,26.40625 164.300781,26.5273438 163.886719,26.6445312 L163.886719,30.171875 C163.886719,31.0390625 163.5,31.4765625 162.726562,31.484375 C162.4375,31.4921875 162.058594,31.484375 161.589844,31.4609375 C161.558594,31.1484375 161.507812,30.8398438 161.4375,30.5351562 C161.867188,30.5898438 162.214844,30.6171875 162.480469,30.6171875 C162.832031,30.6171875 163.007812,30.421875 163.007812,30.03125 L163.007812,26.9023438 C162.457031,27.0625 161.941406,27.2148438 161.460938,27.359375 L161.34375,26.3515625 Z M165.855469,20.0820312 L166.746094,20.0820312 L166.746094,21.8867188 C168.613281,21.5351562 170.46875,21.0820312 172.3125,20.5273438 L172.628906,21.359375 C171.105469,21.8320312 169.144531,22.2851562 166.746094,22.71875 L166.746094,23.1054688 C166.746094,23.6679688 167.035156,23.9492188 167.613281,23.9492188 L170.847656,23.9492188 C171.417969,23.9492188 171.757812,23.6992188 171.867188,23.1992188 C171.9375,22.9101562 172.007812,22.515625 172.078125,22.015625 C172.359375,22.1328125 172.652344,22.2382812 172.957031,22.3320312 C172.871094,22.8398438 172.785156,23.25 172.699219,23.5625 C172.519531,24.3515625 171.957031,24.7460938 171.011719,24.7460938 L167.34375,24.7460938 C166.351562,24.7460938 165.855469,24.21875 165.855469,23.1640625 L165.855469,20.0820312 Z M171.269531,26.515625 L166.863281,26.515625 L166.863281,27.9335938 L171.269531,27.9335938 L171.269531,26.515625 Z M166.863281,30.0898438 L171.269531,30.0898438 L171.269531,28.6835938 L166.863281,28.6835938 L166.863281,30.0898438 Z" id="形状" fill-rule="nonzero"></path>
                <path d="M173.320312,27.4179688 C174.1875,26.0820312 174.78125,24.6835938 175.101562,23.2226562 L173.402344,23.2226562 L173.402344,22.4257812 L175.183594,22.4257812 L175.183594,20.1289062 L176.003906,20.1289062 L176.003906,22.4257812 L177.597656,22.4257812 L177.597656,23.2226562 L176.003906,23.2226562 L176.003906,25.296875 L176.507812,24.7695312 C177.007812,25.1992188 177.449219,25.6132812 177.832031,26.0117188 L177.210938,26.65625 C176.835938,26.2304688 176.433594,25.8007812 176.003906,25.3671875 L176.003906,31.5546875 L175.183594,31.5546875 L175.183594,25.2089844 C174.769531,26.5527344 174.277344,27.6328125 173.707031,28.4492188 C173.597656,28.1132812 173.46875,27.7695312 173.320312,27.4179688 Z M177.585938,24.2539062 L184.898438,24.2539062 L184.898438,25.0742188 L181.664062,25.0742188 L181.664062,29.9726562 C181.664062,30.9492188 181.214844,31.4375 180.316406,31.4375 C179.894531,31.4453125 179.375,31.4414062 178.757812,31.4257812 C178.71875,31.1445312 178.664062,30.8203125 178.59375,30.453125 C179.132812,30.515625 179.625,30.546875 180.070312,30.546875 C180.539062,30.546875 180.773438,30.2578125 180.773438,29.6796875 L180.773438,25.0742188 L177.585938,25.0742188 L177.585938,24.2539062 Z M178.125,20.8203125 L184.359375,20.8203125 L184.359375,21.640625 L178.125,21.640625 L178.125,20.8203125 Z M182.4375,26.5859375 L183.269531,26.1875 C184.011719,27.609375 184.628906,28.8554688 185.121094,29.9257812 L184.183594,30.3359375 C183.675781,29.125 183.09375,27.875 182.4375,26.5859375 Z M178.675781,26.1875 L179.554688,26.5390625 C178.914062,27.96875 178.277344,29.2382812 177.644531,30.3476562 C177.402344,30.2070312 177.117188,30.0703125 176.789062,29.9375 C177.414062,28.9296875 178.042969,27.6796875 178.675781,26.1875 Z" id="形状" fill-rule="nonzero"></path>
                <path d="M186.369141,20.1289062 L190.423828,20.1289062 L190.423828,31.6132812 L186.474609,31.6132812 C187.013672,31.0664062 187.489258,30.4570312 187.901367,29.7851562 C188.313477,29.1132812 188.608398,28.4677734 188.786133,27.8486328 C188.963867,27.2294922 189.052734,26.5175781 189.052734,25.7128906 C189.052734,24.2792969 188.746094,23.0976562 188.132812,22.1679688 C187.519531,21.2382812 186.931641,20.5585938 186.369141,20.1289062 Z" id="路径" fill-rule="nonzero"></path>
                <path d="M201.398438,25.7773438 L204.269531,25.7773438 L204.269531,23.3984375 L200.554688,23.3984375 L200.554688,22.53125 L204.269531,22.53125 L204.269531,20.09375 L205.230469,20.09375 L205.230469,22.53125 L208.992188,22.53125 L208.992188,23.3984375 L205.230469,23.3984375 L205.230469,25.7773438 L208.113281,25.7773438 L208.113281,31.6367188 L207.152344,31.6367188 L207.152344,30.7226562 L202.359375,30.7226562 L202.359375,31.6367188 L201.398438,31.6367188 L201.398438,25.7773438 Z M207.152344,26.6445312 L202.359375,26.6445312 L202.359375,29.8789062 L207.152344,29.8789062 L207.152344,26.6445312 Z M197.261719,25.8242188 C198.355469,24.1992188 199.222656,22.2695312 199.863281,20.0351562 L200.824219,20.3164062 C200.535156,21.1953125 200.230469,22.0195312 199.910156,22.7890625 L199.910156,31.6601562 L198.984375,31.6601562 L198.984375,24.7460938 C198.574219,25.5234375 198.140625,26.2226562 197.683594,26.84375 C197.566406,26.5078125 197.425781,26.1679688 197.261719,25.8242188 Z" id="形状" fill-rule="nonzero"></path>
                <path d="M210.996094,23.0703125 L212.941406,23.0703125 C212.652344,22.7109375 212.363281,22.375 212.074219,22.0625 L212.496094,21.7578125 L211.511719,21.7578125 C211.050781,22.3398438 210.523438,22.8789062 209.929688,23.375 C209.757812,23.1796875 209.5625,22.9804688 209.34375,22.7773438 C210.304688,22.0273438 211.0625,21.1132812 211.617188,20.0351562 L212.613281,20.0351562 C212.429688,20.3945312 212.226562,20.7421875 212.003906,21.078125 L215.414062,21.078125 L215.414062,21.7578125 L212.777344,21.7578125 C213.058594,22.0429688 213.339844,22.3398438 213.621094,22.6484375 L213.064453,23.0703125 L218.466797,23.0703125 C218.169922,22.7265625 217.839844,22.390625 217.476562,22.0625 L217.880859,21.7578125 L216.714844,21.7578125 C216.40625,22.2304688 216.085938,22.6523438 215.753906,23.0234375 C215.550781,22.84375 215.3125,22.6601562 215.039062,22.4726562 C215.703125,21.7773438 216.25,20.9648438 216.679688,20.0351562 L217.6875,20.0351562 C217.507812,20.4023438 217.324219,20.75 217.136719,21.078125 L220.851562,21.078125 L220.851562,21.7578125 L218.179688,21.7578125 C218.515625,22.0351562 218.824219,22.3203125 219.105469,22.6132812 L218.537109,23.0703125 L219.445312,23.0703125 L219.445312,28.34375 L218.625,28.34375 L218.625,27.9570312 L211.816406,27.9570312 L211.816406,28.34375 L210.996094,28.34375 L210.996094,23.0703125 Z M209.460938,28.9179688 L212.648438,28.9179688 C212.679688,28.6953125 212.695312,28.4492188 212.695312,28.1796875 L213.550781,28.1796875 C213.550781,28.4414062 213.537109,28.6875 213.509766,28.9179688 L217.347656,28.9179688 L217.347656,28.1914062 L218.214844,28.1914062 L218.214844,28.9179688 L220.992188,28.9179688 L220.992188,29.6445312 L218.214844,29.6445312 L218.214844,31.6132812 L217.347656,31.6132812 L217.347656,29.6445312 L213.386719,29.6445312 C213.105469,30.6953125 212.179688,31.3867188 210.609375,31.71875 C210.460938,31.4765625 210.289062,31.21875 210.09375,30.9453125 C211.390625,30.7265625 212.183594,30.2929688 212.472656,29.6445312 L209.460938,29.6445312 L209.460938,28.9179688 Z M218.625,23.7265625 L211.816406,23.7265625 L211.816406,24.5117188 L218.625,24.5117188 L218.625,23.7265625 Z M211.816406,27.3007812 L218.625,27.3007812 L218.625,26.515625 L211.816406,26.515625 L211.816406,27.3007812 Z M211.816406,25.90625 L218.625,25.90625 L218.625,25.1210938 L211.816406,25.1210938 L211.816406,25.90625 Z" id="形状" fill-rule="nonzero"></path>
                <path d="M226.101562,26.8554688 L232.289062,26.8554688 L232.289062,31.6132812 L231.375,31.6132812 L231.375,30.8867188 L227.015625,30.8867188 L227.015625,31.6132812 L226.101562,31.6132812 L226.101562,26.8554688 Z M225.867188,24.6289062 L228.726562,24.6289062 L228.726562,22.8007812 L225.480469,22.8007812 L225.480469,21.9570312 L228.726562,21.9570312 L228.726562,20.0820312 L229.664062,20.0820312 L229.664062,21.9570312 L232.945312,21.9570312 L232.945312,22.8007812 L229.664062,22.8007812 L229.664062,24.6289062 L232.535156,24.6289062 L232.535156,25.4726562 L225.867188,25.4726562 L225.867188,24.6289062 Z M222.855469,27.125 C223.894531,26.9765625 224.753906,26.84375 225.433594,26.7265625 C225.386719,27.03125 225.351562,27.328125 225.328125,27.6171875 C224.460938,27.7421875 223.277344,27.9257812 221.777344,28.1679688 L221.589844,27.3007812 C222.089844,26.78125 222.685547,25.9570312 223.376953,24.828125 C222.720703,24.8710938 222.125,24.9140625 221.589844,24.9570312 L221.367188,24.1601562 C222.085938,23.1992188 222.832031,21.8125 223.605469,20 L224.496094,20.3515625 C223.652344,22.0078125 222.960938,23.2539062 222.421875,24.0898438 C222.875,24.078125 223.347656,24.0644531 223.839844,24.0488281 C224.105469,23.5957031 224.382812,23.1015625 224.671875,22.5664062 L225.539062,23 C224.648438,24.484375 223.753906,25.859375 222.855469,27.125 Z M231.375,27.6757812 L227.015625,27.6757812 L227.015625,30.0664062 L231.375,30.0664062 L231.375,27.6757812 Z M221.320312,29.890625 C222.765625,29.609375 224.175781,29.3007812 225.550781,28.9648438 C225.527344,29.2773438 225.515625,29.5742188 225.515625,29.8554688 C224.25,30.1210938 222.9375,30.4335938 221.578125,30.7929688 L221.320312,29.890625 Z" id="形状" fill-rule="nonzero"></path>
                <path d="M245.0625,30.1601562 C244.765625,30.4804688 244.519531,30.7734375 244.324219,31.0390625 C242.425781,30.4375 240.859375,29.3730469 239.625,27.8457031 L239.625,31.6367188 L238.734375,31.6367188 L238.734375,27.8339844 C237.636719,29.1035156 236.066406,30.2226562 234.023438,31.1914062 C233.835938,30.9570312 233.601562,30.7070312 233.320312,30.4414062 C235.164062,29.734375 236.662109,28.8203125 237.814453,27.6992188 L233.578125,27.6992188 L233.578125,26.8554688 L238.734375,26.8554688 L238.734375,25.5898438 L235.628906,25.5898438 L235.628906,26.046875 L234.738281,26.046875 L234.738281,20.65625 L243.621094,20.65625 L243.621094,26.046875 L242.730469,26.046875 L242.730469,25.5898438 L239.625,25.5898438 L239.625,26.8554688 L244.804688,26.8554688 L244.804688,27.6992188 L240.410156,27.6992188 C241.550781,28.90625 243.101562,29.7265625 245.0625,30.1601562 Z M239.625,24.7929688 L242.730469,24.7929688 L242.730469,23.5039062 L239.625,23.5039062 L239.625,24.7929688 Z M242.730469,21.453125 L239.625,21.453125 L239.625,22.7421875 L242.730469,22.7421875 L242.730469,21.453125 Z M235.628906,24.7929688 L238.734375,24.7929688 L238.734375,23.5039062 L235.628906,23.5039062 L235.628906,24.7929688 Z M235.628906,22.7421875 L238.734375,22.7421875 L238.734375,21.453125 L235.628906,21.453125 L235.628906,22.7421875 Z" id="形状" fill-rule="nonzero"></path>
                <polygon id="路径" fill-rule="nonzero" points="256.330078 28.484375 255.445312 29.3632812 253.306641 27.2070312 251.15625 29.3632812 250.271484 28.4726562 252.427734 26.3457031 250.271484 24.1953125 251.138672 23.3105469 253.306641 25.4667969 255.46875 23.3105469 256.318359 24.2246094 254.179688 26.3457031"></polygon>
                <path d="M262.107422,30.2539062 L263.689453,30.2539062 L263.689453,25.7070312 L264.662109,25.7070312 L264.662109,30.2539062 L267.087891,30.2539062 L267.087891,23.703125 L268.060547,23.703125 L268.060547,26.2929688 L271.634766,26.2929688 L271.634766,27.1484375 L268.060547,27.1484375 L268.060547,30.2539062 L272.748047,30.2539062 L272.748047,31.1210938 L262.107422,31.1210938 L262.107422,30.2539062 Z M268.306641,20.1992188 L268.072266,20.515625 C269.291016,22.125 271.021484,23.375 273.263672,24.265625 C273.091797,24.515625 272.876953,24.8515625 272.619141,25.2734375 C270.486328,24.203125 268.767578,22.859375 267.462891,21.2421875 C266.236328,22.828125 264.466797,24.265625 262.154297,25.5546875 C261.951172,25.2578125 261.724609,24.9375 261.474609,24.59375 C263.857422,23.5078125 265.712891,22.0429688 267.041016,20.1992188 L268.306641,20.1992188 Z" id="形状" fill-rule="nonzero"></path>
                <path d="M273.638672,29.9726562 L277.400391,29.9726562 L277.400391,20.2929688 L278.384766,20.2929688 L278.384766,29.9726562 L280.435547,29.9726562 L280.435547,20.2929688 L281.419922,20.2929688 L281.419922,29.9726562 L285.216797,29.9726562 L285.216797,30.8398438 L273.638672,30.8398438 L273.638672,29.9726562 Z M274.998047,22.5898438 C275.638672,24.0976562 276.259766,25.6992188 276.861328,27.3945312 L275.900391,27.828125 C275.376953,26.1796875 274.791016,24.5585938 274.142578,22.9648438 L274.998047,22.5898438 Z M281.841797,27.5 C282.623047,25.84375 283.279297,24.2421875 283.810547,22.6953125 L284.759766,23.0703125 C284.033203,24.9375 283.341797,26.5429688 282.685547,27.8867188 L281.841797,27.5 Z" id="形状" fill-rule="nonzero"></path>
                <path d="M286.634766,21.59375 L296.197266,21.59375 L296.197266,22.6015625 L286.634766,22.6015625 L286.634766,21.59375 Z M285.767578,29.2695312 L297.029297,29.2695312 L297.029297,30.2539062 L285.767578,30.2539062 L285.767578,29.2695312 Z" id="形状" fill-rule="nonzero"></path>
                <path d="M299.677734,30.4179688 L298.763672,30.4179688 L298.763672,24.359375 L302.947266,24.359375 L302.947266,22.7421875 L297.767578,22.7421875 L297.767578,21.8515625 L303.234375,21.8515625 C302.992188,21.3632812 302.708984,20.8710938 302.384766,20.375 L303.287109,19.953125 C303.623047,20.4453125 303.931641,20.9492188 304.212891,21.4648438 L303.439453,21.8515625 L309.111328,21.8515625 L309.111328,22.7421875 L303.884766,22.7421875 L303.884766,24.359375 L308.138672,24.359375 L308.138672,28.7421875 C308.138672,29.7265625 307.673828,30.21875 306.744141,30.21875 C306.314453,30.21875 305.755859,30.2109375 305.068359,30.1953125 C305.029297,29.9375 304.974609,29.625 304.904297,29.2578125 C305.552734,29.296875 306.072266,29.3164062 306.462891,29.3164062 C306.970703,29.3164062 307.224609,29.0585938 307.224609,28.5429688 L307.224609,25.2265625 L303.884766,25.2265625 L303.884766,31.6367188 L302.947266,31.6367188 L302.947266,25.2265625 L299.677734,25.2265625 L299.677734,30.4179688 Z" id="路径" fill-rule="nonzero"></path>
                <path d="M318.416016,21.640625 L313.845703,21.640625 L313.845703,20.796875 L320.080078,20.796875 L320.080078,21.6523438 L315.462891,24.5703125 L320.783203,24.5703125 C320.689453,26.734375 320.599609,28.40625 320.513672,29.5859375 C320.412109,30.78125 319.861328,31.3789062 318.861328,31.3789062 C318.517578,31.3789062 317.990234,31.3671875 317.279297,31.34375 C317.224609,30.953125 317.158203,30.6132812 317.080078,30.3242188 C317.619141,30.4101562 318.166016,30.453125 318.720703,30.453125 C319.275391,30.453125 319.580078,30.1210938 319.634766,29.4570312 C319.712891,28.4804688 319.791016,27.1328125 319.869141,25.4140625 L318.615234,25.4140625 C318.267578,28.0429688 317.052734,30.125 314.970703,31.6601562 C314.751953,31.3867188 314.533203,31.1484375 314.314453,30.9453125 C316.251953,29.6054688 317.394531,27.7617188 317.742188,25.4140625 L316.242188,25.4140625 C315.792969,27.3710938 314.681641,28.984375 312.908203,30.2539062 C312.720703,30.0273438 312.517578,29.8007812 312.298828,29.5742188 C313.916016,28.46875 314.939453,27.0820312 315.369141,25.4140625 L313.974609,25.4140625 L313.974609,24.5234375 L318.416016,21.640625 Z M309.591797,28.7421875 C310.158203,28.5117188 310.728516,28.2714844 311.302734,28.0214844 L311.302734,23.9726562 L309.732422,23.9726562 L309.732422,23.1289062 L311.302734,23.1289062 L311.302734,20.1992188 L312.169922,20.1992188 L312.169922,23.1289062 L313.599609,23.1289062 L313.599609,23.9726562 L312.169922,23.9726562 L312.169922,27.6347656 C312.607422,27.4355469 313.048828,27.2304688 313.494141,27.0195312 C313.509766,27.3476562 313.544922,27.640625 313.599609,27.8984375 C312.458984,28.4140625 311.244141,28.9960938 309.955078,29.6445312 L309.591797,28.7421875 Z" id="形状" fill-rule="nonzero"></path>
                <path d="M325.669922,25.0859375 L331.529297,25.0859375 C331.521484,25.1953125 331.462891,26.625 331.353516,29.375 C331.322266,30.71875 330.708984,31.3984375 329.513672,31.4140625 C328.873047,31.4140625 328.314453,31.4023438 327.837891,31.3789062 C327.798828,31.0195312 327.740234,30.6953125 327.662109,30.40625 C328.201172,30.4765625 328.744141,30.5195312 329.291016,30.5351562 C330.048828,30.5898438 330.431641,30.1679688 330.439453,29.2695312 C330.501953,28.2226562 330.548828,27.1015625 330.580078,25.90625 L327.943359,25.90625 C327.919922,27.1484375 327.732422,28.1757812 327.380859,28.9882812 C326.958984,29.9179688 326.232422,30.7890625 325.201172,31.6015625 C324.998047,31.3515625 324.771484,31.0976562 324.521484,30.8398438 C325.513672,30.0664062 326.173828,29.3242188 326.501953,28.6132812 C326.822266,27.984375 327,27.0820312 327.035156,25.90625 L325.669922,25.90625 L325.669922,25.0859375 Z M321.556641,25.6484375 C322.673828,24.171875 323.580078,22.3398438 324.275391,20.1523438 L325.189453,20.46875 C324.810547,21.5078125 324.396484,22.4804688 323.947266,23.3867188 L323.947266,31.578125 L323.056641,31.578125 L323.056641,25.015625 C322.697266,25.609375 322.322266,26.1679688 321.931641,26.6914062 C321.814453,26.3554688 321.689453,26.0078125 321.556641,25.6484375 Z M328.927734,20.46875 L329.701172,20.140625 C330.474609,22.125 331.666016,23.5742188 333.275391,24.4882812 C332.978516,24.8320312 332.755859,25.1171875 332.607422,25.34375 C330.865234,24.1484375 329.638672,22.5234375 328.927734,20.46875 Z M324.392578,24.921875 C325.611328,23.8515625 326.595703,22.4179688 327.345703,20.6210938 L328.177734,20.9375 C327.451172,22.7578125 326.423828,24.3007812 325.095703,25.5664062 C324.814453,25.2773438 324.580078,25.0625 324.392578,24.921875 Z" id="形状" fill-rule="nonzero"></path>
                <path d="M335.033203,25.4023438 L335.466797,24.7460938 C335.927734,24.9726562 336.365234,25.1875 336.779297,25.390625 C337.185547,24.9921875 337.529297,24.546875 337.810547,24.0546875 L335.525391,24.0546875 C335.111328,24.734375 334.669922,25.3320312 334.201172,25.8476562 C334.029297,25.6601562 333.845703,25.4726562 333.650391,25.2851562 C334.392578,24.5039062 335.001953,23.5507812 335.478516,22.4257812 L336.251953,22.6835938 C336.142578,22.9179688 336.029297,23.140625 335.912109,23.3515625 L338.748047,23.3515625 L338.748047,24.0195312 C338.427734,24.6679688 338.021484,25.25 337.529297,25.765625 C338.208984,26.109375 338.833984,26.4296875 339.404297,26.7265625 L338.923828,27.4882812 C338.259766,27.1054688 337.580078,26.7265625 336.884766,26.3515625 C336.298828,26.828125 335.619141,27.2382812 334.845703,27.5820312 L338.583984,27.5820312 L338.583984,31.34375 L337.810547,31.34375 L337.810547,30.8398438 L335.408203,30.8398438 L335.408203,31.4375 L334.634766,31.4375 L334.634766,27.6757812 C334.400391,27.7695312 334.162109,27.859375 333.919922,27.9453125 C333.818359,27.734375 333.689453,27.4960938 333.533203,27.2304688 C334.541016,26.9101562 335.404297,26.484375 336.123047,25.953125 C335.763672,25.7734375 335.400391,25.5898438 335.033203,25.4023438 Z M339.732422,23.0703125 L341.443359,23.0703125 L341.712891,21.59375 L339.498047,21.59375 L339.498047,20.796875 L345.099609,20.796875 L345.099609,21.59375 L342.615234,21.59375 L342.298828,23.0703125 L344.736328,23.0703125 L344.736328,28.953125 L343.916016,28.953125 L343.916016,23.8671875 L340.552734,23.8671875 L340.552734,28.953125 L339.732422,28.953125 L339.732422,23.0703125 Z M341.818359,24.59375 L342.662109,24.59375 C342.677734,26.5859375 342.587891,27.9648438 342.392578,28.7304688 C343.517578,29.5195312 344.498047,30.2460938 345.333984,30.9101562 L344.748047,31.6601562 C343.990234,30.9726562 343.099609,30.2578125 342.076172,29.515625 C341.591797,30.3984375 340.685547,31.1523438 339.357422,31.7773438 C339.201172,31.5507812 339.013672,31.3007812 338.794922,31.0273438 C340.232422,30.3867188 341.123047,29.6171875 341.466797,28.71875 C341.748047,28.09375 341.865234,26.71875 341.818359,24.59375 Z M333.884766,21.453125 L336.298828,21.453125 C336.142578,21.1015625 335.958984,20.7382812 335.748047,20.3632812 L336.509766,20.0351562 C336.798828,20.5742188 337.037109,21.046875 337.224609,21.453125 L339.298828,21.453125 L339.298828,23.1054688 L338.501953,23.1054688 L338.501953,22.15625 L334.681641,22.15625 L334.681641,23.1054688 L333.884766,23.1054688 L333.884766,21.453125 Z M337.810547,28.3085938 L335.408203,28.3085938 L335.408203,30.1132812 L337.810547,30.1132812 L337.810547,28.3085938 Z" id="形状" fill-rule="nonzero"></path>
                <g id="产品营业收入占比" transform="translate(129.988281, 46.023438)" fill-rule="nonzero">
                    <path d="M1.2421875,4.76953125 L6.78515625,4.76953125 C7.3125,3.9921875 7.78515625,3.21875 8.203125,2.44921875 L9.10546875,3.0234375 C8.69140625,3.60546875 8.2578125,4.1875 7.8046875,4.76953125 L11.2734375,4.76953125 L11.2734375,5.58984375 L2.19140625,5.58984375 L2.19140625,6.41015625 C2.19140625,7.79296875 2.0859375,8.82421875 1.875,9.50390625 C1.65625,10.2617188 1.2421875,10.9726562 0.6328125,11.6367188 C0.4296875,11.3867188 0.21875,11.1210938 0,10.8398438 C0.4609375,10.3476562 0.78515625,9.76953125 0.97265625,9.10546875 C1.15234375,8.45703125 1.2421875,7.55859375 1.2421875,6.41015625 L1.2421875,4.76953125 Z M0.28125,1.41796875 L5.63085938,1.41796875 C5.45898438,1.09765625 5.26953125,0.76953125 5.0625,0.43359375 L5.9296875,0 C6.18359375,0.4140625 6.44335937,0.88671875 6.70898438,1.41796875 L11.578125,1.41796875 L11.578125,2.25 L0.28125,2.25 L0.28125,1.41796875 Z M2.73046875,2.91796875 L3.50390625,2.40234375 C3.98828125,3.01171875 4.41796875,3.58984375 4.79296875,4.13671875 L3.9609375,4.7109375 C3.65625,4.1953125 3.24609375,3.59765625 2.73046875,2.91796875 Z" id="形状"></path>
                    <path d="M13.8046875,0.57421875 L21.890625,0.57421875 L21.890625,5.21484375 L20.953125,5.21484375 L20.953125,4.83984375 L14.7421875,4.83984375 L14.7421875,5.21484375 L13.8046875,5.21484375 L13.8046875,0.57421875 Z M18.5742188,6.17578125 L23.0507812,6.17578125 L23.0507812,11.5898438 L22.1601562,11.5898438 L22.1601562,10.7929688 L19.4648438,10.7929688 L19.4648438,11.5898438 L18.5742188,11.5898438 L18.5742188,6.17578125 Z M12.65625,6.17578125 L17.1210938,6.17578125 L17.1210938,11.5898438 L16.2304688,11.5898438 L16.2304688,10.8046875 L13.546875,10.8046875 L13.546875,11.5898438 L12.65625,11.5898438 L12.65625,6.17578125 Z M20.953125,1.39453125 L14.7421875,1.39453125 L14.7421875,4.01953125 L20.953125,4.01953125 L20.953125,1.39453125 Z M22.1601562,6.99609375 L19.4648438,6.99609375 L19.4648438,10.03125 L22.1601562,10.03125 L22.1601562,6.99609375 Z M16.2304688,6.99609375 L13.546875,6.99609375 L13.546875,10.0078125 L16.2304688,10.0078125 L16.2304688,6.99609375 Z" id="形状"></path>
                    <path d="M25.4648438,8.05078125 L34.2304688,8.05078125 L34.2304688,11.625 L33.3398438,11.625 L33.3398438,11.0390625 L26.3554688,11.0390625 L26.3554688,11.625 L25.4648438,11.625 L25.4648438,8.05078125 Z M26.3085938,4.44140625 L33.3867188,4.44140625 L33.3867188,7.37109375 L32.4960938,7.37109375 L32.4960938,7.1015625 L27.1992188,7.1015625 L27.1992188,7.37109375 L26.3085938,7.37109375 L26.3085938,4.44140625 Z M31.2304688,0.046875 L32.0859375,0.046875 L32.0859375,1.0078125 L35.6015625,1.0078125 L35.6015625,1.78125 L32.0859375,1.78125 L32.0859375,2.484375 L31.2304688,2.484375 L31.2304688,1.78125 L28.453125,1.78125 L28.453125,2.484375 L27.5976562,2.484375 L27.5976562,1.78125 L24.1289062,1.78125 L24.1289062,1.0078125 L27.5976562,1.0078125 L27.5976562,0.046875 L28.453125,0.046875 L28.453125,1.0078125 L31.2304688,1.0078125 L31.2304688,0.046875 Z M24.4804688,2.80078125 L35.2148438,2.80078125 L35.2148438,4.9453125 L34.3242188,4.9453125 L34.3242188,3.57421875 L25.3710938,3.57421875 L25.3710938,4.9453125 L24.4804688,4.9453125 L24.4804688,2.80078125 Z M33.3398438,8.77734375 L26.3554688,8.77734375 L26.3554688,10.3125 L33.3398438,10.3125 L33.3398438,8.77734375 Z M32.4960938,5.16796875 L27.1992188,5.16796875 L27.1992188,6.375 L32.4960938,6.375 L32.4960938,5.16796875 Z" id="形状"></path>
                    <path d="M36.0703125,9.94921875 L39.8320312,9.94921875 L39.8320312,0.26953125 L40.8164062,0.26953125 L40.8164062,9.94921875 L42.8671875,9.94921875 L42.8671875,0.26953125 L43.8515625,0.26953125 L43.8515625,9.94921875 L47.6484375,9.94921875 L47.6484375,10.8164062 L36.0703125,10.8164062 L36.0703125,9.94921875 Z M37.4296875,2.56640625 C38.0703125,4.07421875 38.6914062,5.67578125 39.2929688,7.37109375 L38.3320312,7.8046875 C37.8085938,6.15625 37.2226562,4.53515625 36.5742188,2.94140625 L37.4296875,2.56640625 Z M44.2734375,7.4765625 C45.0546875,5.8203125 45.7109375,4.21875 46.2421875,2.671875 L47.1914062,3.046875 C46.4648438,4.9140625 45.7734375,6.51953125 45.1171875,7.86328125 L44.2734375,7.4765625 Z" id="形状"></path>
                    <path d="M52.0546875,5.05078125 C53.0546875,3.31640625 53.7773438,1.640625 54.2226562,0.0234375 L55.171875,0.29296875 C54.921875,1.015625 54.6601562,1.70703125 54.3867188,2.3671875 L59.4960938,2.3671875 L59.4960938,3.234375 L58.1191406,3.234375 C58.0019531,5.49609375 57.421875,7.33789062 56.3789062,8.75976562 C57.171875,9.46289062 58.296875,10.0742188 59.7539062,10.59375 C59.5117188,10.8984375 59.2890625,11.2109375 59.0859375,11.53125 C57.6953125,10.9375 56.5859375,10.2519531 55.7578125,9.47460938 C55.0039062,10.2167969 53.9609375,10.9375 52.6289062,11.6367188 C52.4648438,11.3789062 52.265625,11.1171875 52.03125,10.8515625 C53.3632812,10.1835938 54.3925781,9.4921875 55.1191406,8.77734375 C54.2167969,7.6484375 53.6328125,6.24609375 53.3671875,4.5703125 C53.1484375,4.99609375 52.921875,5.40625 52.6875,5.80078125 C52.5390625,5.57421875 52.328125,5.32421875 52.0546875,5.05078125 Z M51,0.1171875 L51.890625,0.1171875 L51.890625,11.5664062 L51,11.5664062 L51,7.95117187 C50.5234375,8.21679688 50.0390625,8.51171875 49.546875,8.8359375 C49.34375,8.984375 49.1445312,9.16015625 48.9492188,9.36328125 L48.28125,8.578125 C48.5234375,8.3203125 48.6445312,7.984375 48.6445312,7.5703125 L48.6445312,1.7578125 L49.5351562,1.7578125 L49.5351562,7.7578125 C50,7.51171875 50.4882812,7.25 51,6.97265625 L51,0.1171875 Z M57.1933594,3.234375 L54.0761719,3.234375 C54.1894531,5.140625 54.7402344,6.74609375 55.7285156,8.05078125 C56.6191406,6.796875 57.1074219,5.19140625 57.1933594,3.234375 Z" id="形状"></path>
                    <path d="M63.28125,0.76171875 L64.0546875,0.2109375 C64.9296875,0.75 65.890625,2.1328125 66.9375,4.359375 C68.3984375,7.5546875 69.984375,9.50390625 71.6953125,10.2070312 L70.875,11.2382812 C69.1640625,10.2226562 67.5820312,8.08203125 66.1289062,4.81640625 C66.0117188,4.5546875 65.8964844,4.3046875 65.7832031,4.06640625 C64.8769531,7.171875 63.1914062,9.5859375 60.7265625,11.3085938 C60.515625,10.9960938 60.2773438,10.703125 60.0117188,10.4296875 C62.546875,8.83203125 64.2539062,6.3046875 65.1328125,2.84765625 C64.5195312,1.82421875 63.9023438,1.12890625 63.28125,0.76171875 Z" id="路径"></path>
                    <path d="M73.4648438,5.47265625 L77.0507812,5.47265625 L77.0507812,0.17578125 L78.0117188,0.17578125 L78.0117188,2.14453125 L83.3789062,2.14453125 L83.3789062,3.01171875 L78.0117188,3.01171875 L78.0117188,5.47265625 L82.2070312,5.47265625 L82.2070312,11.6132812 L81.2695312,11.6132812 L81.2695312,10.8867188 L74.4023438,10.8867188 L74.4023438,11.6367188 L73.4648438,11.6367188 L73.4648438,5.47265625 Z M81.2695312,6.31640625 L74.4023438,6.31640625 L74.4023438,10.0546875 L81.2695312,10.0546875 L81.2695312,6.31640625 Z" id="形状"></path>
                    <path d="M89.8945312,0.0703125 L90.8671875,0.0703125 L90.8671875,5.02734375 C92.3867188,3.9296875 93.6367188,2.78125 94.6171875,1.58203125 L95.4492188,2.203125 C94.1835938,3.59765625 92.65625,4.92382812 90.8671875,6.18164062 L90.8671875,9.57421875 C90.8671875,10.0898438 91.09375,10.3476562 91.546875,10.3476562 L93.5507812,10.3476562 C94.0664062,10.3476562 94.3632812,10.1171875 94.4414062,9.65625 C94.5351562,9.0625 94.6054688,8.41015625 94.6523438,7.69921875 C94.9804688,7.82421875 95.3164062,7.9375 95.6601562,8.0390625 C95.5898438,8.765625 95.4960938,9.41796875 95.3789062,9.99609375 C95.2148438,10.8007812 94.6953125,11.203125 93.8203125,11.203125 L91.2421875,11.203125 C90.34375,11.203125 89.8945312,10.7148438 89.8945312,9.73828125 L89.8945312,0.0703125 Z M85.8398438,0.375 L85.8398438,3.890625 L89.1445312,3.890625 L89.1445312,4.76953125 L85.8398438,4.76953125 L85.8398438,9.75 C86.6523438,9.40625 87.7148438,8.921875 89.0273438,8.296875 C89.0273438,8.6640625 89.0429688,9.015625 89.0742188,9.3515625 C87.9257812,9.8125 86.953125,10.2460938 86.15625,10.6523438 C85.8125,10.8320312 85.4960938,11.046875 85.2070312,11.296875 L84.4921875,10.3828125 C84.7421875,10.1953125 84.8671875,9.91015625 84.8671875,9.52734375 L84.8671875,0.375 L85.8398438,0.375 Z" id="形状"></path>
                </g>
                <rect id="矩形" x="9.8359375" y="39.0605469" width="336" height="1"></rect>
            </g>
        </g>
    </g>
</svg>
