<?xml version="1.0" encoding="UTF-8"?>
<svg width="44px" height="79px" viewBox="0 0 44 79" version="1.1" xmlns="http://www.w3.org/2000/svg" xmlns:xlink="http://www.w3.org/1999/xlink">
    <defs>
        <path d="M11.7773438,9.46875 C11.5039062,9.8203125 11.2734375,10.1523438 11.0859375,10.4648438 C9.03515625,9.6953125 7.44140625,8.45117188 6.3046875,6.73242188 L6.3046875,11.5546875 L5.390625,11.5546875 L5.390625,6.75 C4.24609375,8.34375 2.671875,9.64453125 0.66796875,10.6523438 C0.48828125,10.3867188 0.265625,10.09375 0,9.7734375 C1.99609375,8.921875 3.54492188,7.81640625 4.64648438,6.45703125 L0.15234375,6.45703125 L0.15234375,5.56640625 L5.390625,5.56640625 L5.390625,4.53515625 L6.3046875,4.53515625 L6.3046875,5.56640625 L11.53125,5.56640625 L11.53125,6.45703125 L7.03125,6.45703125 C8.12890625,7.91796875 9.7109375,8.921875 11.7773438,9.46875 Z M1.0078125,1.53515625 C0.9609375,1.22265625 0.90625,0.92578125 0.84375,0.64453125 C5.140625,0.59765625 8.43359375,0.49609375 10.7226562,0.33984375 L10.8632812,1.23046875 C8.27734375,1.35546875 4.9921875,1.45703125 1.0078125,1.53515625 Z M7.6875,4.25390625 C8.3828125,3.48046875 9.1328125,2.57421875 9.9375,1.53515625 L10.7578125,2.14453125 C9.984375,3.04296875 9.18359375,3.94921875 8.35546875,4.86328125 L7.6875,4.25390625 Z M4.65234375,2.09765625 L5.42578125,1.640625 C6.12890625,2.6171875 6.63671875,3.3515625 6.94921875,3.84375 L6.09375,4.3359375 C5.7265625,3.6953125 5.24609375,2.94921875 4.65234375,2.09765625 Z M1.1484375,2.56640625 L1.83984375,2.0625 C2.41796875,2.734375 3,3.4375 3.5859375,4.171875 L2.7890625,4.734375 C2.21875,3.9296875 1.671875,3.20703125 1.1484375,2.56640625 Z" id="path-1"></path>
        <path d="M16.6992188,5.15625 C16.6992188,8.0078125 16.1796875,10.140625 15.140625,11.5546875 C14.953125,11.3125 14.7304688,11.0742188 14.4726562,10.8398438 C15.3945312,9.61328125 15.8554688,7.76171875 15.8554688,5.28515625 L15.8554688,0.59765625 L23.1210938,0.59765625 L23.1210938,3.65625 L22.2773438,3.65625 L22.2773438,3.328125 L16.6992188,3.328125 L16.6992188,5.15625 Z M17.8828125,10.1601562 L19.734375,10.1601562 L19.734375,7.125 L17.53125,7.125 L17.53125,4.44140625 L18.3515625,4.44140625 L18.3515625,6.375 L19.734375,6.375 L19.734375,3.78515625 L20.5546875,3.78515625 L20.5546875,6.375 L21.9375,6.375 L21.9375,4.44140625 L22.7578125,4.44140625 L22.7578125,7.55859375 L21.9375,7.55859375 L21.9375,7.125 L20.5546875,7.125 L20.5546875,10.1601562 L22.40625,10.1601562 L22.40625,7.98046875 L23.2265625,7.98046875 L23.2265625,11.4960938 L22.40625,11.4960938 L22.40625,10.9101562 L17.0625,10.9101562 L17.0625,7.98046875 L17.8828125,7.98046875 L17.8828125,10.1601562 Z M11.9882812,6.2578125 C12.4648438,6.0703125 12.9648438,5.859375 13.4882812,5.625 L13.4882812,2.9765625 L12.09375,2.9765625 L12.09375,2.15625 L13.4882812,2.15625 L13.4882812,0 L14.3320312,0 L14.3320312,2.15625 L15.4570312,2.15625 L15.4570312,2.9765625 L14.3320312,2.9765625 L14.3320312,5.23828125 C14.6601562,5.08203125 14.9960938,4.91796875 15.3398438,4.74609375 C15.3632812,5.09765625 15.3945312,5.41015625 15.4335938,5.68359375 C15.0742188,5.84765625 14.7070312,6.01953125 14.3320312,6.19921875 L14.3320312,9.92578125 C14.3320312,10.7539062 13.96875,11.1757812 13.2421875,11.1914062 C12.96875,11.1992188 12.6484375,11.1992188 12.28125,11.1914062 C12.25,10.9101562 12.203125,10.6171875 12.140625,10.3125 C12.5078125,10.3515625 12.8125,10.3710938 13.0546875,10.3710938 C13.34375,10.3710938 13.4882812,10.2109375 13.4882812,9.890625 L13.4882812,6.609375 C13.0664062,6.8125 12.6367188,7.02734375 12.1992188,7.25390625 L11.9882812,6.2578125 Z M22.2773438,1.32421875 L16.6992188,1.32421875 L16.6992188,2.6015625 L22.2773438,2.6015625 L22.2773438,1.32421875 Z" id="path-2"></path>
        <path d="M8.70703125,0.1640625 L9.66796875,0.1640625 L9.66796875,2.7421875 L11.34375,2.7421875 L11.34375,3.5859375 L9.66796875,3.5859375 L9.66796875,6.8203125 L11.7539062,6.8203125 L11.7539062,7.6640625 L3.234375,7.6640625 L3.234375,6.8203125 L5.21484375,6.8203125 L5.21484375,3.5859375 L3.703125,3.5859375 L3.703125,2.7421875 L5.21484375,2.7421875 L5.21484375,0.17578125 L6.17578125,0.17578125 L6.17578125,2.7421875 L8.70703125,2.7421875 L8.70703125,0.1640625 Z M0,5.6953125 C1.2265625,4.046875 2.19140625,2.16796875 2.89453125,0.05859375 L3.83203125,0.3984375 C3.4296875,1.44140625 3.01171875,2.3984375 2.578125,3.26953125 L2.578125,11.6015625 L1.640625,11.6015625 L1.640625,4.97460938 C1.23828125,5.63085938 0.82421875,6.22265625 0.3984375,6.75 C0.2890625,6.4296875 0.15625,6.078125 0,5.6953125 Z M6.17578125,6.8203125 L8.70703125,6.8203125 L8.70703125,3.5859375 L6.17578125,3.5859375 L6.17578125,6.8203125 Z M8.14453125,8.58984375 L8.8359375,8.00390625 C10.0703125,9.14453125 11.0351562,10.0976562 11.7304688,10.8632812 L10.9570312,11.578125 C10.1601562,10.6328125 9.22265625,9.63671875 8.14453125,8.58984375 Z M6.75,8.61328125 C5.828125,9.73828125 4.8671875,10.7421875 3.8671875,11.625 C3.65625,11.3828125 3.41796875,11.15625 3.15234375,10.9453125 C4.14453125,10.1953125 5.07421875,9.23046875 5.94140625,8.05078125 L6.75,8.61328125 Z" id="path-3"></path>
        <path d="M16.5585938,4.34765625 L17.0625,3.6796875 C17.421875,3.8984375 17.7792969,4.11914062 18.1347656,4.34179688 C18.2558594,3.81445312 18.3203125,3.23828125 18.328125,2.61328125 L16.8867188,2.61328125 L16.8867188,1.76953125 L18.3457031,1.76953125 C18.3613281,1.12109375 18.3671875,0.53125 18.3632812,0 L19.265625,0 C19.265625,0.5078125 19.2578125,1.09765625 19.2421875,1.76953125 L21.9609375,1.76953125 C21.890625,4.08203125 21.9414062,5.6484375 22.1132812,6.46875 C22.2148438,6.9296875 22.3632812,7.16015625 22.5585938,7.16015625 C22.7148438,7.16015625 22.8164062,7.02734375 22.8632812,6.76171875 C22.9335938,6.37890625 22.9960938,5.85546875 23.0507812,5.19140625 C23.3476562,5.30078125 23.6367188,5.39453125 23.9179688,5.47265625 C23.8398438,6.16796875 23.7578125,6.71875 23.671875,7.125 C23.5078125,7.84375 23.1445312,8.203125 22.5820312,8.203125 C21.9101562,8.203125 21.4570312,7.66015625 21.2226562,6.57421875 C21.0820312,5.84765625 21.0234375,4.52734375 21.046875,2.61328125 L19.2246094,2.61328125 C19.2128906,3.4296875 19.1191406,4.17773438 18.9433594,4.85742188 C19.4941406,5.21289062 20.0351562,5.57421875 20.5664062,5.94140625 L19.9804688,6.7734375 C19.5195312,6.41796875 19.0742188,6.08398438 18.6445312,5.77148438 C18.15625,6.93945312 17.3710938,7.84765625 16.2890625,8.49609375 C16.09375,8.25390625 15.8671875,8 15.609375,7.734375 C16.6757812,7.171875 17.4277344,6.33398438 17.8652344,5.22070312 C17.4121094,4.90429688 16.9765625,4.61328125 16.5585938,4.34765625 Z M12.28125,4.86328125 C12.890625,4.70703125 13.4921875,4.54492188 14.0859375,4.37695312 L14.0859375,2.58984375 L12.421875,2.58984375 L12.421875,1.78125 L14.0859375,1.78125 L14.0859375,0.046875 L14.9765625,0.046875 L14.9765625,1.78125 L16.359375,1.78125 L16.359375,2.58984375 L14.9765625,2.58984375 L14.9765625,4.11914062 C15.40625,3.98632812 15.8320312,3.8515625 16.2539062,3.71484375 C16.2539062,4.07421875 16.2617188,4.37109375 16.2773438,4.60546875 C16.234375,4.62109375 15.8007812,4.7578125 14.9765625,5.015625 L14.9765625,6.73828125 C14.9765625,7.68359375 14.5351562,8.15625 13.6523438,8.15625 C13.3164062,8.15625 12.953125,8.1484375 12.5625,8.1328125 C12.53125,7.8671875 12.484375,7.546875 12.421875,7.171875 C12.8046875,7.234375 13.1523438,7.265625 13.4648438,7.265625 C13.8789062,7.265625 14.0859375,7.0546875 14.0859375,6.6328125 L14.0859375,5.29101562 C13.6171875,5.43945312 13.0742188,5.609375 12.4570312,5.80078125 L12.28125,4.86328125 Z M21.4101562,8.8359375 L22.1601562,8.390625 C22.6679688,9.140625 23.171875,9.93359375 23.671875,10.7695312 L22.8398438,11.2617188 C22.4257812,10.4882812 21.9492188,9.6796875 21.4101562,8.8359375 Z M13.640625,8.66015625 L14.4609375,9.01171875 C14.109375,9.81640625 13.6796875,10.6484375 13.171875,11.5078125 C12.9375,11.375 12.6679688,11.2382812 12.3632812,11.0976562 C12.9023438,10.2539062 13.328125,9.44140625 13.640625,8.66015625 Z M15.5507812,9.12890625 L16.3242188,8.7890625 C16.6835938,9.4453125 17.0546875,10.171875 17.4375,10.96875 L16.5703125,11.34375 C16.234375,10.5390625 15.8945312,9.80078125 15.5507812,9.12890625 Z M18.5273438,9.0703125 L19.3007812,8.73046875 C19.6992188,9.42578125 20.0742188,10.140625 20.4257812,10.875 L19.5703125,11.2382812 C19.2734375,10.5039062 18.9257812,9.78125 18.5273438,9.0703125 Z" id="path-4"></path>
        <path d="M5.7421875,0.4453125 L6.4921875,0 C6.8359375,0.4453125 7.14453125,0.87109375 7.41796875,1.27734375 L6.97265625,1.546875 L11.2617188,1.546875 L11.2617188,2.2734375 L7.1015625,2.2734375 L7.1015625,3.1171875 L10.8984375,3.1171875 L10.8984375,3.84375 L7.1015625,3.84375 L7.1015625,4.6875 L10.8984375,4.6875 L10.8984375,5.4140625 L7.1015625,5.4140625 L7.1015625,6.28125 L11.4960938,6.28125 L11.4960938,7.0078125 L2.40234375,7.0078125 L2.40234375,7.46484375 L1.53515625,7.46484375 L1.53515625,3.4921875 C1.21484375,3.8671875 0.88671875,4.22265625 0.55078125,4.55859375 C0.39453125,4.31640625 0.2109375,4.0703125 0,3.8203125 C1.1640625,2.734375 2.078125,1.48828125 2.7421875,0.08203125 L3.5859375,0.38671875 C3.3671875,0.79296875 3.14453125,1.1796875 2.91796875,1.546875 L6.48046875,1.546875 C6.26171875,1.1875 6.015625,0.8203125 5.7421875,0.4453125 Z M1.55859375,7.921875 L10.4179688,7.921875 L10.4179688,11.6953125 L9.55078125,11.6953125 L9.55078125,11.0976562 L2.42578125,11.0976562 L2.42578125,11.6953125 L1.55859375,11.6953125 L1.55859375,7.921875 Z M9.55078125,8.671875 L2.42578125,8.671875 L2.42578125,10.3476562 L9.55078125,10.3476562 L9.55078125,8.671875 Z M2.40234375,6.28125 L6.234375,6.28125 L6.234375,5.4140625 L2.40234375,5.4140625 L2.40234375,6.28125 Z M2.40234375,4.6875 L6.234375,4.6875 L6.234375,3.84375 L2.40234375,3.84375 L2.40234375,4.6875 Z M2.40234375,3.1171875 L6.234375,3.1171875 L6.234375,2.2734375 L2.44921875,2.2734375 L2.40234375,2.34375 L2.40234375,3.1171875 Z" id="path-5"></path>
        <path d="M23.8476562,10.2890625 C23.5429688,10.6640625 23.328125,10.9375 23.203125,11.109375 C21.953125,10.4140625 20.953125,9.48828125 20.203125,8.33203125 L20.203125,11.6953125 L19.359375,11.6953125 L19.359375,8.37890625 C18.4453125,9.59765625 17.34375,10.5898438 16.0546875,11.3554688 C15.8671875,11.1367188 15.6484375,10.8984375 15.3984375,10.640625 C16.8125,9.9296875 17.9375,9.06640625 18.7734375,8.05078125 L15.9492188,8.05078125 L15.9492188,7.27734375 L19.359375,7.27734375 L19.359375,6.05859375 L17.953125,6.05859375 L17.953125,6.43359375 L17.109375,6.43359375 L17.109375,2.34375 L15.9140625,2.34375 L15.9140625,1.5703125 L17.109375,1.5703125 L17.109375,0.22265625 L17.953125,0.22265625 L17.953125,1.5703125 L21.6210938,1.5703125 L21.6210938,0.24609375 L22.4648438,0.24609375 L22.4648438,1.5703125 L23.671875,1.5703125 L23.671875,2.34375 L22.4648438,2.34375 L22.4648438,6.43359375 L21.6210938,6.43359375 L21.6210938,6.05859375 L20.203125,6.05859375 L20.203125,7.27734375 L23.7539062,7.27734375 L23.7539062,8.05078125 L20.7070312,8.05078125 C21.5195312,9.03515625 22.5664062,9.78125 23.8476562,10.2890625 Z M13.7460938,0.24609375 L14.6015625,0.24609375 C14.6015625,2.74609375 14.5625,4.8203125 14.484375,6.46875 C15.1953125,7.5078125 15.8046875,8.44140625 16.3125,9.26953125 L15.5976562,9.76171875 C15.2382812,9.10546875 14.8203125,8.39453125 14.34375,7.62890625 C14.0703125,9.25390625 13.5273438,10.609375 12.7148438,11.6953125 C12.5507812,11.453125 12.3515625,11.1992188 12.1171875,10.9335938 C13.0625,9.62109375 13.5820312,7.890625 13.6757812,5.7421875 C13.7304688,4.53125 13.7539062,2.69921875 13.7460938,0.24609375 Z M17.953125,5.30859375 L21.6210938,5.30859375 L21.6210938,4.1953125 L17.953125,4.1953125 L17.953125,5.30859375 Z M17.953125,3.4453125 L21.6210938,3.4453125 L21.6210938,2.34375 L17.953125,2.34375 L17.953125,3.4453125 Z M12.0351562,2.6015625 L12.7734375,2.40234375 C13.0390625,3.33984375 13.25,4.18359375 13.40625,4.93359375 L12.5976562,5.15625 C12.4492188,4.203125 12.2617188,3.3515625 12.0351562,2.6015625 Z M16.3476562,2.6484375 C16.0898438,3.5390625 15.8359375,4.33203125 15.5859375,5.02734375 L14.8242188,4.734375 C15.1445312,3.9453125 15.3945312,3.16796875 15.5742188,2.40234375 L16.3476562,2.6484375 Z" id="path-6"></path>
        <path d="M9.5859375,0.0703125 L9.5859375,1.5234375 L11.3554688,1.5234375 L11.3554688,2.3671875 L9.5859375,2.3671875 L9.5859375,7.81640625 L11.6132812,7.81640625 L11.6132812,8.66015625 L0.05859375,8.66015625 L0.05859375,7.81640625 L2.0625,7.81640625 L2.0625,2.3671875 L0.29296875,2.3671875 L0.29296875,1.5234375 L2.0625,1.5234375 L2.0625,0.0703125 L2.96484375,0.0703125 L2.96484375,1.5234375 L8.68359375,1.5234375 L8.68359375,0.0703125 L9.5859375,0.0703125 Z M2.96484375,7.81640625 L8.68359375,7.81640625 L8.68359375,6.5390625 L2.96484375,6.5390625 L2.96484375,7.81640625 Z M2.96484375,5.71875 L8.68359375,5.71875 L8.68359375,4.453125 L2.96484375,4.453125 L2.96484375,5.71875 Z M2.96484375,3.6328125 L8.68359375,3.6328125 L8.68359375,2.3671875 L2.96484375,2.3671875 L2.96484375,3.6328125 Z M6.9375,9.6328125 L7.453125,8.8359375 C9.34375,9.59375 10.7421875,10.1953125 11.6484375,10.640625 L11.15625,11.5546875 C9.8203125,10.859375 8.4140625,10.21875 6.9375,9.6328125 Z M4.078125,8.84765625 L4.640625,9.6328125 C3.15625,10.453125 1.76953125,11.1132812 0.48046875,11.6132812 C0.37890625,11.3632812 0.21875,11.0703125 0,10.734375 C1.6328125,10.140625 2.9921875,9.51171875 4.078125,8.84765625 Z" id="path-7"></path>
        <path d="M19.0429688,0.1171875 L19.9570312,0.1171875 L19.9570312,3.02929688 L23.0039062,2.33203125 C22.9492188,4.06640625 22.90625,5.265625 22.875,5.9296875 C22.8359375,6.625 22.7226562,7.08203125 22.5351562,7.30078125 C22.3242188,7.56640625 21.9492188,7.69921875 21.4101562,7.69921875 C21.1679688,7.69921875 20.859375,7.69140625 20.484375,7.67578125 C20.4375,7.37890625 20.3789062,7.05859375 20.3085938,6.71484375 C20.6445312,6.75390625 20.9804688,6.78125 21.3164062,6.796875 C21.7382812,6.8203125 21.9570312,6.515625 21.9726562,5.8828125 C22.0117188,5.2265625 22.0390625,4.40625 22.0546875,3.421875 L19.9570312,3.90820312 L19.9570312,9.10546875 L19.0429688,9.10546875 L19.0429688,4.125 L17.0742188,4.58203125 L17.0742188,9.31640625 C17.0742188,9.97265625 17.3984375,10.3007812 18.046875,10.3007812 L21.3046875,10.3007812 C22.015625,10.3007812 22.421875,10.0390625 22.5234375,9.515625 C22.625,9.015625 22.7109375,8.41015625 22.78125,7.69921875 C23.109375,7.82421875 23.4335938,7.93359375 23.7539062,8.02734375 C23.6523438,8.76953125 23.5390625,9.39453125 23.4140625,9.90234375 C23.21875,10.7617188 22.5664062,11.1914062 21.4570312,11.1914062 L17.859375,11.1914062 C16.7265625,11.1914062 16.1601562,10.6289062 16.1601562,9.50390625 L16.1601562,4.79296875 L15.1054688,5.0390625 L14.953125,4.171875 L16.1601562,3.89648438 L16.1601562,1.48828125 L17.0742188,1.48828125 L17.0742188,3.69140625 L19.0429688,3.24023437 L19.0429688,0.1171875 Z M11.9179688,5.54296875 C13.1289062,3.91015625 14.046875,2.0625 14.671875,0 L15.6210938,0.31640625 C15.2382812,1.3828125 14.8242188,2.3671875 14.3789062,3.26953125 L14.3789062,11.5078125 L13.4882812,11.5078125 L13.4882812,4.88671875 C13.109375,5.5 12.7109375,6.06640625 12.2929688,6.5859375 C12.1757812,6.25 12.0507812,5.90234375 11.9179688,5.54296875 Z" id="path-8"></path>
    </defs>
    <g id="ESG数据库" stroke="none" stroke-width="1" fill="none" fill-rule="evenodd">
        <g id="05-查看指标缺失-切图专用" transform="translate(-415.000000, -659.000000)" fill-rule="nonzero">
            <g id="line" transform="translate(127.305803, 613.806164)">
                <g id="编组" transform="translate(288.186201, 45.512195)">
                    <path d="M0,5.68164062 C0,7.89077962 1.790861,9.68164062 4,9.68164062 C6.209139,9.68164062 8,7.89077962 8,5.68164062 C8,3.47250163 6.209139,1.68164062 4,1.68164062 C1.790861,1.68164062 0,3.47250163 0,5.68164062" id="路径" fill="#BFDB93"></path>
                    <g id="采掘" transform="translate(19.152344, 0.000000)">
                        <g id="形状">
                            <use fill="#75787A" xlink:href="#path-1"></use>
                            <use fill="#8C8C8C" xlink:href="#path-1"></use>
                        </g>
                        <g id="形状">
                            <use fill="#75787A" xlink:href="#path-2"></use>
                            <use fill="#8C8C8C" xlink:href="#path-2"></use>
                        </g>
                    </g>
                    <path d="M0,27.9316406 C0,30.1407796 1.790861,31.9316406 4,31.9316406 C6.209139,31.9316406 8,30.1407796 8,27.9316406 C8,25.7225016 6.209139,23.9316406 4,23.9316406 C1.790861,23.9316406 0,25.7225016 0,27.9316406" id="路径" fill="#D4E5B8"></path>
                    <g id="供热" transform="translate(19.046875, 22.156250)">
                        <g id="形状">
                            <use fill="#75787A" xlink:href="#path-3"></use>
                            <use fill="#8C8C8C" xlink:href="#path-3"></use>
                        </g>
                        <g id="形状">
                            <use fill="#75787A" xlink:href="#path-4"></use>
                            <use fill="#8C8C8C" xlink:href="#path-4"></use>
                        </g>
                    </g>
                    <path d="M0,50.1816406 C0,52.3907796 1.790861,54.1816406 4,54.1816406 C6.209139,54.1816406 8,52.3907796 8,50.1816406 C8,47.9725016 6.209139,46.1816406 4,46.1816406 C1.790861,46.1816406 0,47.9725016 0,50.1816406" id="路径" fill="#FEF0BD"></path>
                    <g id="售煤" transform="translate(19.070312, 44.335938)">
                        <g id="形状">
                            <use fill="#75787A" xlink:href="#path-5"></use>
                            <use fill="#8C8C8C" xlink:href="#path-5"></use>
                        </g>
                        <g id="形状">
                            <use fill="#75787A" xlink:href="#path-6"></use>
                            <use fill="#8C8C8C" xlink:href="#path-6"></use>
                        </g>
                    </g>
                    <path d="M0,72.4316406 C0,74.6407796 1.790861,76.4316406 4,76.4316406 C6.209139,76.4316406 8,74.6407796 8,72.4316406 C8,70.2225016 6.209139,68.4316406 4,68.4316406 C1.790861,68.4316406 0,70.2225016 0,72.4316406" id="路径" fill="#F3BEBB"></path>
                    <g id="其他" transform="translate(19.175781, 66.703125)">
                        <g id="形状">
                            <use fill="#75787A" xlink:href="#path-7"></use>
                            <use fill="#8C8C8C" xlink:href="#path-7"></use>
                        </g>
                        <g id="形状">
                            <use fill="#75787A" xlink:href="#path-8"></use>
                            <use fill="#8C8C8C" xlink:href="#path-8"></use>
                        </g>
                    </g>
                </g>
            </g>
        </g>
    </g>
</svg>
