<?xml version="1.0" encoding="UTF-8"?>
<svg width="312px" height="60px" viewBox="0 0 312 60" version="1.1" xmlns="http://www.w3.org/2000/svg" xmlns:xlink="http://www.w3.org/1999/xlink">
    <g id="ESG数据库" stroke="none" stroke-width="1" fill="none" fill-rule="evenodd">
        <g id="05-查看指标缺失-切图专用" transform="translate(-1028.000000, -689.000000)" fill="#75787A">
            <g id="编组-3" transform="translate(1028.027344, 689.904297)">
                <g id="【B行业】的【A指标】基准估算结果-=∑" fill-rule="nonzero">
                    <path d="M5.22851562,0.12890625 C3.50585938,1.53125 2.64453125,3.41210938 2.64453125,5.77148438 C2.64453125,6.97460938 2.83984375,8.03417969 3.23046875,8.95019531 C3.62109375,9.86621094 4.28710938,10.7734375 5.22851562,11.671875 L0.86328125,11.671875 L0.86328125,0.12890625 L5.22851562,0.12890625 Z" id="路径"></path>
                    <path d="M7.02148438,10.0957031 L7.02148438,1.01953125 L10.2441406,1.01953125 C11.2324219,1.01953125 11.9941406,1.20703125 12.5292969,1.58203125 C13.0644531,1.95703125 13.3320312,2.4765625 13.3320312,3.140625 C13.3320312,3.6328125 13.1660156,4.06445312 12.8339844,4.43554688 C12.5019531,4.80664062 12.0839844,5.0625 11.5800781,5.203125 L11.5800781,5.2265625 C12.2128906,5.3046875 12.7236328,5.5390625 13.1123047,5.9296875 C13.5009766,6.3203125 13.6953125,6.81054688 13.6953125,7.40039062 C13.6953125,8.22460938 13.4023438,8.87988281 12.8164062,9.36621094 C12.2304688,9.85253906 11.4296875,10.0957031 10.4140625,10.0957031 L7.02148438,10.0957031 Z M8.95507812,2.4609375 L8.95507812,4.70507812 L9.875,4.70507812 C10.3164062,4.70507812 10.6640625,4.59960938 10.9179688,4.38867188 C11.171875,4.17773438 11.2988281,3.8828125 11.2988281,3.50390625 C11.2988281,2.80859375 10.7910156,2.4609375 9.77539062,2.4609375 L8.95507812,2.4609375 Z M8.95507812,6.1640625 L8.95507812,8.65429688 L10.1035156,8.65429688 C10.5917969,8.65429688 10.9736328,8.54101562 11.2490234,8.31445312 C11.5244141,8.08789062 11.6621094,7.7734375 11.6621094,7.37109375 C11.6621094,6.98828125 11.5253906,6.69140625 11.2519531,6.48046875 C10.9785156,6.26953125 10.5898438,6.1640625 10.0859375,6.1640625 L8.95507812,6.1640625 Z" id="形状"></path>
                    <path d="M17.2929688,0.0703125 C17.7929688,0.4140625 18.2617188,0.75 18.6992188,1.078125 C17.8789062,2.03125 16.7890625,3.05078125 15.4296875,4.13671875 C15.140625,3.69921875 14.7929688,3.23828125 14.3867188,2.75390625 C15.6992188,1.75390625 16.6679688,0.859375 17.2929688,0.0703125 Z M19.4023438,0.90234375 L25.4960938,0.90234375 L25.4960938,2.42578125 L19.4023438,2.42578125 L19.4023438,0.90234375 Z M17.4804688,3.1171875 L18.8515625,3.99609375 C18.5078125,4.5 18.1328125,4.99414062 17.7265625,5.47851562 L17.7265625,11.5546875 L16.0976562,11.5546875 L16.0976562,7.23632812 C15.7382812,7.58398438 15.3632812,7.92578125 14.9726562,8.26171875 C14.8164062,7.82421875 14.6015625,7.28125 14.328125,6.6328125 C15.53125,5.59375 16.5820312,4.421875 17.4804688,3.1171875 Z M19.015625,4.25390625 L26.0117188,4.25390625 L26.0117188,5.77734375 L24.1835938,5.77734375 L24.1835938,9.55078125 C24.1835938,10.1757812 24.0380859,10.6533203 23.7470703,10.9833984 C23.4560547,11.3134766 23.0439453,11.4960938 22.5107422,11.53125 C21.9775391,11.5664062 21.1875,11.5898438 20.140625,11.6015625 C20.03125,11.0859375 19.8867188,10.5390625 19.7070312,9.9609375 C20.5195312,10.015625 21.1601562,10.0429688 21.6289062,10.0429688 C22.1992188,10.0429688 22.484375,9.7421875 22.484375,9.140625 L22.484375,5.77734375 L19.015625,5.77734375 L19.015625,4.25390625 Z" id="形状"></path>
                    <path d="M29.7148438,0.31640625 L31.4257812,0.31640625 L31.4257812,9.52734375 L32.9257812,9.52734375 L32.9257812,0.31640625 L34.6132812,0.31640625 L34.6132812,6.65039062 C35.25,5.38476562 35.8710938,3.92578125 36.4765625,2.2734375 L37.9882812,2.91796875 C37.3945312,4.40234375 36.6835938,6.01171875 35.8554688,7.74609375 L34.6132812,7.16601562 L34.6132812,9.52734375 L37.9882812,9.52734375 L37.9882812,11.1328125 L26.4101562,11.1328125 L26.4101562,9.52734375 L29.7148438,9.52734375 L29.7148438,7.20703125 L28.4023438,7.76953125 C27.7617188,5.94921875 27.1210938,4.27734375 26.4804688,2.75390625 L27.8867188,2.109375 C28.5625,3.625 29.171875,5.0859375 29.7148438,6.4921875 L29.7148438,0.31640625 Z" id="路径"></path>
                    <path d="M38.9199219,0.12890625 L43.2851562,0.12890625 L43.2851562,11.6601562 L38.9199219,11.6601562 C39.5488281,11.0664062 40.0712891,10.4296875 40.4873047,9.75 C40.9033203,9.0703125 41.1777344,8.421875 41.3105469,7.8046875 C41.4433594,7.1875 41.5097656,6.515625 41.5097656,5.7890625 C41.5097656,3.41796875 40.6464844,1.53125 38.9199219,0.12890625 Z" id="路径"></path>
                    <path d="M52.5195312,0.15234375 L54.265625,0.421875 L53.7382812,2.015625 L55.7304688,2.015625 L55.7304688,4.30078125 C56.359375,3.24609375 56.9609375,1.85546875 57.5351562,0.12890625 L59.1523438,0.55078125 C58.9804688,1.0703125 58.796875,1.578125 58.6015625,2.07421875 L61.625,2.07421875 L61.4902344,8.81835938 C61.4707031,9.54492188 61.4101562,10.0537109 61.3085938,10.3447266 C61.2070312,10.6357422 61.0488281,10.8730469 60.8339844,11.0566406 C60.6191406,11.2402344 60.3193359,11.3652344 59.9345703,11.4316406 C59.5498047,11.4980469 58.7109375,11.53125 57.4179688,11.53125 C57.3007812,10.84375 57.1523438,10.2539062 56.9726562,9.76171875 C57.5507812,9.80859375 58.1660156,9.83203125 58.8183594,9.83203125 C59.0058594,9.83203125 59.1679688,9.81054688 59.3046875,9.76757812 C59.4414062,9.72460938 59.5537109,9.65917969 59.6416016,9.57128906 C59.7294922,9.48339844 59.7890625,9.38476562 59.8203125,9.27539062 C59.8515625,9.16601562 59.8769531,8.68554688 59.8964844,7.83398438 L59.9492188,5.4375 C59.9648438,4.69140625 59.9726562,4.0859375 59.9726562,3.62109375 L57.9335938,3.62109375 C57.6757812,4.16796875 57.4023438,4.69921875 57.1132812,5.21484375 C56.7421875,4.97265625 56.28125,4.73242188 55.7304688,4.49414062 L55.7304688,11.4726562 L54.1015625,11.4726562 L54.1015625,10.6289062 L52.4375,10.6289062 L52.4375,11.5429688 L50.8085938,11.5429688 L50.8085938,2.015625 L52.0449219,2.015625 C52.2714844,1.25 52.4296875,0.62890625 52.5195312,0.15234375 Z M54.1015625,3.55078125 L52.4375,3.55078125 L52.4375,5.5546875 L54.1015625,5.5546875 L54.1015625,3.55078125 Z M52.4375,9.09375 L54.1015625,9.09375 L54.1015625,7.08984375 L52.4375,7.08984375 L52.4375,9.09375 Z M57.5703125,5.02734375 C58.1328125,5.69921875 58.7382812,6.515625 59.3867188,7.4765625 L57.9101562,8.4609375 C57.3164062,7.484375 56.75,6.65234375 56.2109375,5.96484375 L57.5703125,5.02734375 Z" id="形状"></path>
                    <path d="M73.4316406,0.12890625 C71.7089844,1.53125 70.8476562,3.41210938 70.8476562,5.77148438 C70.8476562,6.97460938 71.0429688,8.03417969 71.4335938,8.95019531 C71.8242188,9.86621094 72.4902344,10.7734375 73.4316406,11.671875 L69.0664062,11.671875 L69.0664062,0.12890625 L73.4316406,0.12890625 Z" id="路径"></path>
                    <path d="M83.0996094,10.0957031 L80.9902344,10.0957031 L80.3105469,8.015625 L77.0117188,8.015625 L76.34375,10.0957031 L74.2460938,10.0957031 L77.5683594,1.01953125 L79.8417969,1.01953125 L83.0996094,10.0957031 Z M79.8535156,6.52148438 L78.8222656,3.375 C78.7558594,3.17578125 78.7089844,2.91210938 78.6816406,2.58398438 L78.6289062,2.58398438 C78.6054688,2.84960938 78.5527344,3.10546875 78.4707031,3.3515625 L77.4335938,6.52148438 L79.8535156,6.52148438 Z" id="形状"></path>
                    <path d="M83.3984375,2.0390625 L84.6992188,2.0390625 L84.6992188,0.12890625 L86.1875,0.12890625 L86.1875,2.0390625 L87.3125,2.0390625 L87.3125,3.4921875 L86.1875,3.4921875 L86.1875,5.31445312 L87.3242188,5.00390625 C87.3164062,5.62109375 87.3203125,6.14453125 87.3359375,6.57421875 C87.1992188,6.609375 86.8164062,6.72070313 86.1875,6.90820312 L86.1875,10.1484375 C86.1875,10.5820312 86.1025391,10.9140625 85.9326172,11.1445312 C85.7626953,11.375 85.5185547,11.5078125 85.2001953,11.5429688 C84.8818359,11.578125 84.4101562,11.6015625 83.7851562,11.6132812 C83.7070312,11.1445312 83.609375,10.6367188 83.4921875,10.0898438 C83.96875,10.1015625 84.2890625,10.0986328 84.453125,10.0810547 C84.6171875,10.0634766 84.6992188,9.92578125 84.6992188,9.66796875 L84.6992188,7.35351563 L83.4921875,7.7109375 L83.3632812,5.98828125 C83.796875,5.8984375 84.2421875,5.79882812 84.6992188,5.68945312 L84.6992188,3.4921875 L83.3984375,3.4921875 L83.3984375,2.0390625 Z M93.5234375,2.07421875 C93.9921875,2.32421875 94.4765625,2.5234375 94.9765625,2.671875 C94.78125,3.7265625 94.5195312,4.3515625 94.1914062,4.546875 C93.8632812,4.7421875 93.4609375,4.83984375 92.984375,4.83984375 L89.3984375,4.83984375 C88.2578125,4.83984375 87.6875,4.25 87.6875,3.0703125 L87.6875,0.17578125 L89.2460938,0.17578125 L89.2460938,1.41796875 C90.953125,1.19140625 92.6367188,0.8515625 94.296875,0.3984375 L94.8359375,1.79296875 C93.1601562,2.1640625 91.296875,2.46875 89.2460938,2.70703125 L89.2460938,2.8125 C89.2460938,3.2578125 89.5078125,3.48046875 90.03125,3.48046875 L92.6210938,3.48046875 C93.0078125,3.48046875 93.2441406,3.36523438 93.3300781,3.13476563 C93.4160156,2.90429688 93.4804688,2.55078125 93.5234375,2.07421875 Z M87.8164062,11.6601562 L87.8164062,5.54296875 L94.4960938,5.54296875 L94.4960938,11.6367188 L92.9492188,11.6367188 L92.9492188,11.0507812 L89.3632812,11.0507812 L89.3632812,11.6601562 L87.8164062,11.6601562 Z M92.9492188,6.87890625 L89.3632812,6.87890625 L89.3632812,7.65234375 L92.9492188,7.65234375 L92.9492188,6.87890625 Z M89.3632812,9.71484375 L92.9492188,9.71484375 L92.9492188,8.94140625 L89.3632812,8.94140625 L89.3632812,9.71484375 Z" id="形状"></path>
                    <path d="M95.328125,6.90234375 C95.9296875,5.859375 96.375,4.8046875 96.6640625,3.73828125 L95.4101562,3.73828125 L95.4101562,2.203125 L96.7578125,2.203125 L96.7578125,0.15234375 L98.1992188,0.15234375 L98.1992188,2.203125 L99.3242188,2.203125 L99.3242188,3.73828125 L98.1992188,3.73828125 L98.1992188,5.09179688 C98.703125,5.37304688 99.1835938,5.6484375 99.640625,5.91796875 L98.9140625,7.2421875 C98.75,7.1015625 98.5117188,6.92578125 98.1992188,6.71484375 L98.1992188,11.671875 L96.7578125,11.671875 L96.7578125,6.84375 C96.4609375,7.609375 96.109375,8.34375 95.703125,9.046875 C95.5703125,8.234375 95.4453125,7.51953125 95.328125,6.90234375 Z M99.828125,0.76171875 L106.449219,0.76171875 L106.449219,2.28515625 L99.828125,2.28515625 L99.828125,0.76171875 Z M99.359375,3.69140625 L106.894531,3.69140625 L106.894531,5.21484375 L103.941406,5.21484375 L103.941406,10.2304688 C103.941406,10.6484375 103.826172,10.9697266 103.595703,11.1943359 C103.365234,11.4189453 103.03418,11.5449219 102.602539,11.5722656 C102.170898,11.5996094 101.582031,11.6132812 100.835938,11.6132812 C100.726562,10.9804688 100.621094,10.4375 100.519531,9.984375 C100.933594,10.0234375 101.304688,10.0429688 101.632812,10.0429688 C102.085938,10.0429688 102.3125,9.83203125 102.3125,9.41015625 L102.3125,5.21484375 L99.359375,5.21484375 L99.359375,3.69140625 Z M100.296875,5.953125 L101.691406,6.3515625 C101.214844,7.8671875 100.726562,9.17578125 100.226562,10.2773438 C99.734375,10.0273438 99.2734375,9.83984375 98.84375,9.71484375 C99.359375,8.66015625 99.84375,7.40625 100.296875,5.953125 Z M105.652344,6.046875 C106.144531,7.2265625 106.617188,8.46484375 107.070312,9.76171875 L105.628906,10.3125 C105.175781,8.9296875 104.71875,7.67578125 104.257812,6.55078125 L105.652344,6.046875 Z" id="形状"></path>
                    <path d="M107.943359,0.12890625 L112.308594,0.12890625 L112.308594,11.6601562 L107.943359,11.6601562 C108.572266,11.0664062 109.094727,10.4296875 109.510742,9.75 C109.926758,9.0703125 110.201172,8.421875 110.333984,7.8046875 C110.466797,7.1875 110.533203,6.515625 110.533203,5.7890625 C110.533203,3.41796875 109.669922,1.53125 107.943359,0.12890625 Z" id="路径"></path>
                    <path d="M131.046875,8.49609375 C130.726562,8.95703125 130.4375,9.390625 130.179688,9.796875 C129.570312,9.4609375 128.988281,9.06640625 128.433594,8.61328125 L128.433594,9.375 L126.007812,9.375 L126.007812,10.0898438 L130.214844,10.0898438 L130.214844,11.3203125 L120.183594,11.3203125 L120.183594,10.0898438 L124.402344,10.0898438 L124.402344,9.375 L121.917969,9.375 L121.917969,8.66015625 C121.375,9.08984375 120.808594,9.46875 120.21875,9.796875 C119.992188,9.4375 119.699219,9.0078125 119.339844,8.5078125 C120.316406,8.140625 121.142578,7.6796875 121.818359,7.125 L119.492188,7.125 L119.492188,5.89453125 L121.53125,5.89453125 L121.53125,2.33203125 L119.832031,2.33203125 L119.832031,1.1015625 L121.53125,1.1015625 L121.53125,0.08203125 L123.136719,0.08203125 L123.136719,1.1015625 L127.285156,1.1015625 L127.285156,0.08203125 L128.878906,0.08203125 L128.878906,1.1015625 L130.578125,1.1015625 L130.578125,2.33203125 L128.878906,2.33203125 L128.878906,5.89453125 L130.90625,5.89453125 L130.90625,7.125 L128.597656,7.125 C129.425781,7.7421875 130.242188,8.19921875 131.046875,8.49609375 Z M123.136719,2.91796875 L127.285156,2.91796875 L127.285156,2.33203125 L123.136719,2.33203125 L123.136719,2.91796875 Z M123.136719,4.41796875 L127.285156,4.41796875 L127.285156,3.83203125 L123.136719,3.83203125 L123.136719,4.41796875 Z M123.136719,5.89453125 L127.285156,5.89453125 L127.285156,5.30859375 L123.136719,5.30859375 L123.136719,5.89453125 Z M124.402344,7.34765625 L126.007812,7.34765625 L126.007812,8.16796875 L127.912109,8.16796875 C127.552734,7.84765625 127.205078,7.5 126.869141,7.125 L123.546875,7.125 C123.210938,7.5 122.861328,7.84765625 122.498047,8.16796875 L124.402344,8.16796875 L124.402344,7.34765625 Z" id="形状"></path>
                    <path d="M136.0625,0.10546875 L137.585938,0.50390625 C137.390625,1.0546875 137.177734,1.5859375 136.947266,2.09765625 L139.355469,2.09765625 C139.042969,1.703125 138.6875,1.28125 138.289062,0.83203125 L139.460938,0 C139.976562,0.5234375 140.457031,1.05078125 140.902344,1.58203125 L140.158203,2.09765625 L142.789062,2.09765625 L142.789062,3.36328125 L140.398438,3.36328125 L140.398438,4.62890625 L142.695312,4.62890625 L142.695312,5.8359375 L140.398438,5.8359375 L140.398438,7.1015625 L142.695312,7.1015625 L142.695312,8.30859375 L140.398438,8.30859375 L140.398438,9.59765625 L142.917969,9.59765625 L142.917969,10.8398438 L136.753906,10.8398438 L136.753906,11.6835938 L135.160156,11.6835938 L135.160156,5.24414062 C134.945312,5.54101562 134.722656,5.83203125 134.492188,6.1171875 C134.234375,5.515625 133.984375,4.9921875 133.742188,4.546875 C134.78125,3.296875 135.554688,1.81640625 136.0625,0.10546875 Z M136.753906,4.62890625 L138.804688,4.62890625 L138.804688,3.36328125 L136.753906,3.36328125 L136.753906,4.62890625 Z M136.753906,7.1015625 L138.804688,7.1015625 L138.804688,5.8359375 L136.753906,5.8359375 L136.753906,7.1015625 Z M136.753906,9.59765625 L138.804688,9.59765625 L138.804688,8.30859375 L136.753906,8.30859375 L136.753906,9.59765625 Z M132.570312,0.6796875 C133.15625,1.4296875 133.761719,2.25 134.386719,3.140625 L132.992188,4.08984375 C132.453125,3.21484375 131.878906,2.359375 131.269531,1.5234375 L132.570312,0.6796875 Z M132.933594,5.4609375 C133.457031,5.75 133.964844,6.0078125 134.457031,6.234375 L132.746094,11.2382812 C132.316406,10.9179688 131.828125,10.6054688 131.28125,10.3007812 C131.820312,8.95703125 132.371094,7.34375 132.933594,5.4609375 Z" id="形状"></path>
                    <path d="M145.695312,0.17578125 L147.253906,0.66796875 C147.007812,1.40625 146.75,2.11132812 146.480469,2.78320312 L146.480469,11.5898438 L144.851562,11.5898438 L144.851562,6.22265625 C144.539062,6.77734375 144.214844,7.30078125 143.878906,7.79296875 C143.753906,7.20703125 143.585938,6.48828125 143.375,5.63671875 C144.210938,4.26171875 144.984375,2.44140625 145.695312,0.17578125 Z M154.917969,3.84375 L151.847656,3.84375 L151.847656,5.68359375 L154.320312,5.68359375 L154.320312,11.53125 L152.679688,11.53125 L152.679688,10.8984375 L149.363281,10.8984375 L149.363281,11.5546875 L147.722656,11.5546875 L147.722656,5.68359375 L150.113281,5.68359375 L150.113281,3.84375 L147.195312,3.84375 L147.195312,2.33203125 L150.113281,2.33203125 L150.113281,0.22265625 L151.847656,0.22265625 L151.847656,2.33203125 L154.917969,2.33203125 L154.917969,3.84375 Z M152.679688,7.1953125 L149.363281,7.1953125 L149.363281,9.38671875 L152.679688,9.38671875 L152.679688,7.1953125 Z" id="形状"></path>
                    <path d="M155.386719,8.7890625 L158.152344,8.7890625 C158.1875,8.60546875 158.210938,8.4140625 158.222656,8.21484375 L156.523438,8.21484375 L156.523438,3.16992187 C156.355469,3.31054687 156.183594,3.4453125 156.007812,3.57421875 C155.875,3.16796875 155.652344,2.69921875 155.339844,2.16796875 C156.121094,1.66015625 156.773438,0.96484375 157.296875,0.08203125 L158.960938,0.08203125 C158.8125,0.35546875 158.658203,0.6171875 158.498047,0.8671875 L161.035156,0.8671875 L161.035156,1.88085938 C161.597656,1.37304688 162.027344,0.76953125 162.324219,0.0703125 L163.859375,0.0703125 C163.761719,0.34765625 163.65625,0.61328125 163.542969,0.8671875 L166.847656,0.8671875 L166.847656,1.9453125 L165.207031,1.9453125 L165.535156,2.6484375 L164.082031,2.94140625 L165.921875,2.94140625 L165.921875,8.21484375 L164.398438,8.21484375 L164.398438,8.7890625 L167.011719,8.7890625 L167.011719,9.9140625 L164.398438,9.9140625 L164.398438,11.6132812 L162.851562,11.6132812 L162.851562,9.9140625 L159.476562,9.9140625 C159.1875,10.703125 158.628906,11.3242188 157.800781,11.7773438 C157.308594,11.4257812 156.804688,11.1054688 156.289062,10.8164062 C156.851562,10.5976562 157.294922,10.296875 157.619141,9.9140625 L155.386719,9.9140625 L155.386719,8.7890625 Z M160.027344,2.6484375 L158.574219,2.94140625 L161.796875,2.94140625 C161.402344,2.6953125 160.988281,2.46875 160.554688,2.26171875 C160.695312,2.16015625 160.828125,2.0546875 160.953125,1.9453125 L159.705078,1.9453125 C159.818359,2.18359375 159.925781,2.41796875 160.027344,2.6484375 Z M162.125,2.94140625 L164.017578,2.94140625 C163.892578,2.578125 163.755859,2.24609375 163.607422,1.9453125 L162.945312,1.9453125 C162.699219,2.30859375 162.425781,2.640625 162.125,2.94140625 Z M156.775391,2.94140625 L158.509766,2.94140625 C158.431641,2.671875 158.310547,2.33984375 158.146484,1.9453125 L157.71875,1.9453125 C157.421875,2.3046875 157.107422,2.63671875 156.775391,2.94140625 Z M164.386719,3.90234375 L158.058594,3.90234375 L158.058594,4.48828125 L164.386719,4.48828125 L164.386719,3.90234375 Z M158.058594,5.87109375 L164.386719,5.87109375 L164.386719,5.28515625 L158.058594,5.28515625 L158.058594,5.87109375 Z M164.386719,7.25390625 L164.386719,6.66796875 L158.058594,6.66796875 L158.058594,7.25390625 L164.386719,7.25390625 Z M159.710938,8.7890625 L162.851562,8.7890625 L162.851562,8.21484375 L159.751953,8.21484375 C159.748047,8.3984375 159.734375,8.58984375 159.710938,8.7890625 Z" id="形状"></path>
                    <path d="M171.957031,4.23046875 L174.417969,4.23046875 L174.417969,2.953125 L171.833984,2.953125 L172.226562,3.140625 C171.257812,4.6171875 170.425781,5.8203125 169.730469,6.75 C170.292969,6.6796875 170.894531,6.61328125 171.535156,6.55078125 C171.488281,7.08203125 171.457031,7.56640625 171.441406,8.00390625 C169.730469,8.19140625 168.566406,8.3671875 167.949219,8.53125 L167.492188,7.21875 C167.988281,6.78125 168.578125,6.0546875 169.261719,5.0390625 C168.675781,5.08203125 168.167969,5.1328125 167.738281,5.19140625 L167.304688,3.85546875 C167.921875,3.09765625 168.597656,1.82421875 169.332031,0.03515625 L170.878906,0.609375 C170.261719,1.765625 169.652344,2.8046875 169.050781,3.7265625 L170.128906,3.67382812 L170.832031,2.47265625 L171.605469,2.84179688 L171.605469,1.55859375 L174.417969,1.55859375 L174.417969,0.08203125 L176.058594,0.08203125 L176.058594,1.55859375 L178.988281,1.55859375 L178.988281,2.953125 L176.058594,2.953125 L176.058594,4.23046875 L178.636719,4.23046875 L178.636719,5.625 L171.957031,5.625 L171.957031,4.23046875 Z M172.0625,11.671875 L172.0625,6.6328125 L178.496094,6.6328125 L178.496094,11.671875 L176.925781,11.671875 L176.925781,10.9804688 L173.632812,10.9804688 L173.632812,11.671875 L172.0625,11.671875 Z M176.925781,8.0625 L173.632812,8.0625 L173.632812,9.55078125 L176.925781,9.55078125 L176.925781,8.0625 Z M167.632812,11.0625 L167.375,9.421875 C168.726562,9.25 170.171875,9.046875 171.710938,8.8125 C171.664062,9.46875 171.644531,10.0117188 171.652344,10.4414062 C170.261719,10.6367188 168.921875,10.84375 167.632812,11.0625 Z" id="形状"></path>
                    <path d="M179.621094,6.80859375 L184.425781,6.80859375 L184.425781,6.01171875 L180.675781,6.01171875 L180.675781,0.55078125 L189.769531,0.55078125 L189.769531,6.01171875 L186.019531,6.01171875 L186.019531,6.80859375 L190.789062,6.80859375 L190.789062,8.26171875 L187.068359,8.26171875 C188.318359,9.04296875 189.65625,9.54296875 191.082031,9.76171875 C190.785156,10.3476562 190.558594,10.8710938 190.402344,11.3320312 C188.578125,10.7851562 187.117188,9.95898438 186.019531,8.85351562 L186.019531,11.671875 L184.425781,11.671875 L184.425781,8.94140625 C183.429688,9.92578125 182.050781,10.7421875 180.289062,11.390625 C180.046875,10.921875 179.777344,10.4335938 179.480469,9.92578125 C181.144531,9.55859375 182.46875,9.00390625 183.453125,8.26171875 L179.621094,8.26171875 L179.621094,6.80859375 Z M188.199219,1.81640625 L186.019531,1.81640625 L186.019531,2.6484375 L188.199219,2.6484375 L188.199219,1.81640625 Z M182.246094,2.6484375 L184.425781,2.6484375 L184.425781,1.81640625 L182.246094,1.81640625 L182.246094,2.6484375 Z M188.199219,4.74609375 L188.199219,3.9140625 L186.019531,3.9140625 L186.019531,4.74609375 L188.199219,4.74609375 Z M182.246094,4.74609375 L184.425781,4.74609375 L184.425781,3.9140625 L182.246094,3.9140625 L182.246094,4.74609375 Z" id="形状"></path>
                    <path d="M5.97070312,25.4140625 L0,25.4140625 L0,24.5292969 L5.97070312,24.5292969 L5.97070312,25.4140625 Z M5.97070312,28.1210938 L0,28.1210938 L0,27.2363281 L5.97070312,27.2363281 L5.97070312,28.1210938 Z" id="形状"></path>
                    <polygon id="路径" points="15.1230469 33.0664062 7.74609375 33.0664062 7.74609375 32.4980469 11.9765625 26.984375 7.97460938 21.6582031 7.97460938 21.0195312 14.8769531 21.0195312 14.8769531 22.0742188 9.6796875 22.0742188 13.3652344 26.9550781 9.48046875 32.0175781 15.1230469 32.0175781"></polygon>
                    <path d="M16.1425781,30.2890625 L17.7246094,30.2890625 L17.7246094,25.7421875 L18.6972656,25.7421875 L18.6972656,30.2890625 L21.1230469,30.2890625 L21.1230469,23.7382812 L22.0957031,23.7382812 L22.0957031,26.328125 L25.6699219,26.328125 L25.6699219,27.1835938 L22.0957031,27.1835938 L22.0957031,30.2890625 L26.7832031,30.2890625 L26.7832031,31.15625 L16.1425781,31.15625 L16.1425781,30.2890625 Z M22.3417969,20.234375 L22.1074219,20.5507812 C23.3261719,22.1601562 25.0566406,23.4101562 27.2988281,24.3007812 C27.1269531,24.5507812 26.9121094,24.8867188 26.6542969,25.3085938 C24.5214844,24.2382812 22.8027344,22.8945312 21.4980469,21.2773438 C20.2714844,22.8632812 18.5019531,24.3007812 16.1894531,25.5898438 C15.9863281,25.2929688 15.7597656,24.9726562 15.5097656,24.6289062 C17.8925781,23.5429688 19.7480469,22.078125 21.0761719,20.234375 L22.3417969,20.234375 Z" id="形状"></path>
                    <path d="M27.6738281,30.0078125 L31.4355469,30.0078125 L31.4355469,20.328125 L32.4199219,20.328125 L32.4199219,30.0078125 L34.4707031,30.0078125 L34.4707031,20.328125 L35.4550781,20.328125 L35.4550781,30.0078125 L39.2519531,30.0078125 L39.2519531,30.875 L27.6738281,30.875 L27.6738281,30.0078125 Z M29.0332031,22.625 C29.6738281,24.1328125 30.2949219,25.734375 30.8964844,27.4296875 L29.9355469,27.8632812 C29.4121094,26.2148438 28.8261719,24.59375 28.1777344,23 L29.0332031,22.625 Z M35.8769531,27.5351562 C36.6582031,25.8789062 37.3144531,24.2773438 37.8457031,22.7304688 L38.7949219,23.1054688 C38.0683594,24.9726562 37.3769531,26.578125 36.7207031,27.921875 L35.8769531,27.5351562 Z" id="形状"></path>
                    <path d="M40.6464844,20.9960938 C41.9433594,20.9726562 43.2988281,20.8125 44.7128906,20.515625 L45.0175781,21.3945312 C43.8613281,21.5664062 42.6855469,21.6953125 41.4902344,21.78125 L41.4902344,23.5976562 L44.5605469,23.5976562 L44.5605469,27.921875 L43.7402344,27.921875 L43.7402344,27.40625 L41.4433594,27.40625 C41.3144531,29.1953125 40.9042969,30.6132812 40.2128906,31.6601562 C40.0019531,31.4023438 39.7871094,31.1640625 39.5683594,30.9453125 C40.2871094,29.9609375 40.6464844,28.34375 40.6464844,26.09375 L40.6464844,20.9960938 Z M45.6855469,21.0664062 C47.5449219,20.9960938 49.2363281,20.8242188 50.7597656,20.5507812 L51.0761719,21.4414062 C49.1230469,21.6601562 47.6152344,21.8007812 46.5527344,21.8632812 L46.5527344,24.4765625 L51.2988281,24.4765625 L51.2988281,25.2851562 L49.4824219,25.2851562 L49.4824219,31.6132812 L48.6035156,31.6132812 L48.6035156,25.2851562 L46.5527344,25.2851562 L46.5527344,25.9414062 C46.5527344,28.4023438 45.8691406,30.3359375 44.5019531,31.7421875 C44.2753906,31.4765625 44.0527344,31.21875 43.8339844,30.96875 C45.0683594,29.703125 45.6855469,28.0195312 45.6855469,25.9179688 L45.6855469,21.0664062 Z M43.7402344,26.6328125 L43.7402344,24.3710938 L41.4902344,24.3710938 C41.4902344,25.5351562 41.4882812,26.2890625 41.484375,26.6328125 L43.7402344,26.6328125 Z" id="形状"></path>
                    <path d="M54.6503906,20.3515625 C54.4863281,21.109375 54.3027344,21.8359375 54.0996094,22.53125 L57.2285156,22.53125 L57.2285156,23.3867188 C57.0097656,25.4023438 56.4277344,27.15625 55.4824219,28.6484375 C56.1933594,29.453125 57.0566406,29.9453125 58.0722656,30.125 C59.2675781,30.3359375 61.0097656,30.390625 63.2988281,30.2890625 C63.1660156,30.59375 63.0527344,30.9179688 62.9589844,31.2617188 C60.8183594,31.3398438 59.1542969,31.2617188 57.9667969,31.0273438 C56.7714844,30.8242188 55.7675781,30.2890625 54.9550781,29.421875 C54.2753906,30.3125 53.4511719,31.1015625 52.4824219,31.7890625 C52.2246094,31.546875 51.9667969,31.3164062 51.7089844,31.0976562 C52.7636719,30.3867188 53.6386719,29.5742188 54.3339844,28.6601562 C53.7714844,27.8242188 53.3261719,26.78125 52.9980469,25.53125 C52.7558594,26.0703125 52.4980469,26.5859375 52.2246094,27.078125 C52.0605469,26.859375 51.8339844,26.5898438 51.5449219,26.2695312 C52.5058594,24.5585938 53.2167969,22.5351562 53.6777344,20.1992188 L54.6503906,20.3515625 Z M58.6699219,20.2460938 L59.6425781,20.2460938 L59.6425781,24.171875 L60.1582031,23.5742188 C61.2675781,24.3242188 62.2675781,25.0625 63.1582031,25.7890625 L62.5253906,26.5976562 C61.6972656,25.8710938 60.7363281,25.1132812 59.6425781,24.3242188 L59.6425781,29.8203125 L58.6699219,29.8203125 L58.6699219,20.2460938 Z M56.2792969,23.421875 L53.8183594,23.421875 C53.7246094,23.703125 53.6308594,23.9765625 53.5371094,24.2421875 C53.8574219,25.71875 54.3066406,26.921875 54.8847656,27.8515625 C55.6738281,26.5546875 56.1386719,25.078125 56.2792969,23.421875 Z" id="形状"></path>
                    <path d="M67.8808594,24.5117188 L75.2988281,24.5117188 L75.2988281,25.390625 L73.0253906,25.390625 L73.0253906,29.9726562 C73.0253906,30.9414062 72.5371094,31.4257812 71.5605469,31.4257812 C70.9042969,31.4257812 70.2363281,31.421875 69.5566406,31.4140625 C69.5097656,31.1015625 69.4511719,30.75 69.3808594,30.359375 C69.9902344,30.421875 70.6035156,30.453125 71.2207031,30.453125 C71.7597656,30.453125 72.0292969,30.1875 72.0292969,29.65625 L72.0292969,25.390625 L67.8808594,25.390625 L67.8808594,24.5117188 Z M63.6386719,27.1367188 C64.8496094,26.1445312 65.9511719,24.75 66.9433594,22.953125 L67.7636719,23.4570312 C67.3613281,24.1523438 66.9355469,24.8027344 66.4863281,25.4082031 L66.4863281,31.6132812 L65.5136719,31.6132812 L65.5136719,26.6152344 C65.0449219,27.1464844 64.5566406,27.6367188 64.0488281,28.0859375 C63.9238281,27.7578125 63.7871094,27.4414062 63.6386719,27.1367188 Z M68.5605469,20.9726562 L74.6425781,20.9726562 L74.6425781,21.8515625 L68.5605469,21.8515625 L68.5605469,20.9726562 Z M63.6972656,23.421875 C64.9394531,22.4609375 65.9394531,21.34375 66.6972656,20.0703125 L67.5410156,20.5859375 C66.6347656,21.9765625 65.5097656,23.2226562 64.1660156,24.3242188 C64.0253906,24.0273438 63.8691406,23.7265625 63.6972656,23.421875 Z" id="形状"></path>
                    <path d="M75.6738281,30.0078125 L79.4355469,30.0078125 L79.4355469,20.328125 L80.4199219,20.328125 L80.4199219,30.0078125 L82.4707031,30.0078125 L82.4707031,20.328125 L83.4550781,20.328125 L83.4550781,30.0078125 L87.2519531,30.0078125 L87.2519531,30.875 L75.6738281,30.875 L75.6738281,30.0078125 Z M77.0332031,22.625 C77.6738281,24.1328125 78.2949219,25.734375 78.8964844,27.4296875 L77.9355469,27.8632812 C77.4121094,26.2148438 76.8261719,24.59375 76.1777344,23 L77.0332031,22.625 Z M83.8769531,27.5351562 C84.6582031,25.8789062 85.3144531,24.2773438 85.8457031,22.7304688 L86.7949219,23.1054688 C86.0683594,24.9726562 85.3769531,26.578125 84.7207031,27.921875 L83.8769531,27.5351562 Z" id="形状"></path>
                    <path d="M89.7128906,30.453125 L88.7988281,30.453125 L88.7988281,24.3945312 L92.9824219,24.3945312 L92.9824219,22.7773438 L87.8027344,22.7773438 L87.8027344,21.8867188 L93.2695312,21.8867188 C93.0273438,21.3984375 92.7441406,20.90625 92.4199219,20.4101562 L93.3222656,19.9882812 C93.6582031,20.4804688 93.9667969,20.984375 94.2480469,21.5 L93.4746094,21.8867188 L99.1464844,21.8867188 L99.1464844,22.7773438 L93.9199219,22.7773438 L93.9199219,24.3945312 L98.1738281,24.3945312 L98.1738281,28.7773438 C98.1738281,29.7617188 97.7089844,30.2539062 96.7792969,30.2539062 C96.3496094,30.2539062 95.7910156,30.2460938 95.1035156,30.2304688 C95.0644531,29.9726562 95.0097656,29.6601562 94.9394531,29.2929688 C95.5878906,29.3320312 96.1074219,29.3515625 96.4980469,29.3515625 C97.0058594,29.3515625 97.2597656,29.09375 97.2597656,28.578125 L97.2597656,25.2617188 L93.9199219,25.2617188 L93.9199219,31.671875 L92.9824219,31.671875 L92.9824219,25.2617188 L89.7128906,25.2617188 L89.7128906,30.453125 Z" id="路径"></path>
                    <path d="M108.451172,21.6757812 L103.880859,21.6757812 L103.880859,20.8320312 L110.115234,20.8320312 L110.115234,21.6875 L105.498047,24.6054688 L110.818359,24.6054688 C110.724609,26.7695312 110.634766,28.4414062 110.548828,29.6210938 C110.447266,30.8164062 109.896484,31.4140625 108.896484,31.4140625 C108.552734,31.4140625 108.025391,31.4023438 107.314453,31.3789062 C107.259766,30.9882812 107.193359,30.6484375 107.115234,30.359375 C107.654297,30.4453125 108.201172,30.4882812 108.755859,30.4882812 C109.310547,30.4882812 109.615234,30.15625 109.669922,29.4921875 C109.748047,28.515625 109.826172,27.1679688 109.904297,25.4492188 L108.650391,25.4492188 C108.302734,28.078125 107.087891,30.1601562 105.005859,31.6953125 C104.787109,31.421875 104.568359,31.1835938 104.349609,30.9804688 C106.287109,29.640625 107.429688,27.796875 107.777344,25.4492188 L106.277344,25.4492188 C105.828125,27.40625 104.716797,29.0195312 102.943359,30.2890625 C102.755859,30.0625 102.552734,29.8359375 102.333984,29.609375 C103.951172,28.5039062 104.974609,27.1171875 105.404297,25.4492188 L104.009766,25.4492188 L104.009766,24.5585938 L108.451172,21.6757812 Z M99.6269531,28.7773438 C100.193359,28.546875 100.763672,28.3066406 101.337891,28.0566406 L101.337891,24.0078125 L99.7675781,24.0078125 L99.7675781,23.1640625 L101.337891,23.1640625 L101.337891,20.234375 L102.205078,20.234375 L102.205078,23.1640625 L103.634766,23.1640625 L103.634766,24.0078125 L102.205078,24.0078125 L102.205078,27.6699219 C102.642578,27.4707031 103.083984,27.265625 103.529297,27.0546875 C103.544922,27.3828125 103.580078,27.6757812 103.634766,27.9335938 C102.494141,28.4492188 101.279297,29.03125 99.9902344,29.6796875 L99.6269531,28.7773438 Z" id="形状"></path>
                    <path d="M115.705078,25.1210938 L121.564453,25.1210938 C121.556641,25.2304688 121.498047,26.6601562 121.388672,29.4101562 C121.357422,30.7539062 120.744141,31.4335938 119.548828,31.4492188 C118.908203,31.4492188 118.349609,31.4375 117.873047,31.4140625 C117.833984,31.0546875 117.775391,30.7304688 117.697266,30.4414062 C118.236328,30.5117188 118.779297,30.5546875 119.326172,30.5703125 C120.083984,30.625 120.466797,30.203125 120.474609,29.3046875 C120.537109,28.2578125 120.583984,27.1367188 120.615234,25.9414062 L117.978516,25.9414062 C117.955078,27.1835938 117.767578,28.2109375 117.416016,29.0234375 C116.994141,29.953125 116.267578,30.8242188 115.236328,31.6367188 C115.033203,31.3867188 114.806641,31.1328125 114.556641,30.875 C115.548828,30.1015625 116.208984,29.359375 116.537109,28.6484375 C116.857422,28.0195312 117.035156,27.1171875 117.070312,25.9414062 L115.705078,25.9414062 L115.705078,25.1210938 Z M111.591797,25.6835938 C112.708984,24.2070312 113.615234,22.375 114.310547,20.1875 L115.224609,20.5039062 C114.845703,21.5429688 114.431641,22.515625 113.982422,23.421875 L113.982422,31.6132812 L113.091797,31.6132812 L113.091797,25.0507812 C112.732422,25.6445312 112.357422,26.203125 111.966797,26.7265625 C111.849609,26.390625 111.724609,26.0429688 111.591797,25.6835938 Z M118.962891,20.5039062 L119.736328,20.1757812 C120.509766,22.1601562 121.701172,23.609375 123.310547,24.5234375 C123.013672,24.8671875 122.791016,25.1523438 122.642578,25.3789062 C120.900391,24.1835938 119.673828,22.5585938 118.962891,20.5039062 Z M114.427734,24.9570312 C115.646484,23.8867188 116.630859,22.453125 117.380859,20.65625 L118.212891,20.9726562 C117.486328,22.7929688 116.458984,24.3359375 115.130859,25.6015625 C114.849609,25.3125 114.615234,25.0976562 114.427734,24.9570312 Z" id="形状"></path>
                    <path d="M125.068359,25.4375 L125.501953,24.78125 C125.962891,25.0078125 126.400391,25.2226562 126.814453,25.4257812 C127.220703,25.0273438 127.564453,24.5820312 127.845703,24.0898438 L125.560547,24.0898438 C125.146484,24.7695312 124.705078,25.3671875 124.236328,25.8828125 C124.064453,25.6953125 123.880859,25.5078125 123.685547,25.3203125 C124.427734,24.5390625 125.037109,23.5859375 125.513672,22.4609375 L126.287109,22.71875 C126.177734,22.953125 126.064453,23.1757812 125.947266,23.3867188 L128.783203,23.3867188 L128.783203,24.0546875 C128.462891,24.703125 128.056641,25.2851562 127.564453,25.8007812 C128.244141,26.1445312 128.869141,26.4648438 129.439453,26.7617188 L128.958984,27.5234375 C128.294922,27.140625 127.615234,26.7617188 126.919922,26.3867188 C126.333984,26.8632812 125.654297,27.2734375 124.880859,27.6171875 L128.619141,27.6171875 L128.619141,31.3789062 L127.845703,31.3789062 L127.845703,30.875 L125.443359,30.875 L125.443359,31.4726562 L124.669922,31.4726562 L124.669922,27.7109375 C124.435547,27.8046875 124.197266,27.8945312 123.955078,27.9804688 C123.853516,27.7695312 123.724609,27.53125 123.568359,27.265625 C124.576172,26.9453125 125.439453,26.5195312 126.158203,25.9882812 C125.798828,25.8085938 125.435547,25.625 125.068359,25.4375 Z M129.767578,23.1054688 L131.478516,23.1054688 L131.748047,21.6289062 L129.533203,21.6289062 L129.533203,20.8320312 L135.134766,20.8320312 L135.134766,21.6289062 L132.650391,21.6289062 L132.333984,23.1054688 L134.771484,23.1054688 L134.771484,28.9882812 L133.951172,28.9882812 L133.951172,23.9023438 L130.587891,23.9023438 L130.587891,28.9882812 L129.767578,28.9882812 L129.767578,23.1054688 Z M131.853516,24.6289062 L132.697266,24.6289062 C132.712891,26.6210938 132.623047,28 132.427734,28.765625 C133.552734,29.5546875 134.533203,30.28125 135.369141,30.9453125 L134.783203,31.6953125 C134.025391,31.0078125 133.134766,30.2929688 132.111328,29.5507812 C131.626953,30.4335938 130.720703,31.1875 129.392578,31.8125 C129.236328,31.5859375 129.048828,31.3359375 128.830078,31.0625 C130.267578,30.421875 131.158203,29.6523438 131.501953,28.7539062 C131.783203,28.1289062 131.900391,26.7539062 131.853516,24.6289062 Z M123.919922,21.4882812 L126.333984,21.4882812 C126.177734,21.1367188 125.994141,20.7734375 125.783203,20.3984375 L126.544922,20.0703125 C126.833984,20.609375 127.072266,21.0820312 127.259766,21.4882812 L129.333984,21.4882812 L129.333984,23.140625 L128.537109,23.140625 L128.537109,22.1914062 L124.716797,22.1914062 L124.716797,23.140625 L123.919922,23.140625 L123.919922,21.4882812 Z M127.845703,28.34375 L125.443359,28.34375 L125.443359,30.1484375 L127.845703,30.1484375 L127.845703,28.34375 Z" id="形状"></path>
                    <polygon id="路径" points="146.601562 28.5195312 145.716797 29.3984375 143.578125 27.2421875 141.427734 29.3984375 140.542969 28.5078125 142.699219 26.3808594 140.542969 24.2304688 141.410156 23.3457031 143.578125 25.5019531 145.740234 23.3457031 146.589844 24.2597656 144.451172 26.3808594"></polygon>
                    <path d="M152.378906,30.2890625 L153.960938,30.2890625 L153.960938,25.7421875 L154.933594,25.7421875 L154.933594,30.2890625 L157.359375,30.2890625 L157.359375,23.7382812 L158.332031,23.7382812 L158.332031,26.328125 L161.90625,26.328125 L161.90625,27.1835938 L158.332031,27.1835938 L158.332031,30.2890625 L163.019531,30.2890625 L163.019531,31.15625 L152.378906,31.15625 L152.378906,30.2890625 Z M158.578125,20.234375 L158.34375,20.5507812 C159.5625,22.1601562 161.292969,23.4101562 163.535156,24.3007812 C163.363281,24.5507812 163.148438,24.8867188 162.890625,25.3085938 C160.757812,24.2382812 159.039062,22.8945312 157.734375,21.2773438 C156.507812,22.8632812 154.738281,24.3007812 152.425781,25.5898438 C152.222656,25.2929688 151.996094,24.9726562 151.746094,24.6289062 C154.128906,23.5429688 155.984375,22.078125 157.3125,20.234375 L158.578125,20.234375 Z" id="形状"></path>
                    <path d="M163.910156,30.0078125 L167.671875,30.0078125 L167.671875,20.328125 L168.65625,20.328125 L168.65625,30.0078125 L170.707031,30.0078125 L170.707031,20.328125 L171.691406,20.328125 L171.691406,30.0078125 L175.488281,30.0078125 L175.488281,30.875 L163.910156,30.875 L163.910156,30.0078125 Z M165.269531,22.625 C165.910156,24.1328125 166.53125,25.734375 167.132812,27.4296875 L166.171875,27.8632812 C165.648438,26.2148438 165.0625,24.59375 164.414062,23 L165.269531,22.625 Z M172.113281,27.5351562 C172.894531,25.8789062 173.550781,24.2773438 174.082031,22.7304688 L175.03125,23.1054688 C174.304688,24.9726562 173.613281,26.578125 172.957031,27.921875 L172.113281,27.5351562 Z" id="形状"></path>
                    <path d="M178.183594,30.3007812 L179.332031,30.3007812 L179.332031,26.4804688 L186.65625,26.4804688 L186.65625,30.3007812 L187.523438,30.3007812 L187.523438,31.1445312 L178.183594,31.1445312 L178.183594,30.3007812 Z M179.777344,20.7148438 L186.199219,20.7148438 L186.199219,25.8242188 L185.332031,25.8242188 L185.332031,25.3085938 L180.644531,25.3085938 L180.644531,25.8359375 L179.777344,25.8359375 L179.777344,20.7148438 Z M180.644531,24.5117188 L185.332031,24.5117188 L185.332031,23.3984375 L180.644531,23.3984375 L180.644531,24.5117188 Z M185.332031,21.5117188 L180.644531,21.5117188 L180.644531,22.625 L185.332031,22.625 L185.332031,21.5117188 Z M177.328125,26.703125 C177.648438,26.828125 177.96875,26.9453125 178.289062,27.0546875 C177.960938,28.4140625 177.601562,29.921875 177.210938,31.578125 L176.179688,31.2734375 C176.617188,29.8828125 177,28.359375 177.328125,26.703125 Z M185.765625,27.3007812 L184.488281,27.3007812 L184.488281,30.3007812 L185.765625,30.3007812 L185.765625,27.3007812 Z M182.355469,30.3007812 L183.621094,30.3007812 L183.621094,27.3007812 L182.355469,27.3007812 L182.355469,30.3007812 Z M180.222656,30.3007812 L181.488281,30.3007812 L181.488281,27.3007812 L180.222656,27.3007812 L180.222656,30.3007812 Z M176.4375,23.3046875 C177.023438,23.71875 177.710938,24.25 178.5,24.8984375 C178.210938,25.2265625 177.984375,25.4804688 177.820312,25.6601562 C176.9375,24.8710938 176.28125,24.3125 175.851562,23.984375 L176.4375,23.3046875 Z M176.882812,20.2695312 C177.476562,20.7382812 178.148438,21.3085938 178.898438,21.9804688 C178.632812,22.2539062 178.402344,22.4960938 178.207031,22.7070312 C177.363281,21.8867188 176.722656,21.2890625 176.285156,20.9140625 L176.882812,20.2695312 Z" id="形状"></path>
                    <path d="M187.933594,30.3710938 L193.21875,30.3710938 L193.21875,29 L189.011719,29 L189.011719,28.1914062 L193.21875,28.1914062 L193.21875,26.8378906 C192.394531,26.8730469 191.597656,26.9101562 190.828125,26.9492188 C190.4375,26.9726562 190.046875,27.0234375 189.65625,27.1015625 L189.257812,26.1289062 C189.554688,26.0117188 189.871094,25.84375 190.207031,25.625 C190.757812,25.2460938 191.263672,24.8632812 191.724609,24.4765625 L189.597656,24.4765625 L189.597656,23.6679688 L197.871094,23.6679688 L197.871094,24.4765625 L193.101562,24.4765625 C192.476562,24.984375 191.757812,25.5234375 190.945312,26.09375 C192.640625,26.0351562 194.332031,25.9726562 196.019531,25.90625 C195.769531,25.6796875 195.507812,25.4492188 195.234375,25.2148438 L195.878906,24.6289062 C196.863281,25.4023438 197.71875,26.1289062 198.445312,26.8085938 L197.683594,27.5234375 C197.4375,27.2617188 197.173828,26.9921875 196.892578,26.7148438 C195.955078,26.7382812 195.046875,26.7675781 194.167969,26.8027344 L194.167969,28.1914062 L198.386719,28.1914062 L198.386719,29 L194.167969,29 L194.167969,30.3710938 L199.464844,30.3710938 L199.464844,31.1796875 L187.933594,31.1796875 L187.933594,30.3710938 Z M188.355469,21.6523438 L193.488281,21.6523438 C193.269531,21.2304688 193.023438,20.8125 192.75,20.3984375 L193.582031,20 C193.871094,20.4296875 194.152344,20.8867188 194.425781,21.3710938 L193.845703,21.6523438 L199.066406,21.6523438 L199.066406,23.7734375 L198.128906,23.7734375 L198.128906,22.4609375 L189.292969,22.4609375 L189.292969,23.7734375 L188.355469,23.7734375 L188.355469,21.6523438 Z" id="形状"></path>
                    <path d="M201.070312,26.046875 L201.070312,25.2265625 L209.390625,25.2265625 L209.390625,26.4570312 C209.390625,28.3320312 209.601562,29.65625 210.023438,30.4296875 C210.210938,30.71875 210.355469,30.6875 210.457031,30.3359375 C210.566406,29.78125 210.644531,29.09375 210.691406,28.2734375 C210.972656,28.375 211.253906,28.4570312 211.535156,28.5195312 C211.511719,29.1210938 211.429688,29.78125 211.289062,30.5 C211.109375,31.265625 210.746094,31.6484375 210.199219,31.6484375 C209.769531,31.6484375 209.429688,31.3945312 209.179688,30.8867188 C208.695312,29.9492188 208.453125,28.4882812 208.453125,26.5039062 L208.453125,26.046875 L201.070312,26.046875 Z M199.851562,24.7929688 C200.976562,23.3867188 201.816406,21.8085938 202.371094,20.0585938 L203.320312,20.3398438 C203.191406,20.7070312 203.056641,21.0625 202.916016,21.40625 L210.914062,21.40625 L210.914062,22.2265625 L202.552734,22.2265625 C201.912109,23.5898438 201.136719,24.8007812 200.226562,25.859375 C200.085938,25.4140625 199.960938,25.0585938 199.851562,24.7929688 Z M202.382812,23.328125 L210.023438,23.328125 L210.023438,24.125 L202.382812,24.125 L202.382812,23.328125 Z" id="形状"></path>
                    <path d="M223.59375,28.6367188 C223.328125,28.9570312 223.097656,29.2460938 222.902344,29.5039062 C221.339844,28.3007812 220.191406,26.265625 219.457031,23.3984375 L219.457031,28.34375 L221.179688,28.34375 L221.179688,29.1875 L219.457031,29.1875 L219.457031,31.6367188 L218.589844,31.6367188 L218.589844,29.1875 L216.867188,29.1875 L216.867188,28.34375 L218.589844,28.34375 L218.589844,23.3984375 L218.560547,23.3984375 C217.833984,26.0976562 216.636719,28.1953125 214.96875,29.6914062 C214.789062,29.4648438 214.582031,29.21875 214.347656,28.953125 C215.855469,27.5742188 216.984375,25.7226562 217.734375,23.3984375 L214.980469,23.3984375 L214.980469,22.5546875 L218.589844,22.5546875 L218.589844,20.1640625 L219.457031,20.1640625 L219.457031,22.5546875 L223.195312,22.5546875 L223.195312,23.3984375 L220.212891,23.3984375 C220.958984,25.828125 222.085938,27.5742188 223.59375,28.6367188 Z M211.792969,25.7890625 C212.925781,24.1328125 213.769531,22.2460938 214.324219,20.1289062 L215.214844,20.3867188 C214.910156,21.3828125 214.566406,22.3183594 214.183594,23.1933594 L214.183594,31.625 L213.316406,31.625 L213.316406,24.9570312 C212.964844,25.59375 212.589844,26.1914062 212.191406,26.75 C212.074219,26.4296875 211.941406,26.109375 211.792969,25.7890625 Z" id="形状"></path>
                    <path d="M231.890625,20.140625 L232.804688,20.140625 L232.804688,22.296875 L235.289062,22.296875 L235.289062,23.1875 L232.804688,23.1875 L232.804688,25.203125 L235.007812,25.203125 L235.007812,26.09375 L232.804688,26.09375 L232.804688,28.1328125 L235.488281,28.1328125 L235.488281,29.0234375 L232.804688,29.0234375 L232.804688,31.671875 L231.890625,31.671875 L231.890625,20.140625 Z M227.144531,28.1328125 L229.570312,28.1328125 L229.570312,26.09375 L227.71875,26.09375 L227.71875,25.203125 L229.570312,25.203125 L229.570312,23.1875 L227.742188,23.1875 L227.742188,22.296875 L229.570312,22.296875 L229.570312,20.140625 L230.484375,20.140625 L230.484375,31.671875 L229.570312,31.671875 L229.570312,29.0234375 L227.144531,29.0234375 L227.144531,28.1328125 Z M223.933594,22.2851562 L225.328125,22.2851562 L225.328125,20.1289062 L226.21875,20.1289062 L226.21875,22.2851562 L227.378906,22.2851562 L227.378906,23.1054688 L226.21875,23.1054688 L226.21875,25.2910156 C226.59375,25.0996094 226.960938,24.90625 227.320312,24.7109375 C227.34375,25.046875 227.375,25.359375 227.414062,25.6484375 C227.03125,25.84375 226.632812,26.0488281 226.21875,26.2636719 L226.21875,30.3476562 C226.21875,31.1445312 225.792969,31.546875 224.941406,31.5546875 C224.707031,31.5625 224.386719,31.5625 223.980469,31.5546875 C223.949219,31.2421875 223.898438,30.9179688 223.828125,30.5820312 C224.257812,30.6132812 224.59375,30.6289062 224.835938,30.6289062 C225.164062,30.6289062 225.328125,30.4492188 225.328125,30.0898438 L225.328125,26.7265625 C224.890625,26.953125 224.4375,27.1914062 223.96875,27.4414062 L223.851562,26.4101562 C224.355469,26.1875 224.847656,25.9609375 225.328125,25.7304688 L225.328125,23.1054688 L223.933594,23.1054688 L223.933594,22.2851562 Z" id="形状"></path>
                    <path d="M243.105469,20.046875 L244.042969,20.2109375 C243.875,20.9492188 243.65625,21.6640625 243.386719,22.3554688 L247.464844,22.3554688 L247.464844,23.2226562 L246.486328,23.2226562 C246.333984,25.5351562 245.787109,27.3730469 244.845703,28.7363281 C245.548828,29.6113281 246.457031,30.2851562 247.570312,30.7578125 C247.3125,31.1015625 247.097656,31.4101562 246.925781,31.6835938 C245.875,31.1171875 244.978516,30.3867188 244.236328,29.4921875 C243.470703,30.3398438 242.554688,31.1054688 241.488281,31.7890625 C241.308594,31.5625 241.085938,31.3164062 240.820312,31.0507812 C241.984375,30.34375 242.935547,29.5683594 243.673828,28.7246094 C242.990234,27.6074219 242.554688,26.1972656 242.367188,24.4941406 C242.136719,24.8925781 241.886719,25.28125 241.617188,25.6601562 C241.453125,25.4257812 241.257812,25.1757812 241.03125,24.9101562 C242.046875,23.5117188 242.738281,21.890625 243.105469,20.046875 Z M235.980469,22.25 L241.628906,22.25 L241.628906,23.1171875 L238.3125,23.1171875 C238.304688,23.8125 238.291016,24.4492188 238.271484,25.0273438 L240.960938,25.0273438 C240.882812,26.9492188 240.808594,28.4882812 240.738281,29.6445312 C240.667969,30.6757812 240.222656,31.2109375 239.402344,31.25 C238.925781,31.2578125 238.476562,31.2539062 238.054688,31.2382812 C238.007812,30.9492188 237.941406,30.6210938 237.855469,30.2539062 C238.371094,30.3085938 238.769531,30.3359375 239.050781,30.3359375 C239.527344,30.3359375 239.785156,30.0390625 239.824219,29.4453125 C239.902344,28.53125 239.964844,27.3476562 240.011719,25.8945312 L238.236328,25.8945312 C238.208984,28.4257812 237.589844,30.359375 236.378906,31.6953125 C236.199219,31.4296875 235.992188,31.15625 235.757812,30.875 C236.492188,30.046875 236.9375,29.1601562 237.09375,28.2148438 C237.292969,27.328125 237.390625,25.6289062 237.386719,23.1171875 L235.980469,23.1171875 L235.980469,22.25 Z M245.554688,23.2226562 L243.064453,23.2226562 C243.189453,25.1367188 243.595703,26.6992188 244.283203,27.9101562 C245.037109,26.703125 245.460938,25.140625 245.554688,23.2226562 Z M237.949219,20.4570312 L238.746094,20.0351562 C239.082031,20.5351562 239.402344,21.0742188 239.707031,21.6523438 L238.886719,22.0859375 C238.574219,21.484375 238.261719,20.9414062 237.949219,20.4570312 Z" id="形状"></path>
                    <polygon id="路径" points="258.837891 28.5195312 257.953125 29.3984375 255.814453 27.2421875 253.664062 29.3984375 252.779297 28.5078125 254.935547 26.3808594 252.779297 24.2304688 253.646484 23.3457031 255.814453 25.5019531 257.976562 23.3457031 258.826172 24.2597656 256.6875 26.3808594"></polygon>
                    <path d="M265.318359,24.828125 L270.861328,24.828125 C271.388672,24.0507812 271.861328,23.2773438 272.279297,22.5078125 L273.181641,23.0820312 C272.767578,23.6640625 272.333984,24.2460938 271.880859,24.828125 L275.349609,24.828125 L275.349609,25.6484375 L266.267578,25.6484375 L266.267578,26.46875 C266.267578,27.8515625 266.162109,28.8828125 265.951172,29.5625 C265.732422,30.3203125 265.318359,31.03125 264.708984,31.6953125 C264.505859,31.4453125 264.294922,31.1796875 264.076172,30.8984375 C264.537109,30.40625 264.861328,29.828125 265.048828,29.1640625 C265.228516,28.515625 265.318359,27.6171875 265.318359,26.46875 L265.318359,24.828125 Z M264.357422,21.4765625 L269.707031,21.4765625 C269.535156,21.15625 269.345703,20.828125 269.138672,20.4921875 L270.005859,20.0585938 C270.259766,20.4726562 270.519531,20.9453125 270.785156,21.4765625 L275.654297,21.4765625 L275.654297,22.3085938 L264.357422,22.3085938 L264.357422,21.4765625 Z M266.806641,22.9765625 L267.580078,22.4609375 C268.064453,23.0703125 268.494141,23.6484375 268.869141,24.1953125 L268.037109,24.7695312 C267.732422,24.2539062 267.322266,23.65625 266.806641,22.9765625 Z" id="形状"></path>
                    <path d="M277.880859,20.6328125 L285.966797,20.6328125 L285.966797,25.2734375 L285.029297,25.2734375 L285.029297,24.8984375 L278.818359,24.8984375 L278.818359,25.2734375 L277.880859,25.2734375 L277.880859,20.6328125 Z M282.650391,26.234375 L287.126953,26.234375 L287.126953,31.6484375 L286.236328,31.6484375 L286.236328,30.8515625 L283.541016,30.8515625 L283.541016,31.6484375 L282.650391,31.6484375 L282.650391,26.234375 Z M276.732422,26.234375 L281.197266,26.234375 L281.197266,31.6484375 L280.306641,31.6484375 L280.306641,30.8632812 L277.623047,30.8632812 L277.623047,31.6484375 L276.732422,31.6484375 L276.732422,26.234375 Z M285.029297,21.453125 L278.818359,21.453125 L278.818359,24.078125 L285.029297,24.078125 L285.029297,21.453125 Z M286.236328,27.0546875 L283.541016,27.0546875 L283.541016,30.0898438 L286.236328,30.0898438 L286.236328,27.0546875 Z M280.306641,27.0546875 L277.623047,27.0546875 L277.623047,30.0664062 L280.306641,30.0664062 L280.306641,27.0546875 Z" id="形状"></path>
                    <path d="M289.541016,28.109375 L298.306641,28.109375 L298.306641,31.6835938 L297.416016,31.6835938 L297.416016,31.0976562 L290.431641,31.0976562 L290.431641,31.6835938 L289.541016,31.6835938 L289.541016,28.109375 Z M290.384766,24.5 L297.462891,24.5 L297.462891,27.4296875 L296.572266,27.4296875 L296.572266,27.1601562 L291.275391,27.1601562 L291.275391,27.4296875 L290.384766,27.4296875 L290.384766,24.5 Z M295.306641,20.1054688 L296.162109,20.1054688 L296.162109,21.0664062 L299.677734,21.0664062 L299.677734,21.8398438 L296.162109,21.8398438 L296.162109,22.5429688 L295.306641,22.5429688 L295.306641,21.8398438 L292.529297,21.8398438 L292.529297,22.5429688 L291.673828,22.5429688 L291.673828,21.8398438 L288.205078,21.8398438 L288.205078,21.0664062 L291.673828,21.0664062 L291.673828,20.1054688 L292.529297,20.1054688 L292.529297,21.0664062 L295.306641,21.0664062 L295.306641,20.1054688 Z M288.556641,22.859375 L299.291016,22.859375 L299.291016,25.0039062 L298.400391,25.0039062 L298.400391,23.6328125 L289.447266,23.6328125 L289.447266,25.0039062 L288.556641,25.0039062 L288.556641,22.859375 Z M297.416016,28.8359375 L290.431641,28.8359375 L290.431641,30.3710938 L297.416016,30.3710938 L297.416016,28.8359375 Z M296.572266,25.2265625 L291.275391,25.2265625 L291.275391,26.4335938 L296.572266,26.4335938 L296.572266,25.2265625 Z" id="形状"></path>
                    <path d="M304.130859,25.109375 C305.130859,23.375 305.853516,21.6992188 306.298828,20.0820312 L307.248047,20.3515625 C306.998047,21.0742188 306.736328,21.765625 306.462891,22.4257812 L311.572266,22.4257812 L311.572266,23.2929688 L310.195312,23.2929688 C310.078125,25.5546875 309.498047,27.3964844 308.455078,28.8183594 C309.248047,29.5214844 310.373047,30.1328125 311.830078,30.6523438 C311.587891,30.9570312 311.365234,31.2695312 311.162109,31.5898438 C309.771484,30.9960938 308.662109,30.3105469 307.833984,29.5332031 C307.080078,30.2753906 306.037109,30.9960938 304.705078,31.6953125 C304.541016,31.4375 304.341797,31.1757812 304.107422,30.9101562 C305.439453,30.2421875 306.46875,29.5507812 307.195312,28.8359375 C306.292969,27.7070312 305.708984,26.3046875 305.443359,24.6289062 C305.224609,25.0546875 304.998047,25.4648438 304.763672,25.859375 C304.615234,25.6328125 304.404297,25.3828125 304.130859,25.109375 Z M303.076172,20.1757812 L303.966797,20.1757812 L303.966797,31.625 L303.076172,31.625 L303.076172,28.0097656 C302.599609,28.2753906 302.115234,28.5703125 301.623047,28.8945312 C301.419922,29.0429688 301.220703,29.21875 301.025391,29.421875 L300.357422,28.6367188 C300.599609,28.3789062 300.720703,28.0429688 300.720703,27.6289062 L300.720703,21.8164062 L301.611328,21.8164062 L301.611328,27.8164062 C302.076172,27.5703125 302.564453,27.3085938 303.076172,27.03125 L303.076172,20.1757812 Z M309.269531,23.2929688 L306.152344,23.2929688 C306.265625,25.1992188 306.816406,26.8046875 307.804688,28.109375 C308.695312,26.8554688 309.183594,25.25 309.269531,23.2929688 Z" id="形状"></path>
                </g>
                <g id="∑企业所处行业市场份额" transform="translate(95.281250, 45.988281)" fill-rule="nonzero">
                    <polygon id="路径" points="7.37695312 13.078125 0 13.078125 0 12.5097656 4.23046875 6.99609375 0.228515625 1.66992188 0.228515625 1.03125 7.13085938 1.03125 7.13085938 2.0859375 1.93359375 2.0859375 5.61914062 6.96679688 1.734375 12.0292969 7.37695312 12.0292969"></polygon>
                    <path d="M8.39648438,10.3007812 L9.97851562,10.3007812 L9.97851562,5.75390625 L10.9511719,5.75390625 L10.9511719,10.3007812 L13.3769531,10.3007812 L13.3769531,3.75 L14.3496094,3.75 L14.3496094,6.33984375 L17.9238281,6.33984375 L17.9238281,7.1953125 L14.3496094,7.1953125 L14.3496094,10.3007812 L19.0371094,10.3007812 L19.0371094,11.1679688 L8.39648438,11.1679688 L8.39648438,10.3007812 Z M14.5957031,0.24609375 L14.3613281,0.5625 C15.5800781,2.171875 17.3105469,3.421875 19.5527344,4.3125 C19.3808594,4.5625 19.1660156,4.8984375 18.9082031,5.3203125 C16.7753906,4.25 15.0566406,2.90625 13.7519531,1.2890625 C12.5253906,2.875 10.7558594,4.3125 8.44335938,5.6015625 C8.24023438,5.3046875 8.01367188,4.984375 7.76367188,4.640625 C10.1464844,3.5546875 12.0019531,2.08984375 13.3300781,0.24609375 L14.5957031,0.24609375 Z" id="形状"></path>
                    <path d="M19.9277344,10.0195312 L23.6894531,10.0195312 L23.6894531,0.33984375 L24.6738281,0.33984375 L24.6738281,10.0195312 L26.7246094,10.0195312 L26.7246094,0.33984375 L27.7089844,0.33984375 L27.7089844,10.0195312 L31.5058594,10.0195312 L31.5058594,10.8867188 L19.9277344,10.8867188 L19.9277344,10.0195312 Z M21.2871094,2.63671875 C21.9277344,4.14453125 22.5488281,5.74609375 23.1503906,7.44140625 L22.1894531,7.875 C21.6660156,6.2265625 21.0800781,4.60546875 20.4316406,3.01171875 L21.2871094,2.63671875 Z M28.1308594,7.546875 C28.9121094,5.890625 29.5683594,4.2890625 30.0996094,2.7421875 L31.0488281,3.1171875 C30.3222656,4.984375 29.6308594,6.58984375 28.9746094,7.93359375 L28.1308594,7.546875 Z" id="形状"></path>
                    <path d="M32.9003906,1.0078125 C34.1972656,0.984375 35.5527344,0.82421875 36.9667969,0.52734375 L37.2714844,1.40625 C36.1152344,1.578125 34.9394531,1.70703125 33.7441406,1.79296875 L33.7441406,3.609375 L36.8144531,3.609375 L36.8144531,7.93359375 L35.9941406,7.93359375 L35.9941406,7.41796875 L33.6972656,7.41796875 C33.5683594,9.20703125 33.1582031,10.625 32.4667969,11.671875 C32.2558594,11.4140625 32.0410156,11.1757812 31.8222656,10.9570312 C32.5410156,9.97265625 32.9003906,8.35546875 32.9003906,6.10546875 L32.9003906,1.0078125 Z M37.9394531,1.078125 C39.7988281,1.0078125 41.4902344,0.8359375 43.0136719,0.5625 L43.3300781,1.453125 C41.3769531,1.671875 39.8691406,1.8125 38.8066406,1.875 L38.8066406,4.48828125 L43.5527344,4.48828125 L43.5527344,5.296875 L41.7363281,5.296875 L41.7363281,11.625 L40.8574219,11.625 L40.8574219,5.296875 L38.8066406,5.296875 L38.8066406,5.953125 C38.8066406,8.4140625 38.1230469,10.3476562 36.7558594,11.7539062 C36.5292969,11.4882812 36.3066406,11.2304688 36.0878906,10.9804688 C37.3222656,9.71484375 37.9394531,8.03125 37.9394531,5.9296875 L37.9394531,1.078125 Z M35.9941406,6.64453125 L35.9941406,4.3828125 L33.7441406,4.3828125 C33.7441406,5.546875 33.7421875,6.30078125 33.7382812,6.64453125 L35.9941406,6.64453125 Z" id="形状"></path>
                    <path d="M46.9042969,0.36328125 C46.7402344,1.12109375 46.5566406,1.84765625 46.3535156,2.54296875 L49.4824219,2.54296875 L49.4824219,3.3984375 C49.2636719,5.4140625 48.6816406,7.16796875 47.7363281,8.66015625 C48.4472656,9.46484375 49.3105469,9.95703125 50.3261719,10.1367188 C51.5214844,10.3476562 53.2636719,10.4023438 55.5527344,10.3007812 C55.4199219,10.6054688 55.3066406,10.9296875 55.2128906,11.2734375 C53.0722656,11.3515625 51.4082031,11.2734375 50.2207031,11.0390625 C49.0253906,10.8359375 48.0214844,10.3007812 47.2089844,9.43359375 C46.5292969,10.3242188 45.7050781,11.1132812 44.7363281,11.8007812 C44.4785156,11.5585938 44.2207031,11.328125 43.9628906,11.109375 C45.0175781,10.3984375 45.8925781,9.5859375 46.5878906,8.671875 C46.0253906,7.8359375 45.5800781,6.79296875 45.2519531,5.54296875 C45.0097656,6.08203125 44.7519531,6.59765625 44.4785156,7.08984375 C44.3144531,6.87109375 44.0878906,6.6015625 43.7988281,6.28125 C44.7597656,4.5703125 45.4707031,2.546875 45.9316406,0.2109375 L46.9042969,0.36328125 Z M50.9238281,0.2578125 L51.8964844,0.2578125 L51.8964844,4.18359375 L52.4121094,3.5859375 C53.5214844,4.3359375 54.5214844,5.07421875 55.4121094,5.80078125 L54.7792969,6.609375 C53.9511719,5.8828125 52.9902344,5.125 51.8964844,4.3359375 L51.8964844,9.83203125 L50.9238281,9.83203125 L50.9238281,0.2578125 Z M48.5332031,3.43359375 L46.0722656,3.43359375 C45.9785156,3.71484375 45.8847656,3.98828125 45.7910156,4.25390625 C46.1113281,5.73046875 46.5605469,6.93359375 47.1386719,7.86328125 C47.9277344,6.56640625 48.3925781,5.08984375 48.5332031,3.43359375 Z" id="形状"></path>
                    <path d="M60.1347656,4.5234375 L67.5527344,4.5234375 L67.5527344,5.40234375 L65.2792969,5.40234375 L65.2792969,9.984375 C65.2792969,10.953125 64.7910156,11.4375 63.8144531,11.4375 C63.1582031,11.4375 62.4902344,11.4335938 61.8105469,11.4257812 C61.7636719,11.1132812 61.7050781,10.7617188 61.6347656,10.3710938 C62.2441406,10.4335938 62.8574219,10.4648438 63.4746094,10.4648438 C64.0136719,10.4648438 64.2832031,10.1992188 64.2832031,9.66796875 L64.2832031,5.40234375 L60.1347656,5.40234375 L60.1347656,4.5234375 Z M55.8925781,7.1484375 C57.1035156,6.15625 58.2050781,4.76171875 59.1972656,2.96484375 L60.0175781,3.46875 C59.6152344,4.1640625 59.1894531,4.81445312 58.7402344,5.41992188 L58.7402344,11.625 L57.7675781,11.625 L57.7675781,6.62695312 C57.2988281,7.15820312 56.8105469,7.6484375 56.3027344,8.09765625 C56.1777344,7.76953125 56.0410156,7.453125 55.8925781,7.1484375 Z M60.8144531,0.984375 L66.8964844,0.984375 L66.8964844,1.86328125 L60.8144531,1.86328125 L60.8144531,0.984375 Z M55.9511719,3.43359375 C57.1933594,2.47265625 58.1933594,1.35546875 58.9511719,0.08203125 L59.7949219,0.59765625 C58.8886719,1.98828125 57.7636719,3.234375 56.4199219,4.3359375 C56.2792969,4.0390625 56.1230469,3.73828125 55.9511719,3.43359375 Z" id="形状"></path>
                    <path d="M67.9277344,10.0195312 L71.6894531,10.0195312 L71.6894531,0.33984375 L72.6738281,0.33984375 L72.6738281,10.0195312 L74.7246094,10.0195312 L74.7246094,0.33984375 L75.7089844,0.33984375 L75.7089844,10.0195312 L79.5058594,10.0195312 L79.5058594,10.8867188 L67.9277344,10.8867188 L67.9277344,10.0195312 Z M69.2871094,2.63671875 C69.9277344,4.14453125 70.5488281,5.74609375 71.1503906,7.44140625 L70.1894531,7.875 C69.6660156,6.2265625 69.0800781,4.60546875 68.4316406,3.01171875 L69.2871094,2.63671875 Z M76.1308594,7.546875 C76.9121094,5.890625 77.5683594,4.2890625 78.0996094,2.7421875 L79.0488281,3.1171875 C78.3222656,4.984375 77.6308594,6.58984375 76.9746094,7.93359375 L76.1308594,7.546875 Z" id="形状"></path>
                    <path d="M81.9667969,10.4648438 L81.0527344,10.4648438 L81.0527344,4.40625 L85.2363281,4.40625 L85.2363281,2.7890625 L80.0566406,2.7890625 L80.0566406,1.8984375 L85.5234375,1.8984375 C85.28125,1.41015625 84.9980469,0.91796875 84.6738281,0.421875 L85.5761719,0 C85.9121094,0.4921875 86.2207031,0.99609375 86.5019531,1.51171875 L85.7285156,1.8984375 L91.4003906,1.8984375 L91.4003906,2.7890625 L86.1738281,2.7890625 L86.1738281,4.40625 L90.4277344,4.40625 L90.4277344,8.7890625 C90.4277344,9.7734375 89.9628906,10.265625 89.0332031,10.265625 C88.6035156,10.265625 88.0449219,10.2578125 87.3574219,10.2421875 C87.3183594,9.984375 87.2636719,9.671875 87.1933594,9.3046875 C87.8417969,9.34375 88.3613281,9.36328125 88.7519531,9.36328125 C89.2597656,9.36328125 89.5136719,9.10546875 89.5136719,8.58984375 L89.5136719,5.2734375 L86.1738281,5.2734375 L86.1738281,11.6835938 L85.2363281,11.6835938 L85.2363281,5.2734375 L81.9667969,5.2734375 L81.9667969,10.4648438 Z" id="路径"></path>
                    <path d="M100.705078,1.6875 L96.1347656,1.6875 L96.1347656,0.84375 L102.369141,0.84375 L102.369141,1.69921875 L97.7519531,4.6171875 L103.072266,4.6171875 C102.978516,6.78125 102.888672,8.453125 102.802734,9.6328125 C102.701172,10.828125 102.150391,11.4257812 101.150391,11.4257812 C100.806641,11.4257812 100.279297,11.4140625 99.5683594,11.390625 C99.5136719,11 99.4472656,10.6601562 99.3691406,10.3710938 C99.9082031,10.4570312 100.455078,10.5 101.009766,10.5 C101.564453,10.5 101.869141,10.1679688 101.923828,9.50390625 C102.001953,8.52734375 102.080078,7.1796875 102.158203,5.4609375 L100.904297,5.4609375 C100.556641,8.08984375 99.3417969,10.171875 97.2597656,11.7070312 C97.0410156,11.4335938 96.8222656,11.1953125 96.6035156,10.9921875 C98.5410156,9.65234375 99.6835938,7.80859375 100.03125,5.4609375 L98.53125,5.4609375 C98.0820312,7.41796875 96.9707031,9.03125 95.1972656,10.3007812 C95.0097656,10.0742188 94.8066406,9.84765625 94.5878906,9.62109375 C96.2050781,8.515625 97.2285156,7.12890625 97.6582031,5.4609375 L96.2636719,5.4609375 L96.2636719,4.5703125 L100.705078,1.6875 Z M91.8808594,8.7890625 C92.4472656,8.55859375 93.0175781,8.31835938 93.5917969,8.06835938 L93.5917969,4.01953125 L92.0214844,4.01953125 L92.0214844,3.17578125 L93.5917969,3.17578125 L93.5917969,0.24609375 L94.4589844,0.24609375 L94.4589844,3.17578125 L95.8886719,3.17578125 L95.8886719,4.01953125 L94.4589844,4.01953125 L94.4589844,7.68164062 C94.8964844,7.48242188 95.3378906,7.27734375 95.7832031,7.06640625 C95.7988281,7.39453125 95.8339844,7.6875 95.8886719,7.9453125 C94.7480469,8.4609375 93.5332031,9.04296875 92.2441406,9.69140625 L91.8808594,8.7890625 Z" id="形状"></path>
                    <path d="M107.958984,5.1328125 L113.818359,5.1328125 C113.810547,5.2421875 113.751953,6.671875 113.642578,9.421875 C113.611328,10.765625 112.998047,11.4453125 111.802734,11.4609375 C111.162109,11.4609375 110.603516,11.4492188 110.126953,11.4257812 C110.087891,11.0664062 110.029297,10.7421875 109.951172,10.453125 C110.490234,10.5234375 111.033203,10.5664062 111.580078,10.5820312 C112.337891,10.6367188 112.720703,10.2148438 112.728516,9.31640625 C112.791016,8.26953125 112.837891,7.1484375 112.869141,5.953125 L110.232422,5.953125 C110.208984,7.1953125 110.021484,8.22265625 109.669922,9.03515625 C109.248047,9.96484375 108.521484,10.8359375 107.490234,11.6484375 C107.287109,11.3984375 107.060547,11.1445312 106.810547,10.8867188 C107.802734,10.1132812 108.462891,9.37109375 108.791016,8.66015625 C109.111328,8.03125 109.289062,7.12890625 109.324219,5.953125 L107.958984,5.953125 L107.958984,5.1328125 Z M103.845703,5.6953125 C104.962891,4.21875 105.869141,2.38671875 106.564453,0.19921875 L107.478516,0.515625 C107.099609,1.5546875 106.685547,2.52734375 106.236328,3.43359375 L106.236328,11.625 L105.345703,11.625 L105.345703,5.0625 C104.986328,5.65625 104.611328,6.21484375 104.220703,6.73828125 C104.103516,6.40234375 103.978516,6.0546875 103.845703,5.6953125 Z M111.216797,0.515625 L111.990234,0.1875 C112.763672,2.171875 113.955078,3.62109375 115.564453,4.53515625 C115.267578,4.87890625 115.044922,5.1640625 114.896484,5.390625 C113.154297,4.1953125 111.927734,2.5703125 111.216797,0.515625 Z M106.681641,4.96875 C107.900391,3.8984375 108.884766,2.46484375 109.634766,0.66796875 L110.466797,0.984375 C109.740234,2.8046875 108.712891,4.34765625 107.384766,5.61328125 C107.103516,5.32421875 106.869141,5.109375 106.681641,4.96875 Z" id="形状"></path>
                    <path d="M117.322266,5.44921875 L117.755859,4.79296875 C118.216797,5.01953125 118.654297,5.234375 119.068359,5.4375 C119.474609,5.0390625 119.818359,4.59375 120.099609,4.1015625 L117.814453,4.1015625 C117.400391,4.78125 116.958984,5.37890625 116.490234,5.89453125 C116.318359,5.70703125 116.134766,5.51953125 115.939453,5.33203125 C116.681641,4.55078125 117.291016,3.59765625 117.767578,2.47265625 L118.541016,2.73046875 C118.431641,2.96484375 118.318359,3.1875 118.201172,3.3984375 L121.037109,3.3984375 L121.037109,4.06640625 C120.716797,4.71484375 120.310547,5.296875 119.818359,5.8125 C120.498047,6.15625 121.123047,6.4765625 121.693359,6.7734375 L121.212891,7.53515625 C120.548828,7.15234375 119.869141,6.7734375 119.173828,6.3984375 C118.587891,6.875 117.908203,7.28515625 117.134766,7.62890625 L120.873047,7.62890625 L120.873047,11.390625 L120.099609,11.390625 L120.099609,10.8867188 L117.697266,10.8867188 L117.697266,11.484375 L116.923828,11.484375 L116.923828,7.72265625 C116.689453,7.81640625 116.451172,7.90625 116.208984,7.9921875 C116.107422,7.78125 115.978516,7.54296875 115.822266,7.27734375 C116.830078,6.95703125 117.693359,6.53125 118.412109,6 C118.052734,5.8203125 117.689453,5.63671875 117.322266,5.44921875 Z M122.021484,3.1171875 L123.732422,3.1171875 L124.001953,1.640625 L121.787109,1.640625 L121.787109,0.84375 L127.388672,0.84375 L127.388672,1.640625 L124.904297,1.640625 L124.587891,3.1171875 L127.025391,3.1171875 L127.025391,9 L126.205078,9 L126.205078,3.9140625 L122.841797,3.9140625 L122.841797,9 L122.021484,9 L122.021484,3.1171875 Z M124.107422,4.640625 L124.951172,4.640625 C124.966797,6.6328125 124.876953,8.01171875 124.681641,8.77734375 C125.806641,9.56640625 126.787109,10.2929688 127.623047,10.9570312 L127.037109,11.7070312 C126.279297,11.0195312 125.388672,10.3046875 124.365234,9.5625 C123.880859,10.4453125 122.974609,11.1992188 121.646484,11.8242188 C121.490234,11.5976562 121.302734,11.3476562 121.083984,11.0742188 C122.521484,10.4335938 123.412109,9.6640625 123.755859,8.765625 C124.037109,8.140625 124.154297,6.765625 124.107422,4.640625 Z M116.173828,1.5 L118.587891,1.5 C118.431641,1.1484375 118.248047,0.78515625 118.037109,0.41015625 L118.798828,0.08203125 C119.087891,0.62109375 119.326172,1.09375 119.513672,1.5 L121.587891,1.5 L121.587891,3.15234375 L120.791016,3.15234375 L120.791016,2.203125 L116.970703,2.203125 L116.970703,3.15234375 L116.173828,3.15234375 L116.173828,1.5 Z M120.099609,8.35546875 L117.697266,8.35546875 L117.697266,10.1601562 L120.099609,10.1601562 L120.099609,8.35546875 Z" id="形状"></path>
                </g>
                <rect id="矩形" transform="translate(158.972656, 39.595703) scale(1, -1) translate(-158.972656, -39.595703) " x="6.97265625" y="39.0957031" width="304" height="1"></rect>
            </g>
        </g>
    </g>
</svg>
