<?xml version="1.0" encoding="UTF-8"?>
<svg width="239px" height="195px" viewBox="0 0 239 195" version="1.1" xmlns="http://www.w3.org/2000/svg" xmlns:xlink="http://www.w3.org/1999/xlink">
    <defs>
        <polygon id="path-1" points="5.90039062 0.55078125 2.34960938 9.22851562 1.16015625 9.22851562 4.53515625 1.16601562 0 1.16601562 0 0.15234375 5.90039062 0.15234375"></polygon>
        <path d="M9.05273438,4.453125 C7.97070312,3.94921875 7.4296875,3.21875 7.4296875,2.26171875 C7.4296875,1.59375 7.68359375,1.04980469 8.19140625,0.629882812 C8.69921875,0.209960938 9.34765625,0 10.1367188,0 C10.859375,0 11.4550781,0.197265625 11.9238281,0.591796875 C12.3925781,0.986328125 12.6269531,1.49609375 12.6269531,2.12109375 C12.6269531,3.12890625 12.0625,3.90429688 10.9335938,4.44726562 L10.9335938,4.47070312 C12.2578125,4.94726562 12.9199219,5.75976562 12.9199219,6.90820312 C12.9199219,7.66210938 12.6474609,8.26269531 12.1025391,8.70996094 C11.5576172,9.15722656 10.796875,9.38085938 9.8203125,9.38085938 C9.01953125,9.38085938 8.3671875,9.16015625 7.86328125,8.71875 C7.359375,8.27734375 7.10742188,7.70507812 7.10742188,7.00195312 C7.10742188,5.84570312 7.75585938,5.00390625 9.05273438,4.4765625 L9.05273438,4.453125 Z M11.4667969,2.25585938 C11.4667969,1.84960938 11.3398438,1.52929688 11.0859375,1.29492188 C10.8320312,1.06054688 10.4882812,0.943359375 10.0546875,0.943359375 C9.6484375,0.943359375 9.30273438,1.06542969 9.01757812,1.30957031 C8.73242188,1.55371094 8.58984375,1.86523438 8.58984375,2.24414062 C8.58984375,3.00195312 9.06445312,3.578125 10.0136719,3.97265625 C10.9824219,3.5703125 11.4667969,2.99804688 11.4667969,2.25585938 Z M9.94335938,4.99804688 C8.82226562,5.45117188 8.26171875,6.09960938 8.26171875,6.94335938 C8.26171875,7.38085938 8.42578125,7.74023438 8.75390625,8.02148438 C9.08203125,8.30273438 9.50976562,8.44335938 10.0371094,8.44335938 C10.5488281,8.44335938 10.9648438,8.30371094 11.2851562,8.02441406 C11.6054688,7.74511719 11.765625,7.39648438 11.765625,6.97851562 C11.765625,6.09960938 11.1582031,5.43945312 9.94335938,4.99804688 Z" id="path-2"></path>
        <path d="M14.2207031,8.625 C14.2207031,8.4140625 14.2929688,8.23632812 14.4375,8.09179688 C14.5820312,7.94726562 14.7617188,7.875 14.9765625,7.875 C15.1953125,7.875 15.3769531,7.94824219 15.5214844,8.09472656 C15.6660156,8.24121094 15.7382812,8.41796875 15.7382812,8.625 C15.7382812,8.828125 15.6660156,9.00292969 15.5214844,9.14941406 C15.3769531,9.29589844 15.1933594,9.36914062 14.9707031,9.36914062 C14.7558594,9.36914062 14.5771484,9.29589844 14.4345703,9.14941406 C14.2919922,9.00292969 14.2207031,8.828125 14.2207031,8.625 Z" id="path-3"></path>
        <path d="M17.4960938,7.99804688 C17.9960938,8.28710938 18.5351562,8.43164062 19.1132812,8.43164062 C19.9257812,8.43164062 20.5556641,8.11132812 21.0029297,7.47070312 C21.4501953,6.83007812 21.6738281,5.91992188 21.6738281,4.74023438 C21.6660156,4.74804688 21.6582031,4.74804688 21.6503906,4.74023438 C21.2519531,5.49804688 20.5820312,5.87695312 19.640625,5.87695312 C18.8789062,5.87695312 18.2480469,5.61523438 17.7480469,5.09179688 C17.2480469,4.56835938 16.9980469,3.88867188 16.9980469,3.05273438 C16.9980469,2.16210938 17.2714844,1.43066406 17.8183594,0.858398438 C18.3652344,0.286132813 19.0742188,0 19.9453125,0 C20.8476562,0 21.5527344,0.354492188 22.0605469,1.06347656 C22.5683594,1.77246094 22.8222656,2.8046875 22.8222656,4.16015625 C22.8222656,5.8359375 22.4941406,7.125 21.8378906,8.02734375 C21.1816406,8.9296875 20.2734375,9.38085938 19.1132812,9.38085938 C18.4765625,9.38085938 17.9375,9.27734375 17.4960938,9.0703125 L17.4960938,7.99804688 Z M18.1582031,2.90625 C18.1582031,3.515625 18.3144531,3.99902344 18.6269531,4.35644531 C18.9394531,4.71386719 19.3710938,4.89257812 19.921875,4.89257812 C20.3984375,4.89257812 20.7988281,4.72949219 21.1230469,4.40332031 C21.4472656,4.07714844 21.609375,3.68164062 21.609375,3.21679688 C21.609375,2.56445312 21.4482422,2.02441406 21.1259766,1.59667969 C20.8037109,1.16894531 20.3789062,0.955078125 19.8515625,0.955078125 C19.3632812,0.955078125 18.9589844,1.140625 18.6386719,1.51171875 C18.3183594,1.8828125 18.1582031,2.34765625 18.1582031,2.90625 Z" id="path-4"></path>
        <path d="M24.2871094,7.7109375 C24.9082031,8.19140625 25.609375,8.43164062 26.390625,8.43164062 C27.015625,8.43164062 27.5107422,8.27832031 27.8759766,7.97167969 C28.2412109,7.66503906 28.4238281,7.25390625 28.4238281,6.73828125 C28.4238281,5.58984375 27.6015625,5.015625 25.9570312,5.015625 L25.2011719,5.015625 L25.2011719,4.06640625 L25.921875,4.06640625 C27.3789062,4.06640625 28.1074219,3.52734375 28.1074219,2.44921875 C28.1074219,1.453125 27.5507812,0.955078125 26.4375,0.955078125 C25.8007812,0.955078125 25.2011719,1.16992188 24.6386719,1.59960938 L24.6386719,0.515625 C25.2324219,0.171875 25.9257812,0 26.71875,0 C27.4921875,0 28.1132812,0.202148438 28.5820312,0.606445312 C29.0507812,1.01074219 29.2851562,1.53515625 29.2851562,2.1796875 C29.2851562,3.3671875 28.6796875,4.13085938 27.46875,4.47070312 L27.46875,4.49414062 C28.125,4.56445312 28.6435547,4.79589844 29.0244141,5.18847656 C29.4052734,5.58105469 29.5957031,6.0703125 29.5957031,6.65625 C29.5957031,7.47265625 29.3017578,8.13085938 28.7138672,8.63085938 C28.1259766,9.13085938 27.34375,9.38085938 26.3671875,9.38085938 C25.5078125,9.38085938 24.8144531,9.22070312 24.2871094,8.90039062 L24.2871094,7.7109375 Z" id="path-5"></path>
        <path d="M30.9960938,2.44335938 C30.9960938,1.70117188 31.1943359,1.11132812 31.5908203,0.673828125 C31.9873047,0.236328125 32.5214844,0.017578125 33.1933594,0.017578125 C33.8378906,0.017578125 34.3408203,0.21875 34.7021484,0.62109375 C35.0634766,1.0234375 35.2441406,1.58398438 35.2441406,2.30273438 C35.2441406,3.01757812 35.0449219,3.59765625 34.6464844,4.04296875 C34.2480469,4.48828125 33.71875,4.7109375 33.0585938,4.7109375 C32.4335938,4.7109375 31.9335938,4.50390625 31.5585938,4.08984375 C31.1835938,3.67578125 30.9960938,3.12695312 30.9960938,2.44335938 Z M31.8984375,2.38476562 C31.8984375,2.88867188 32.0078125,3.27734375 32.2265625,3.55078125 C32.4453125,3.82421875 32.7441406,3.9609375 33.1230469,3.9609375 C33.5136719,3.9609375 33.8154297,3.81933594 34.0283203,3.53613281 C34.2412109,3.25292969 34.3476562,2.85351562 34.3476562,2.33789062 C34.3476562,1.83398438 34.2431641,1.44433594 34.0341797,1.16894531 C33.8251953,0.893554688 33.53125,0.755859375 33.1523438,0.755859375 C32.765625,0.755859375 32.4599609,0.899414062 32.2353516,1.18652344 C32.0107422,1.47363281 31.8984375,1.87304688 31.8984375,2.38476562 Z M39.1992188,0.15234375 L33.3691406,9.28710938 L32.390625,9.28710938 L38.2207031,0.15234375 L39.1992188,0.15234375 Z M36.4335938,7.1015625 C36.4335938,6.359375 36.6318359,5.76660156 37.0283203,5.32324219 C37.4248047,4.87988281 37.9570312,4.65820312 38.625,4.65820312 C39.265625,4.65820312 39.7675781,4.86035156 40.1308594,5.26464844 C40.4941406,5.66894531 40.6757812,6.23828125 40.6757812,6.97265625 C40.6757812,7.68359375 40.4746094,8.26074219 40.0722656,8.70410156 C39.6699219,9.14746094 39.1445312,9.36914062 38.4960938,9.36914062 C37.8671875,9.36914062 37.3662109,9.15917969 36.9931641,8.73925781 C36.6201172,8.31933594 36.4335938,7.7734375 36.4335938,7.1015625 Z M37.3300781,7.04882812 C37.3300781,7.54101562 37.4394531,7.92480469 37.6582031,8.20019531 C37.8769531,8.47558594 38.1757812,8.61328125 38.5546875,8.61328125 C38.9453125,8.61328125 39.2470703,8.47070312 39.4599609,8.18554688 C39.6728516,7.90039062 39.7792969,7.50195312 39.7792969,6.99023438 C39.7792969,6.48242188 39.6728516,6.09375 39.4599609,5.82421875 C39.2470703,5.5546875 38.9550781,5.41992188 38.5839844,5.41992188 C38.1855469,5.41992188 37.8769531,5.56347656 37.6582031,5.85058594 C37.4394531,6.13769531 37.3300781,6.53710938 37.3300781,7.04882812 Z" id="path-6"></path>
    </defs>
    <g id="ESG数据库" stroke="none" stroke-width="1" fill="none" fill-rule="evenodd">
        <g id="05-查看指标缺失-切图专用" transform="translate(-127.000000, -613.000000)" fill-rule="nonzero">
            <g id="编组" transform="translate(127.305803, 613.806164)">
                <path d="M119.694197,50.0285714 C121.095638,50.0285714 122.496598,50.0836973 123.894197,50.1938357 L125.694197,24.4299275 C123.697627,24.272587 121.696256,24.1938357 119.694197,24.1938357 L119.694197,50.0285714 Z" id="路径" fill="#F3BEBB"></path>
                <path d="M126.096573,49.6587959 C150.712738,51.4879339 171.644539,68.3483489 178.705022,92.0345228 C185.765505,115.720697 177.488119,141.312718 157.901251,156.355626 C138.314382,171.398535 111.486465,172.767733 90.473937,159.796867 C69.4614093,146.826002 58.6288331,122.209282 63.2481368,97.9270155 L38.1999309,93.1484326 C31.6009258,127.837384 47.0760341,163.004125 77.0939296,181.533932 C107.111825,200.063739 145.43742,198.107743 173.41866,176.617874 C201.3999,155.128005 213.224736,118.567976 203.138332,84.7305862 C193.051929,50.8931963 163.149357,26.80689 127.983408,24.1938357 L126.096573,49.6587959 Z" id="路径" fill="#BFDB93"></path>
                <path d="M63.7121269,96.1938357 C65.0888243,88.9396293 67.7953874,82.005085 71.694197,75.7427999 L50.0971539,62.1938357 C44.5274261,71.1399569 40.6609075,81.0464484 38.694197,91.4096 L63.7121269,96.1938357 Z" id="路径" fill="#D4E5B8"></path>
                <path d="M63.2941952,60.1938357 C74.1547527,42.9481559 93.2017061,32.4714183 113.694197,32.4714183 L113.694197,7.19383571 C84.4192111,7.19383571 57.2092786,22.1606032 41.694197,46.7972877 L63.2941952,60.1938357 Z" id="路径" fill="#FEF0BD"></path>
                <g id="光标备份" transform="translate(77.556792, 32.193836)">
                    <path d="M20.5163894,9.11758119 C20.4732758,7.80145577 19.3442384,6.74804031 17.959214,6.74804031 C17.5711916,6.74804031 17.2020314,6.83045913 16.8732902,6.97984323 C16.4610164,6.15823068 15.5825767,5.58902576 14.5640179,5.58902576 C13.9119247,5.58902576 13.3191127,5.82082867 12.8664199,6.20459127 C12.4137271,5.82082867 11.8209151,5.58902576 11.1688219,5.58902576 C10.8751105,5.58902576 10.5948721,5.63538634 10.3334959,5.72295633 L10.3334959,2.44680851 C10.3334959,1.09462486 9.18829092,0 7.77362591,0 C6.3589609,0 5.2137559,1.09462486 5.2137559,2.44680851 L5.2137559,10.6268757 L4.3514839,9.80268757 C3.34909269,8.86517357 1.74311108,8.87032475 0.751498279,9.82071669 C-0.242809125,10.7711086 -0.250892925,12.306159 0.729941479,13.2642777 C0.729941479,13.2642777 6.57722351,20.0045913 7.40716031,20.8133259 C8.79487932,22.1629339 10.7269075,23 12.8664199,23 C17.056523,23 20.4598028,19.7805151 20.5163894,15.7883539 L20.519084,15.7883539 L20.5163894,9.11758119 Z" id="路径" fill="#101010"></path>
                    <path d="M18.7918454,15.7883539 C18.7352588,18.8713326 16.1026345,21.3516237 12.8664199,21.3516237 C11.1203191,21.3516237 9.54936732,20.6304591 8.46344351,19.4791713 C8.42841371,19.4431131 1.96945748,12.1181411 1.96945748,12.1181411 C1.64341088,11.806495 1.64341088,11.2991041 1.96945748,10.9900336 C2.29550409,10.6783875 2.82634029,10.6783875 3.14969229,10.9900336 L4.8607633,12.6255319 L5.5586647,13.2926092 C6.0652495,13.7768197 6.93560531,13.4342665 6.93560531,12.7491601 L6.93560531,2.46483763 C6.93560531,2.02956327 7.29129251,1.6612542 7.74667991,1.65095185 C8.21823491,1.63807391 8.60625732,2.0012318 8.60625732,2.4493841 L8.60625732,11.5128779 L10.3308013,11.5128779 L10.3308013,8.05386338 C10.3308013,7.61858903 10.6864885,7.25027996 11.1418759,7.2399776 C11.6134309,7.22709966 12.0014533,7.59025756 12.0014533,8.03840985 L12.0014533,11.5128779 L13.7259973,11.5128779 L13.7259973,8.05386338 C13.7259973,7.61858903 14.0816845,7.25027996 14.5370719,7.2399776 C15.0086269,7.22709966 15.3966493,7.59025756 15.3966493,8.03840985 L15.3966493,11.5128779 L17.1211934,11.5128779 L17.1211934,9.21287794 C17.1211934,8.77760358 17.4768806,8.40929451 17.932268,8.39899216 C18.403823,8.38611422 18.7918454,8.74927212 18.7918454,9.19742441 L18.7918454,15.7883539 Z" id="路径" fill="#FFFFFF"></path>
                </g>
                <g id="1.26%" transform="translate(111.818150, 7.619881)" fill="#595959">
                    <polygon id="路径" points="5.25585938 9.26953125 0.052734375 9.26953125 0.052734375 8.27929688 2.0859375 8.27929688 2.0859375 1.38867187 0 1.9921875 0 0.9375 3.22851562 0 3.22851562 8.27929688 5.25585938 8.27929688"></polygon>
                    <path d="M6.6796875,8.66601562 C6.6796875,8.45507812 6.75195312,8.27734375 6.89648438,8.1328125 C7.04101562,7.98828125 7.22070312,7.91601562 7.43554688,7.91601562 C7.65429688,7.91601562 7.8359375,7.98925781 7.98046875,8.13574219 C8.125,8.28222656 8.19726562,8.45898438 8.19726562,8.66601562 C8.19726562,8.86914062 8.125,9.04394531 7.98046875,9.19042969 C7.8359375,9.33691406 7.65234375,9.41015625 7.4296875,9.41015625 C7.21484375,9.41015625 7.03613281,9.33691406 6.89355469,9.19042969 C6.75097656,9.04394531 6.6796875,8.86914062 6.6796875,8.66601562 Z" id="路径"></path>
                    <path d="M15.0117188,9.26953125 L9.4921875,9.26953125 L9.4921875,8.2734375 L12.1289062,5.64257812 C12.8554688,4.91601563 13.3417969,4.34082031 13.5878906,3.91699219 C13.8339844,3.49316406 13.9570312,3.0546875 13.9570312,2.6015625 C13.9570312,2.0859375 13.8125,1.69042969 13.5234375,1.41503906 C13.234375,1.13964844 12.8164062,1.00195312 12.2695312,1.00195312 C11.4609375,1.00195312 10.6894531,1.34570312 9.95507812,2.03320312 L9.95507812,0.8671875 C10.6699219,0.31640625 11.5019531,0.041015625 12.4511719,0.041015625 C13.2675781,0.041015625 13.9121094,0.26171875 14.3847656,0.703125 C14.8574219,1.14453125 15.09375,1.73828125 15.09375,2.484375 C15.09375,3.046875 14.9423828,3.59863281 14.6396484,4.13964844 C14.3369141,4.68066406 13.7636719,5.36914062 12.9199219,6.20507812 L10.8515625,8.2265625 L10.8515625,8.25 L15.0117188,8.25 L15.0117188,9.26953125 Z" id="路径"></path>
                    <path d="M21.8730469,1.359375 C21.4003906,1.1171875 20.90625,0.99609375 20.390625,0.99609375 C19.6054688,0.99609375 18.9746094,1.33789062 18.4980469,2.02148438 C18.0214844,2.70507812 17.7792969,3.63867187 17.7714844,4.82226562 L17.8007812,4.82226562 C18.2304688,3.99023438 18.9160156,3.57421875 19.8574219,3.57421875 C20.6425781,3.57421875 21.2695312,3.83007812 21.7382812,4.34179688 C22.2070312,4.85351562 22.4414062,5.53320312 22.4414062,6.38085938 C22.4414062,7.26757812 22.1708984,7.99609375 21.6298828,8.56640625 C21.0888672,9.13671875 20.3984375,9.421875 19.5585938,9.421875 C18.6367188,9.421875 17.9130859,9.06152344 17.3876953,8.34082031 C16.8623047,7.62011719 16.5996094,6.59765625 16.5996094,5.2734375 C16.5996094,3.671875 16.9443359,2.39941406 17.6337891,1.45605469 C18.3232422,0.512695312 19.2304688,0.041015625 20.3554688,0.041015625 C21,0.041015625 21.5058594,0.12890625 21.8730469,0.3046875 L21.8730469,1.359375 Z M17.8417969,6.29882812 C17.8417969,6.89648438 18.0009766,7.40820312 18.3193359,7.83398438 C18.6376953,8.25976562 19.0605469,8.47265625 19.5878906,8.47265625 C20.0878906,8.47265625 20.4941406,8.2890625 20.8066406,7.921875 C21.1191406,7.5546875 21.2753906,7.08203125 21.2753906,6.50390625 C21.2753906,5.87890625 21.1279297,5.39257812 20.8330078,5.04492188 C20.5380859,4.69726562 20.1191406,4.5234375 19.5761719,4.5234375 C19.0605469,4.5234375 18.6425781,4.69921875 18.3222656,5.05078125 C18.0019531,5.40234375 17.8417969,5.81835938 17.8417969,6.29882812 Z" id="形状"></path>
                    <path d="M23.4550781,2.484375 C23.4550781,1.7421875 23.6533203,1.15234375 24.0498047,0.71484375 C24.4462891,0.27734375 24.9804688,0.05859375 25.6523438,0.05859375 C26.296875,0.05859375 26.7998047,0.259765625 27.1611328,0.662109375 C27.5224609,1.06445312 27.703125,1.625 27.703125,2.34375 C27.703125,3.05859375 27.5039062,3.63867188 27.1054688,4.08398438 C26.7070312,4.52929688 26.1777344,4.75195312 25.5175781,4.75195312 C24.8925781,4.75195312 24.3925781,4.54492188 24.0175781,4.13085938 C23.6425781,3.71679688 23.4550781,3.16796875 23.4550781,2.484375 Z M24.3574219,2.42578125 C24.3574219,2.9296875 24.4667969,3.31835938 24.6855469,3.59179688 C24.9042969,3.86523438 25.203125,4.00195312 25.5820312,4.00195312 C25.9726562,4.00195312 26.2744141,3.86035156 26.4873047,3.57714844 C26.7001953,3.29394531 26.8066406,2.89453125 26.8066406,2.37890625 C26.8066406,1.875 26.7021484,1.48535156 26.4931641,1.20996094 C26.2841797,0.934570312 25.9902344,0.796875 25.6113281,0.796875 C25.2246094,0.796875 24.9189453,0.940429688 24.6943359,1.22753906 C24.4697266,1.51464844 24.3574219,1.9140625 24.3574219,2.42578125 Z M31.6582031,0.193359375 L25.828125,9.328125 L24.8496094,9.328125 L30.6796875,0.193359375 L31.6582031,0.193359375 Z M28.8925781,7.14257812 C28.8925781,6.40039062 29.0908203,5.80761719 29.4873047,5.36425781 C29.8837891,4.92089844 30.4160156,4.69921875 31.0839844,4.69921875 C31.7246094,4.69921875 32.2265625,4.90136719 32.5898438,5.30566406 C32.953125,5.70996094 33.1347656,6.27929688 33.1347656,7.01367188 C33.1347656,7.72460938 32.9335938,8.30175781 32.53125,8.74511719 C32.1289062,9.18847656 31.6035156,9.41015625 30.9550781,9.41015625 C30.3261719,9.41015625 29.8251953,9.20019531 29.4521484,8.78027344 C29.0791016,8.36035156 28.8925781,7.81445312 28.8925781,7.14257812 Z M29.7890625,7.08984375 C29.7890625,7.58203125 29.8984375,7.96582031 30.1171875,8.24121094 C30.3359375,8.51660156 30.6347656,8.65429688 31.0136719,8.65429688 C31.4042969,8.65429688 31.7060547,8.51171875 31.9189453,8.2265625 C32.1318359,7.94140625 32.2382812,7.54296875 32.2382812,7.03125 C32.2382812,6.5234375 32.1318359,6.13476562 31.9189453,5.86523438 C31.7060547,5.59570312 31.4140625,5.4609375 31.0429688,5.4609375 C30.6445312,5.4609375 30.3359375,5.60449219 30.1171875,5.89160156 C29.8984375,6.17871094 29.7890625,6.578125 29.7890625,7.08984375 Z" id="形状"></path>
                </g>
                <g id="78.93%" transform="translate(197.467434, 161.580596)">
                    <g id="路径">
                        <use fill="#75787A" xlink:href="#path-1"></use>
                        <use fill="#595959" xlink:href="#path-1"></use>
                    </g>
                    <g id="形状">
                        <use fill="#75787A" xlink:href="#path-2"></use>
                        <use fill="#595959" xlink:href="#path-2"></use>
                    </g>
                    <g id="路径">
                        <use fill="#75787A" xlink:href="#path-3"></use>
                        <use fill="#595959" xlink:href="#path-3"></use>
                    </g>
                    <g id="形状">
                        <use fill="#75787A" xlink:href="#path-4"></use>
                        <use fill="#595959" xlink:href="#path-4"></use>
                    </g>
                    <g id="路径">
                        <use fill="#75787A" xlink:href="#path-5"></use>
                        <use fill="#595959" xlink:href="#path-5"></use>
                    </g>
                    <g id="形状">
                        <use fill="#75787A" xlink:href="#path-6"></use>
                        <use fill="#595959" xlink:href="#path-6"></use>
                    </g>
                </g>
                <g id="6.10%" transform="translate(0.000000, 81.072052)" fill="#595959">
                    <path d="M5.2734375,1.359375 C4.80078125,1.1171875 4.30664062,0.99609375 3.79101562,0.99609375 C3.00585938,0.99609375 2.375,1.33789062 1.8984375,2.02148438 C1.421875,2.70507812 1.1796875,3.63867187 1.171875,4.82226562 L1.20117188,4.82226562 C1.63085937,3.99023438 2.31640625,3.57421875 3.2578125,3.57421875 C4.04296875,3.57421875 4.66992188,3.83007812 5.13867188,4.34179688 C5.60742188,4.85351562 5.84179688,5.53320312 5.84179688,6.38085938 C5.84179688,7.26757812 5.57128906,7.99609375 5.03027344,8.56640625 C4.48925781,9.13671875 3.79882812,9.421875 2.95898438,9.421875 C2.03710938,9.421875 1.31347656,9.06152344 0.788085938,8.34082031 C0.262695313,7.62011719 0,6.59765625 0,5.2734375 C0,3.671875 0.344726563,2.39941406 1.03417969,1.45605469 C1.72363281,0.512695312 2.63085938,0.041015625 3.75585938,0.041015625 C4.40039062,0.041015625 4.90625,0.12890625 5.2734375,0.3046875 L5.2734375,1.359375 Z M1.2421875,6.29882812 C1.2421875,6.89648438 1.40136719,7.40820312 1.71972656,7.83398438 C2.03808594,8.25976562 2.4609375,8.47265625 2.98828125,8.47265625 C3.48828125,8.47265625 3.89453125,8.2890625 4.20703125,7.921875 C4.51953125,7.5546875 4.67578125,7.08203125 4.67578125,6.50390625 C4.67578125,5.87890625 4.52832031,5.39257812 4.23339844,5.04492188 C3.93847656,4.69726562 3.51953125,4.5234375 2.9765625,4.5234375 C2.4609375,4.5234375 2.04296875,4.69921875 1.72265625,5.05078125 C1.40234375,5.40234375 1.2421875,5.81835938 1.2421875,6.29882812 Z" id="形状"></path>
                    <path d="M7.04296875,8.66601562 C7.04296875,8.45507812 7.11523438,8.27734375 7.25976562,8.1328125 C7.40429688,7.98828125 7.58398438,7.91601562 7.79882812,7.91601562 C8.01757812,7.91601562 8.19921875,7.98925781 8.34375,8.13574219 C8.48828125,8.28222656 8.56054688,8.45898438 8.56054688,8.66601562 C8.56054688,8.86914062 8.48828125,9.04394531 8.34375,9.19042969 C8.19921875,9.33691406 8.015625,9.41015625 7.79296875,9.41015625 C7.578125,9.41015625 7.39941406,9.33691406 7.25683594,9.19042969 C7.11425781,9.04394531 7.04296875,8.86914062 7.04296875,8.66601562 Z" id="路径"></path>
                    <polygon id="路径" points="15.5449219 9.26953125 10.3417969 9.26953125 10.3417969 8.27929688 12.375 8.27929688 12.375 1.38867187 10.2890625 1.9921875 10.2890625 0.9375 13.5175781 0 13.5175781 8.27929688 15.5449219 8.27929688"></polygon>
                    <path d="M16.8046875,4.91015625 C16.8046875,3.30859375 17.0703125,2.09667969 17.6015625,1.27441406 C18.1328125,0.452148438 18.9023438,0.041015625 19.9101562,0.041015625 C21.8320312,0.041015625 22.7929688,1.59179688 22.7929688,4.69335938 C22.7929688,6.22460938 22.5224609,7.39550781 21.9814453,8.20605469 C21.4404297,9.01660156 20.6816406,9.421875 19.7050781,9.421875 C18.7832031,9.421875 18.0693359,9.03710938 17.5634766,8.26757812 C17.0576172,7.49804688 16.8046875,6.37890625 16.8046875,4.91015625 Z M17.9765625,4.85742188 C17.9765625,7.26757812 18.5878906,8.47265625 19.8105469,8.47265625 C21.0136719,8.47265625 21.6152344,7.24804688 21.6152344,4.79882812 C21.6152344,2.26367188 21.0253906,0.99609375 19.8457031,0.99609375 C18.5996094,0.99609375 17.9765625,2.28320312 17.9765625,4.85742188 Z" id="形状"></path>
                    <path d="M23.8183594,2.484375 C23.8183594,1.7421875 24.0166016,1.15234375 24.4130859,0.71484375 C24.8095703,0.27734375 25.34375,0.05859375 26.015625,0.05859375 C26.6601562,0.05859375 27.1630859,0.259765625 27.5244141,0.662109375 C27.8857422,1.06445312 28.0664062,1.625 28.0664062,2.34375 C28.0664062,3.05859375 27.8671875,3.63867188 27.46875,4.08398438 C27.0703125,4.52929688 26.5410156,4.75195312 25.8808594,4.75195312 C25.2558594,4.75195312 24.7558594,4.54492188 24.3808594,4.13085938 C24.0058594,3.71679688 23.8183594,3.16796875 23.8183594,2.484375 Z M24.7207031,2.42578125 C24.7207031,2.9296875 24.8300781,3.31835938 25.0488281,3.59179688 C25.2675781,3.86523438 25.5664062,4.00195312 25.9453125,4.00195312 C26.3359375,4.00195312 26.6376953,3.86035156 26.8505859,3.57714844 C27.0634766,3.29394531 27.1699219,2.89453125 27.1699219,2.37890625 C27.1699219,1.875 27.0654297,1.48535156 26.8564453,1.20996094 C26.6474609,0.934570312 26.3535156,0.796875 25.9746094,0.796875 C25.5878906,0.796875 25.2822266,0.940429688 25.0576172,1.22753906 C24.8330078,1.51464844 24.7207031,1.9140625 24.7207031,2.42578125 Z M32.0214844,0.193359375 L26.1914062,9.328125 L25.2128906,9.328125 L31.0429688,0.193359375 L32.0214844,0.193359375 Z M29.2558594,7.14257812 C29.2558594,6.40039062 29.4541016,5.80761719 29.8505859,5.36425781 C30.2470703,4.92089844 30.7792969,4.69921875 31.4472656,4.69921875 C32.0878906,4.69921875 32.5898438,4.90136719 32.953125,5.30566406 C33.3164062,5.70996094 33.4980469,6.27929688 33.4980469,7.01367188 C33.4980469,7.72460938 33.296875,8.30175781 32.8945312,8.74511719 C32.4921875,9.18847656 31.9667969,9.41015625 31.3183594,9.41015625 C30.6894531,9.41015625 30.1884766,9.20019531 29.8154297,8.78027344 C29.4423828,8.36035156 29.2558594,7.81445312 29.2558594,7.14257812 Z M30.1523438,7.08984375 C30.1523438,7.58203125 30.2617188,7.96582031 30.4804688,8.24121094 C30.6992188,8.51660156 30.9980469,8.65429688 31.3769531,8.65429688 C31.7675781,8.65429688 32.0693359,8.51171875 32.2822266,8.2265625 C32.4951172,7.94140625 32.6015625,7.54296875 32.6015625,7.03125 C32.6015625,6.5234375 32.4951172,6.13476562 32.2822266,5.86523438 C32.0693359,5.59570312 31.7773438,5.4609375 31.40625,5.4609375 C31.0078125,5.4609375 30.6992188,5.60449219 30.4804688,5.89160156 C30.2617188,6.17871094 30.1523438,6.578125 30.1523438,7.08984375 Z" id="形状"></path>
                </g>
                <g id="13.71%" transform="translate(35.060161, 0.000000)" fill="#595959">
                    <polygon id="路径" points="5.25585938 9.26953125 0.052734375 9.26953125 0.052734375 8.27929688 2.0859375 8.27929688 2.0859375 1.38867187 0 1.9921875 0 0.9375 3.22851562 0 3.22851562 8.27929688 5.25585938 8.27929688"></polygon>
                    <path d="M6.8203125,7.75195312 C7.44140625,8.23242188 8.14257812,8.47265625 8.92382812,8.47265625 C9.54882812,8.47265625 10.0439453,8.31933594 10.4091797,8.01269531 C10.7744141,7.70605469 10.9570312,7.29492188 10.9570312,6.77929687 C10.9570312,5.63085938 10.1347656,5.05664062 8.49023438,5.05664062 L7.734375,5.05664062 L7.734375,4.10742188 L8.45507812,4.10742188 C9.91210938,4.10742188 10.640625,3.56835938 10.640625,2.49023438 C10.640625,1.49414062 10.0839844,0.99609375 8.97070312,0.99609375 C8.33398438,0.99609375 7.734375,1.2109375 7.171875,1.640625 L7.171875,0.556640625 C7.765625,0.212890625 8.45898438,0.041015625 9.25195312,0.041015625 C10.0253906,0.041015625 10.6464844,0.243164062 11.1152344,0.647460938 C11.5839844,1.05175781 11.8183594,1.57617188 11.8183594,2.22070312 C11.8183594,3.40820312 11.2128906,4.171875 10.0019531,4.51171875 L10.0019531,4.53515625 C10.6582031,4.60546875 11.1767578,4.83691406 11.5576172,5.22949219 C11.9384766,5.62207031 12.1289062,6.11132812 12.1289062,6.69726562 C12.1289062,7.51367188 11.8349609,8.171875 11.2470703,8.671875 C10.6591797,9.171875 9.87695312,9.421875 8.90039062,9.421875 C8.04101562,9.421875 7.34765625,9.26171875 6.8203125,8.94140625 L6.8203125,7.75195312 Z" id="路径"></path>
                    <path d="M13.7167969,8.66601562 C13.7167969,8.45507812 13.7890625,8.27734375 13.9335938,8.1328125 C14.078125,7.98828125 14.2578125,7.91601562 14.4726562,7.91601562 C14.6914062,7.91601562 14.8730469,7.98925781 15.0175781,8.13574219 C15.1621094,8.28222656 15.234375,8.45898438 15.234375,8.66601562 C15.234375,8.86914062 15.1621094,9.04394531 15.0175781,9.19042969 C14.8730469,9.33691406 14.6894531,9.41015625 14.4667969,9.41015625 C14.2519531,9.41015625 14.0732422,9.33691406 13.9306641,9.19042969 C13.7880859,9.04394531 13.7167969,8.86914062 13.7167969,8.66601562 Z" id="路径"></path>
                    <polygon id="路径" points="22.359375 0.591796875 18.8085938 9.26953125 17.6191406 9.26953125 20.9941406 1.20703125 16.4589844 1.20703125 16.4589844 0.193359375 22.359375 0.193359375"></polygon>
                    <polygon id="路径" points="29.2558594 9.26953125 24.0527344 9.26953125 24.0527344 8.27929688 26.0859375 8.27929688 26.0859375 1.38867187 24 1.9921875 24 0.9375 27.2285156 0 27.2285156 8.27929688 29.2558594 8.27929688"></polygon>
                    <path d="M30.4921875,2.484375 C30.4921875,1.7421875 30.6904297,1.15234375 31.0869141,0.71484375 C31.4833984,0.27734375 32.0175781,0.05859375 32.6894531,0.05859375 C33.3339844,0.05859375 33.8369141,0.259765625 34.1982422,0.662109375 C34.5595703,1.06445312 34.7402344,1.625 34.7402344,2.34375 C34.7402344,3.05859375 34.5410156,3.63867188 34.1425781,4.08398438 C33.7441406,4.52929688 33.2148438,4.75195312 32.5546875,4.75195312 C31.9296875,4.75195312 31.4296875,4.54492188 31.0546875,4.13085938 C30.6796875,3.71679688 30.4921875,3.16796875 30.4921875,2.484375 Z M31.3945312,2.42578125 C31.3945312,2.9296875 31.5039062,3.31835938 31.7226562,3.59179688 C31.9414062,3.86523438 32.2402344,4.00195312 32.6191406,4.00195312 C33.0097656,4.00195312 33.3115234,3.86035156 33.5244141,3.57714844 C33.7373047,3.29394531 33.84375,2.89453125 33.84375,2.37890625 C33.84375,1.875 33.7392578,1.48535156 33.5302734,1.20996094 C33.3212891,0.934570312 33.0273438,0.796875 32.6484375,0.796875 C32.2617188,0.796875 31.9560547,0.940429688 31.7314453,1.22753906 C31.5068359,1.51464844 31.3945312,1.9140625 31.3945312,2.42578125 Z M38.6953125,0.193359375 L32.8652344,9.328125 L31.8867188,9.328125 L37.7167969,0.193359375 L38.6953125,0.193359375 Z M35.9296875,7.14257812 C35.9296875,6.40039062 36.1279297,5.80761719 36.5244141,5.36425781 C36.9208984,4.92089844 37.453125,4.69921875 38.1210938,4.69921875 C38.7617188,4.69921875 39.2636719,4.90136719 39.6269531,5.30566406 C39.9902344,5.70996094 40.171875,6.27929688 40.171875,7.01367188 C40.171875,7.72460938 39.9707031,8.30175781 39.5683594,8.74511719 C39.1660156,9.18847656 38.640625,9.41015625 37.9921875,9.41015625 C37.3632812,9.41015625 36.8623047,9.20019531 36.4892578,8.78027344 C36.1162109,8.36035156 35.9296875,7.81445312 35.9296875,7.14257812 Z M36.8261719,7.08984375 C36.8261719,7.58203125 36.9355469,7.96582031 37.1542969,8.24121094 C37.3730469,8.51660156 37.671875,8.65429688 38.0507812,8.65429688 C38.4414062,8.65429688 38.7431641,8.51171875 38.9560547,8.2265625 C39.1689453,7.94140625 39.2753906,7.54296875 39.2753906,7.03125 C39.2753906,6.5234375 39.1689453,6.13476562 38.9560547,5.86523438 C38.7431641,5.59570312 38.4511719,5.4609375 38.0800781,5.4609375 C37.6816406,5.4609375 37.3730469,5.60449219 37.1542969,5.89160156 C36.9355469,6.17871094 36.8261719,6.578125 36.8261719,7.08984375 Z" id="形状"></path>
                </g>
            </g>
        </g>
    </g>
</svg>
