<?xml version="1.0" encoding="UTF-8"?>
<svg width="289px" height="59px" viewBox="0 0 289 59" version="1.1" xmlns="http://www.w3.org/2000/svg" xmlns:xlink="http://www.w3.org/1999/xlink">
    <g id="ESG数据库" stroke="none" stroke-width="1" fill="none" fill-rule="evenodd">
        <g id="05-查看指标缺失-切图专用" transform="translate(-563.000000, -828.000000)" fill="#75787A">
            <g id="通过企业一三四单位市场份额【A指标】估算" transform="translate(563.175781, 828.939453)">
                <path d="M1.53515625,0.0703125 C2.20703125,0.8828125 2.75,1.59765625 3.1640625,2.21484375 L1.78125,3.12890625 C1.2578125,2.29296875 0.75390625,1.55078125 0.26953125,0.90234375 L1.53515625,0.0703125 Z M10.96875,0.4921875 L10.96875,1.83984375 L8.53125,3.1875 L10.9804688,3.1875 L10.9804688,8.23828125 C10.9804688,8.609375 10.9072266,8.90234375 10.7607422,9.1171875 C10.6142578,9.33203125 10.4082031,9.47265625 10.1425781,9.5390625 C9.87695312,9.60546875 9.29296875,9.6328125 8.390625,9.62109375 C8.3203125,9.26953125 8.21875,8.8671875 8.0859375,8.4140625 C8.4609375,8.4375 8.76953125,8.44921875 9.01171875,8.44921875 C9.33984375,8.44921875 9.50390625,8.27734375 9.50390625,7.93359375 L9.50390625,7.734375 L7.921875,7.734375 L7.921875,9.4921875 L6.515625,9.4921875 L6.515625,7.734375 L4.98046875,7.734375 L4.98046875,9.50390625 L3.50390625,9.50390625 L3.50390625,3.1875 L5.73046875,3.1875 L4.46484375,2.40234375 L5.0625,1.7109375 L3.41015625,1.7109375 L3.41015625,0.4921875 L10.96875,0.4921875 Z M8.94140625,1.7109375 L5.49609375,1.7109375 C5.98046875,1.98828125 6.52734375,2.31054688 7.13671875,2.67773438 L8.94140625,1.7109375 Z M9.50390625,4.2421875 L7.921875,4.2421875 L7.921875,4.95703125 L9.50390625,4.95703125 L9.50390625,4.2421875 Z M4.98046875,4.95703125 L6.515625,4.95703125 L6.515625,4.2421875 L4.98046875,4.2421875 L4.98046875,4.95703125 Z M7.921875,6.703125 L9.50390625,6.703125 L9.50390625,5.98828125 L7.921875,5.98828125 L7.921875,6.703125 Z M4.98046875,6.703125 L6.515625,6.703125 L6.515625,5.98828125 L4.98046875,5.98828125 L4.98046875,6.703125 Z M11.6601562,9.9375 C11.4179688,10.5390625 11.2265625,11.0429688 11.0859375,11.4492188 L4.921875,11.4023438 C4.19140625,11.3828125 3.59179687,11.2744141 3.12304688,11.0771484 C2.65429688,10.8798828 2.265625,10.6054688 1.95703125,10.2539062 L0.6796875,11.71875 L0,9.90234375 L1.125,8.94140625 L1.125,5.73046875 L0.08203125,5.73046875 L0.08203125,4.18359375 L2.58984375,4.18359375 L2.58984375,8.9765625 C3.0546875,9.625 3.8828125,9.94921875 5.07421875,9.94921875 L7.72851562,9.984375 C8.88867188,9.984375 10.1992188,9.96875 11.6601562,9.9375 Z" id="形状" fill-rule="nonzero"></path>
                <path d="M13.6757812,0.03515625 C14.2539062,0.85546875 14.7421875,1.58984375 15.140625,2.23828125 C15,2.32421875 14.5,2.609375 13.640625,3.09375 C13.2109375,2.3046875 12.7773438,1.55078125 12.3398438,0.83203125 L13.6757812,0.03515625 Z M20.0976562,0.10546875 L21.796875,0.10546875 L21.796875,2.0390625 L23.4960938,2.0390625 L23.4960938,3.45703125 L21.796875,3.45703125 L21.796875,7.359375 C21.796875,8.02734375 21.6435547,8.53222656 21.3369141,8.87402344 C21.0302734,9.21582031 20.5996094,9.39648438 20.0449219,9.41601562 C19.4902344,9.43554688 18.7265625,9.4453125 17.7539062,9.4453125 C17.6523438,8.953125 17.5078125,8.39453125 17.3203125,7.76953125 C18.25,7.83203125 18.8867188,7.86328125 19.2304688,7.86328125 C19.8085938,7.86328125 20.0976562,7.54296875 20.0976562,6.90234375 L20.0976562,3.45703125 L15.4335938,3.45703125 L15.4335938,2.0390625 L20.0976562,2.0390625 L20.0976562,0.10546875 Z M16.9453125,3.62109375 C17.46875,4.21484375 18.1445312,5.04296875 18.9726562,6.10546875 C18.5429688,6.41796875 18.0820312,6.76953125 17.5898438,7.16015625 C16.9960938,6.34765625 16.3476562,5.48828125 15.6445312,4.58203125 L16.9453125,3.62109375 Z M23.6601562,9.80859375 C23.4335938,10.4570312 23.2578125,10.9804688 23.1328125,11.3789062 L16.453125,11.2792969 C15.9101562,11.2675781 15.4365234,11.1728516 15.0322266,10.9951172 C14.6279297,10.8173828 14.3007812,10.5585938 14.0507812,10.21875 C13.3867188,10.859375 12.9140625,11.3398438 12.6328125,11.6601562 L11.9765625,9.8203125 L13.1367188,8.8359375 L13.1367188,5.6015625 L12.0703125,5.6015625 L12.0703125,4.0546875 L14.7539062,4.0546875 L14.7539062,8.82421875 C15.3203125,9.50390625 16.0898438,9.84375 17.0625,9.84375 L18.8730469,9.8671875 C20.0800781,9.8671875 21.6757812,9.84765625 23.6601562,9.80859375 Z" id="形状" fill-rule="nonzero"></path>
                <path d="M24.3867188,9.6328125 L26.0507812,9.6328125 L26.0507812,5.1328125 L27.7617188,5.1328125 L27.7617188,9.6328125 L29.4492188,9.6328125 L29.4492188,3.73828125 L31.1601562,3.73828125 L31.1601562,5.9765625 L34.1367188,5.9765625 L34.1367188,7.48828125 L31.1601562,7.48828125 L31.1601562,9.6328125 L35.2617188,9.6328125 L35.2617188,11.1445312 L24.3867188,11.1445312 L24.3867188,9.6328125 Z M31.21875,0.12890625 L30.8320312,0.57421875 C31.9960938,2.01171875 33.6015625,3.11328125 35.6484375,3.87890625 C35.28125,4.48046875 34.9648438,5.0078125 34.6992188,5.4609375 C32.6289062,4.3984375 31.0195312,3.1640625 29.8710938,1.7578125 C28.7929688,3.171875 27.1601562,4.47265625 24.9726562,5.66015625 C24.7539062,5.29296875 24.4257812,4.78125 23.9882812,4.125 C26.2851562,3.0859375 27.9921875,1.75390625 29.109375,0.12890625 L31.21875,0.12890625 Z" id="形状" fill-rule="nonzero"></path>
                <path d="M39.3632812,0.28125 L41.0742188,0.28125 L41.0742188,9.4921875 L42.5742188,9.4921875 L42.5742188,0.28125 L44.2617188,0.28125 L44.2617188,6.61523438 C44.8984375,5.34960938 45.5195312,3.890625 46.125,2.23828125 L47.6367188,2.8828125 C47.0429688,4.3671875 46.3320312,5.9765625 45.5039062,7.7109375 L44.2617188,7.13085938 L44.2617188,9.4921875 L47.6367188,9.4921875 L47.6367188,11.0976562 L36.0585938,11.0976562 L36.0585938,9.4921875 L39.3632812,9.4921875 L39.3632812,7.171875 L38.0507812,7.734375 C37.4101562,5.9140625 36.7695312,4.2421875 36.1289062,2.71875 L37.5351562,2.07421875 C38.2109375,3.58984375 38.8203125,5.05078125 39.3632812,6.45703125 L39.3632812,0.28125 Z" id="路径" fill-rule="nonzero"></path>
                <polygon id="路径" fill-rule="nonzero" points="48.1757812 4.96875 59.4960938 4.96875 59.4960938 6.703125 48.1757812 6.703125"></polygon>
                <path d="M60.9023438,1.0546875 L70.7226562,1.0546875 L70.7226562,2.7890625 L60.9023438,2.7890625 L60.9023438,1.0546875 Z M61.4296875,5.015625 L70.1953125,5.015625 L70.1953125,6.703125 L61.4296875,6.703125 L61.4296875,5.015625 Z M60.1757812,9.1875 L71.4960938,9.1875 L71.4960938,10.921875 L60.1757812,10.921875 L60.1757812,9.1875 Z" id="形状" fill-rule="nonzero"></path>
                <path d="M72.5507812,11.5546875 L72.5507812,0.7734375 L83.0976562,0.7734375 L83.0976562,11.5429688 L81.3984375,11.5429688 L81.3984375,10.8046875 L74.25,10.8046875 L74.25,11.5546875 L72.5507812,11.5546875 Z M81.3867188,6.15234375 C81.2539062,6.65234375 81.1523438,7.16796875 81.0820312,7.69921875 L79.6992188,7.69921875 C78.7773438,7.69921875 78.3164062,7.21875 78.3164062,6.2578125 L78.3164062,2.35546875 L77.15625,2.35546875 L77.15625,4.72265625 C77.15625,6.26953125 76.5898438,7.42578125 75.4570312,8.19140625 C75.1601562,7.94140625 74.7578125,7.6328125 74.25,7.265625 L74.25,9.22265625 L81.3984375,9.22265625 L81.3984375,2.35546875 L79.8632812,2.35546875 L79.8632812,5.6015625 C79.8632812,5.96875 80.046875,6.15234375 80.4140625,6.15234375 L81.3867188,6.15234375 Z M75.609375,4.59375 L75.609375,2.35546875 L74.25,2.35546875 L74.25,7.16601562 C75.15625,6.65820312 75.609375,5.80078125 75.609375,4.59375 Z" id="形状" fill-rule="nonzero"></path>
                <path d="M84.9609375,1.8046875 L87.1054688,1.8046875 C86.8359375,1.41796875 86.5585938,1.04296875 86.2734375,0.6796875 L87.6796875,0.046875 L88.8984375,1.4765625 L88.1601562,1.8046875 L90.515625,1.8046875 C90.984375,1.203125 91.40625,0.609375 91.78125,0.0234375 L93.5507812,0.65625 C93.2773438,0.94921875 92.9277344,1.33203125 92.5019531,1.8046875 L94.7109375,1.8046875 L94.7109375,7.62890625 L90.65625,7.62890625 L90.65625,8.4375 L95.6132812,8.4375 L95.6132812,9.87890625 L90.65625,9.87890625 L90.65625,11.625 L89.015625,11.625 L89.015625,9.87890625 L84.0351562,9.87890625 L84.0351562,8.4375 L89.015625,8.4375 L89.015625,7.62890625 L84.9609375,7.62890625 L84.9609375,1.8046875 Z M93.1640625,3.1640625 L90.65625,3.1640625 L90.65625,4.11328125 L93.1640625,4.11328125 L93.1640625,3.1640625 Z M86.5078125,4.11328125 L89.015625,4.11328125 L89.015625,3.1640625 L86.5078125,3.1640625 L86.5078125,4.11328125 Z M93.1640625,6.26953125 L93.1640625,5.3203125 L90.65625,5.3203125 L90.65625,6.26953125 L93.1640625,6.26953125 Z M86.5078125,6.26953125 L89.015625,6.26953125 L89.015625,5.3203125 L86.5078125,5.3203125 L86.5078125,6.26953125 Z" id="形状" fill-rule="nonzero"></path>
                <path d="M99.7148438,2.00390625 L102.808594,2.00390625 C102.632812,1.546875 102.417969,1.04296875 102.164062,0.4921875 L103.851562,0.03515625 C104.140625,0.62109375 104.40625,1.1953125 104.648438,1.7578125 L103.722656,2.00390625 L107.273438,2.00390625 L107.273438,3.515625 L99.7148438,3.515625 L99.7148438,2.00390625 Z M98.3789062,0.12890625 L99.8789062,0.5859375 C99.5742188,1.41796875 99.265625,2.20703125 98.953125,2.953125 L98.953125,11.6835938 L97.3828125,11.6835938 L97.3828125,6.21679688 C97.0898438,6.74414062 96.7929688,7.23828125 96.4921875,7.69921875 C96.375,7.13671875 96.203125,6.46875 95.9765625,5.6953125 C96.7734375,4.375 97.5742188,2.51953125 98.3789062,0.12890625 Z M99.46875,9.62109375 L103.412109,9.62109375 C104.060547,7.82421875 104.609375,5.9296875 105.058594,3.9375 L106.898438,4.453125 C106.710938,4.9609375 106.105469,6.68359375 105.082031,9.62109375 L107.671875,9.62109375 L107.671875,11.1328125 L99.46875,11.1328125 L99.46875,9.62109375 Z M101.589844,4.0078125 C101.886719,4.796875 102.410156,6.29296875 103.160156,8.49609375 L101.554688,9.01171875 C101.007812,7.12890625 100.527344,5.62109375 100.113281,4.48828125 L101.589844,4.0078125 Z" id="形状" fill-rule="nonzero"></path>
                <path d="M110.660156,10.4179688 L109.066406,10.4179688 L109.066406,4.4296875 L112.980469,4.4296875 L112.980469,3.0703125 L108.257812,3.0703125 L108.257812,1.546875 L112.845703,1.546875 C112.693359,1.15234375 112.546875,0.78515625 112.40625,0.4453125 L114.269531,0.01171875 C114.457031,0.5 114.638672,1.01171875 114.814453,1.546875 L119.449219,1.546875 L119.449219,3.0703125 L114.667969,3.0703125 L114.667969,4.4296875 L118.863281,4.4296875 L118.863281,8.58984375 C118.863281,8.93359375 118.80957,9.23046875 118.702148,9.48046875 C118.594727,9.73046875 118.435547,9.9296875 118.224609,10.078125 C118.013672,10.2265625 117.769531,10.3212891 117.492188,10.3623047 C117.214844,10.4033203 116.570312,10.4296875 115.558594,10.4414062 C115.433594,9.92578125 115.289062,9.41796875 115.125,8.91796875 C115.554688,8.94921875 115.996094,8.96484375 116.449219,8.96484375 C116.996094,8.96484375 117.269531,8.703125 117.269531,8.1796875 L117.269531,5.90625 L114.667969,5.90625 L114.667969,11.6601562 L112.980469,11.6601562 L112.980469,5.90625 L110.660156,5.90625 L110.660156,10.4179688 Z" id="路径" fill-rule="nonzero"></path>
                <path d="M127.078125,4.3359375 L131.285156,4.3359375 C131.285156,5.9609375 131.238281,7.6328125 131.144531,9.3515625 C131.089844,10.6484375 130.5,11.3359375 129.375,11.4140625 C128.953125,11.4453125 128.453125,11.46875 127.875,11.484375 C127.820312,11.0234375 127.722656,10.4804688 127.582031,9.85546875 C127.136719,10.4960938 126.613281,11.0742188 126.011719,11.5898438 C125.566406,11.2460938 125.09375,10.9101562 124.59375,10.5820312 C126.296875,9.28515625 127.347656,7.671875 127.746094,5.7421875 L126.796875,5.7421875 C126.367188,7.3203125 125.636719,8.58203125 124.605469,9.52734375 C124.417969,9.36328125 124.234375,9.20703125 124.054688,9.05859375 C124.046875,9.32421875 124.046875,9.61328125 124.054688,9.92578125 C122.671875,10.2070312 121.414062,10.4804688 120.28125,10.7460938 L119.976562,9.0703125 C120.429688,8.9921875 120.886719,8.91015625 121.347656,8.82421875 L121.347656,4.6875 L120.09375,4.6875 L120.09375,3.08203125 L121.347656,3.08203125 L121.347656,0.1171875 L122.90625,0.1171875 L122.90625,3.08203125 L124.019531,3.08203125 L124.019531,4.6875 L122.90625,4.6875 L122.90625,8.51953125 C123.09375,8.48046875 123.277344,8.44140625 123.457031,8.40234375 C124.324219,7.71484375 124.941406,6.828125 125.308594,5.7421875 L124.265625,5.7421875 L124.265625,4.34765625 L127.757812,2.0859375 L124.253906,2.0859375 L124.253906,0.6796875 L130.511719,0.6796875 L130.511719,2.02734375 L127.078125,4.3359375 Z M128.625,9.84375 C129.273438,9.84375 129.617188,9.56640625 129.65625,9.01171875 C129.726562,8.20703125 129.777344,7.1171875 129.808594,5.7421875 L129.199219,5.7421875 C128.910156,7.3125 128.382812,8.66796875 127.617188,9.80859375 C127.984375,9.83203125 128.320312,9.84375 128.625,9.84375 Z" id="形状" fill-rule="nonzero"></path>
                <path d="M134.25,0.140625 L135.902344,0.59765625 C135.625,1.50390625 135.308594,2.375 134.953125,3.2109375 L134.953125,11.5546875 L133.359375,11.5546875 L133.359375,6.28710938 C133.089844,6.72070312 132.808594,7.140625 132.515625,7.546875 C132.421875,7.0625 132.253906,6.35546875 132.011719,5.42578125 C132.964844,3.87890625 133.710938,2.1171875 134.25,0.140625 Z M141.199219,0.33984375 C141.714844,1.91015625 142.53125,3.18359375 143.648438,4.16015625 L142.957031,5.94140625 C142.792969,5.79296875 142.634766,5.640625 142.482422,5.484375 L142.318359,9.54492188 C142.291016,10.0878906 142.154297,10.5078125 141.908203,10.8046875 C141.662109,11.1015625 141.367188,11.2773438 141.023438,11.3320312 C140.679688,11.3867188 139.988281,11.4140625 138.949219,11.4140625 C138.824219,10.7734375 138.691406,10.2109375 138.550781,9.7265625 C139.066406,9.765625 139.470703,9.78515625 139.763672,9.78515625 C140.080078,9.78515625 140.3125,9.72851562 140.460938,9.61523438 C140.609375,9.50195312 140.689453,9.17578125 140.701172,8.63671875 L140.765625,6.12890625 L138.966797,6.12890625 C138.962891,8.66796875 138.078125,10.5 136.3125,11.625 C136.0625,11.3046875 135.671875,10.8945312 135.140625,10.3945312 C136.574219,9.55859375 137.291016,8.13671875 137.291016,6.12890625 L136.558594,6.12890625 L136.558594,5.4375 C136.363281,5.65234375 136.160156,5.859375 135.949219,6.05859375 C135.761719,5.58203125 135.519531,5.0234375 135.222656,4.3828125 C136.316406,3.375 137.117188,2.01953125 137.625,0.31640625 L139.148438,0.71484375 C138.742188,2.18359375 138.09375,3.5 137.203125,4.6640625 L141.75,4.6640625 C140.789062,3.484375 140.113281,2.16796875 139.722656,0.71484375 L141.199219,0.33984375 Z" id="形状" fill-rule="nonzero"></path>
                <path d="M144.222656,3.0234375 L144.222656,1.0546875 L146.208984,1.0546875 C146.126953,0.80859375 146.035156,0.55078125 145.933594,0.28125 L147.574219,0.03515625 L147.902344,1.0546875 L149.648438,1.0546875 L149.648438,0.48046875 L155.53125,0.48046875 L155.53125,1.88671875 L153.123047,1.88671875 C153.076172,2.25 153.025391,2.5859375 152.970703,2.89453125 L155.203125,2.89453125 L155.203125,8.90625 L153.820312,8.90625 L153.820312,4.2421875 L151.242188,4.2421875 L151.242188,8.90625 L149.859375,8.90625 L149.859375,2.89453125 L151.453125,2.89453125 C151.503906,2.5703125 151.550781,2.234375 151.59375,1.88671875 L149.671875,1.88671875 L149.671875,2.8359375 L148.441406,2.8359375 L148.441406,2.19140625 L145.453125,2.19140625 L145.453125,3.0234375 L144.222656,3.0234375 Z M144.832031,11.4609375 L144.832031,7.70507812 C144.714844,7.74023438 144.597656,7.7734375 144.480469,7.8046875 C144.324219,7.375 144.164062,6.99609375 144,6.66796875 C144.789062,6.45703125 145.46875,6.18359375 146.039062,5.84765625 L145.453125,5.5546875 L146.121094,4.640625 L147.052734,5.07421875 C147.337891,4.79296875 147.578125,4.484375 147.773438,4.1484375 L146.244141,4.1484375 C145.935547,4.62890625 145.589844,5.078125 145.207031,5.49609375 C144.949219,5.31640625 144.582031,5.1015625 144.105469,4.8515625 C144.941406,4 145.515625,3.125 145.828125,2.2265625 L147.035156,2.68359375 C146.984375,2.80078125 146.931641,2.9140625 146.876953,3.0234375 L149.308594,3.0234375 L149.308594,4.125 C149.03125,4.69921875 148.6875,5.21484375 148.277344,5.671875 C148.792969,5.93359375 149.3125,6.20703125 149.835938,6.4921875 L149.214844,7.62890625 L149.191406,7.6171875 L149.191406,10.4648438 C150.265625,10.0820312 150.979492,9.61914062 151.333008,9.07617188 C151.686523,8.53320312 151.863281,7.6328125 151.863281,6.375 L151.863281,4.640625 L153.246094,4.640625 L153.246094,6.5390625 C153.246094,7.28125 153.183594,7.93164062 153.058594,8.49023438 C154.039062,9.13476562 154.902344,9.734375 155.648438,10.2890625 L154.816406,11.6953125 C154.175781,11.1289062 153.416016,10.5058594 152.537109,9.82617188 C152.029297,10.6191406 151.160156,11.2382812 149.929688,11.6835938 C149.695312,11.2890625 149.449219,10.9355469 149.191406,10.6230469 L149.191406,11.3789062 L147.832031,11.3789062 L147.832031,10.9921875 L146.191406,10.9921875 L146.191406,11.4609375 L144.832031,11.4609375 Z M145.699219,7.40625 L148.839844,7.40625 C148.316406,7.09765625 147.806641,6.80664062 147.310547,6.53320312 C146.833984,6.87304688 146.296875,7.1640625 145.699219,7.40625 Z M147.832031,8.68359375 L146.191406,8.68359375 L146.191406,9.71484375 L147.832031,9.71484375 L147.832031,8.68359375 Z" id="形状" fill-rule="nonzero"></path>
                <path d="M167.080078,0.09375 C165.357422,1.49609375 164.496094,3.37695312 164.496094,5.73632812 C164.496094,6.93945312 164.691406,7.99902344 165.082031,8.91503906 C165.472656,9.83105469 166.138672,10.7382812 167.080078,11.6367188 L162.714844,11.6367188 L162.714844,0.09375 L167.080078,0.09375 Z" id="路径" fill-rule="nonzero"></path>
                <path d="M176.748047,10.0605469 L174.638672,10.0605469 L173.958984,7.98046875 L170.660156,7.98046875 L169.992188,10.0605469 L167.894531,10.0605469 L171.216797,0.984375 L173.490234,0.984375 L176.748047,10.0605469 Z M173.501953,6.48632812 L172.470703,3.33984375 C172.404297,3.140625 172.357422,2.87695312 172.330078,2.54882812 L172.277344,2.54882812 C172.253906,2.81445312 172.201172,3.0703125 172.119141,3.31640625 L171.082031,6.48632812 L173.501953,6.48632812 Z" id="形状" fill-rule="nonzero"></path>
                <path d="M177.046875,2.00390625 L178.347656,2.00390625 L178.347656,0.09375 L179.835938,0.09375 L179.835938,2.00390625 L180.960938,2.00390625 L180.960938,3.45703125 L179.835938,3.45703125 L179.835938,5.27929688 L180.972656,4.96875 C180.964844,5.5859375 180.96875,6.109375 180.984375,6.5390625 C180.847656,6.57421875 180.464844,6.68554688 179.835938,6.87304688 L179.835938,10.1132812 C179.835938,10.546875 179.750977,10.8789062 179.581055,11.109375 C179.411133,11.3398438 179.166992,11.4726562 178.848633,11.5078125 C178.530273,11.5429688 178.058594,11.5664062 177.433594,11.578125 C177.355469,11.109375 177.257812,10.6015625 177.140625,10.0546875 C177.617188,10.0664062 177.9375,10.0634766 178.101562,10.0458984 C178.265625,10.0283203 178.347656,9.890625 178.347656,9.6328125 L178.347656,7.31835938 L177.140625,7.67578125 L177.011719,5.953125 C177.445312,5.86328125 177.890625,5.76367188 178.347656,5.65429688 L178.347656,3.45703125 L177.046875,3.45703125 L177.046875,2.00390625 Z M187.171875,2.0390625 C187.640625,2.2890625 188.125,2.48828125 188.625,2.63671875 C188.429688,3.69140625 188.167969,4.31640625 187.839844,4.51171875 C187.511719,4.70703125 187.109375,4.8046875 186.632812,4.8046875 L183.046875,4.8046875 C181.90625,4.8046875 181.335938,4.21484375 181.335938,3.03515625 L181.335938,0.140625 L182.894531,0.140625 L182.894531,1.3828125 C184.601562,1.15625 186.285156,0.81640625 187.945312,0.36328125 L188.484375,1.7578125 C186.808594,2.12890625 184.945312,2.43359375 182.894531,2.671875 L182.894531,2.77734375 C182.894531,3.22265625 183.15625,3.4453125 183.679688,3.4453125 L186.269531,3.4453125 C186.65625,3.4453125 186.892578,3.33007812 186.978516,3.09960938 C187.064453,2.86914062 187.128906,2.515625 187.171875,2.0390625 Z M181.464844,11.625 L181.464844,5.5078125 L188.144531,5.5078125 L188.144531,11.6015625 L186.597656,11.6015625 L186.597656,11.015625 L183.011719,11.015625 L183.011719,11.625 L181.464844,11.625 Z M186.597656,6.84375 L183.011719,6.84375 L183.011719,7.6171875 L186.597656,7.6171875 L186.597656,6.84375 Z M183.011719,9.6796875 L186.597656,9.6796875 L186.597656,8.90625 L183.011719,8.90625 L183.011719,9.6796875 Z" id="形状" fill-rule="nonzero"></path>
                <path d="M188.976562,6.8671875 C189.578125,5.82421875 190.023438,4.76953125 190.3125,3.703125 L189.058594,3.703125 L189.058594,2.16796875 L190.40625,2.16796875 L190.40625,0.1171875 L191.847656,0.1171875 L191.847656,2.16796875 L192.972656,2.16796875 L192.972656,3.703125 L191.847656,3.703125 L191.847656,5.05664062 C192.351562,5.33789062 192.832031,5.61328125 193.289062,5.8828125 L192.5625,7.20703125 C192.398438,7.06640625 192.160156,6.890625 191.847656,6.6796875 L191.847656,11.6367188 L190.40625,11.6367188 L190.40625,6.80859375 C190.109375,7.57421875 189.757812,8.30859375 189.351562,9.01171875 C189.21875,8.19921875 189.09375,7.484375 188.976562,6.8671875 Z M193.476562,0.7265625 L200.097656,0.7265625 L200.097656,2.25 L193.476562,2.25 L193.476562,0.7265625 Z M193.007812,3.65625 L200.542969,3.65625 L200.542969,5.1796875 L197.589844,5.1796875 L197.589844,10.1953125 C197.589844,10.6132812 197.474609,10.9345703 197.244141,11.1591797 C197.013672,11.3837891 196.682617,11.5097656 196.250977,11.5371094 C195.819336,11.5644531 195.230469,11.578125 194.484375,11.578125 C194.375,10.9453125 194.269531,10.4023438 194.167969,9.94921875 C194.582031,9.98828125 194.953125,10.0078125 195.28125,10.0078125 C195.734375,10.0078125 195.960938,9.796875 195.960938,9.375 L195.960938,5.1796875 L193.007812,5.1796875 L193.007812,3.65625 Z M193.945312,5.91796875 L195.339844,6.31640625 C194.863281,7.83203125 194.375,9.140625 193.875,10.2421875 C193.382812,9.9921875 192.921875,9.8046875 192.492188,9.6796875 C193.007812,8.625 193.492188,7.37109375 193.945312,5.91796875 Z M199.300781,6.01171875 C199.792969,7.19140625 200.265625,8.4296875 200.71875,9.7265625 L199.277344,10.2773438 C198.824219,8.89453125 198.367188,7.640625 197.90625,6.515625 L199.300781,6.01171875 Z" id="形状" fill-rule="nonzero"></path>
                <path d="M201.591797,0.09375 L205.957031,0.09375 L205.957031,11.625 L201.591797,11.625 C202.220703,11.03125 202.743164,10.3945312 203.15918,9.71484375 C203.575195,9.03515625 203.849609,8.38671875 203.982422,7.76953125 C204.115234,7.15234375 204.181641,6.48046875 204.181641,5.75390625 C204.181641,3.3828125 203.318359,1.49609375 201.591797,0.09375 Z" id="路径" fill-rule="nonzero"></path>
                <path d="M215.34375,0.140625 L216.902344,0.6328125 C216.65625,1.37109375 216.398438,2.07617188 216.128906,2.74804688 L216.128906,11.5546875 L214.5,11.5546875 L214.5,6.1875 C214.1875,6.7421875 213.863281,7.265625 213.527344,7.7578125 C213.402344,7.171875 213.234375,6.453125 213.023438,5.6015625 C213.859375,4.2265625 214.632812,2.40625 215.34375,0.140625 Z M224.566406,3.80859375 L221.496094,3.80859375 L221.496094,5.6484375 L223.96875,5.6484375 L223.96875,11.4960938 L222.328125,11.4960938 L222.328125,10.8632812 L219.011719,10.8632812 L219.011719,11.5195312 L217.371094,11.5195312 L217.371094,5.6484375 L219.761719,5.6484375 L219.761719,3.80859375 L216.84375,3.80859375 L216.84375,2.296875 L219.761719,2.296875 L219.761719,0.1875 L221.496094,0.1875 L221.496094,2.296875 L224.566406,2.296875 L224.566406,3.80859375 Z M222.328125,7.16015625 L219.011719,7.16015625 L219.011719,9.3515625 L222.328125,9.3515625 L222.328125,7.16015625 Z" id="形状" fill-rule="nonzero"></path>
                <path d="M225.035156,8.75390625 L227.800781,8.75390625 C227.835938,8.5703125 227.859375,8.37890625 227.871094,8.1796875 L226.171875,8.1796875 L226.171875,3.13476562 C226.003906,3.27539062 225.832031,3.41015625 225.65625,3.5390625 C225.523438,3.1328125 225.300781,2.6640625 224.988281,2.1328125 C225.769531,1.625 226.421875,0.9296875 226.945312,0.046875 L228.609375,0.046875 C228.460938,0.3203125 228.306641,0.58203125 228.146484,0.83203125 L230.683594,0.83203125 L230.683594,1.84570313 C231.246094,1.33789062 231.675781,0.734375 231.972656,0.03515625 L233.507812,0.03515625 C233.410156,0.3125 233.304688,0.578125 233.191406,0.83203125 L236.496094,0.83203125 L236.496094,1.91015625 L234.855469,1.91015625 L235.183594,2.61328125 L233.730469,2.90625 L235.570312,2.90625 L235.570312,8.1796875 L234.046875,8.1796875 L234.046875,8.75390625 L236.660156,8.75390625 L236.660156,9.87890625 L234.046875,9.87890625 L234.046875,11.578125 L232.5,11.578125 L232.5,9.87890625 L229.125,9.87890625 C228.835938,10.6679688 228.277344,11.2890625 227.449219,11.7421875 C226.957031,11.390625 226.453125,11.0703125 225.9375,10.78125 C226.5,10.5625 226.943359,10.2617188 227.267578,9.87890625 L225.035156,9.87890625 L225.035156,8.75390625 Z M229.675781,2.61328125 L228.222656,2.90625 L231.445312,2.90625 C231.050781,2.66015625 230.636719,2.43359375 230.203125,2.2265625 C230.34375,2.125 230.476562,2.01953125 230.601562,1.91015625 L229.353516,1.91015625 C229.466797,2.1484375 229.574219,2.3828125 229.675781,2.61328125 Z M231.773438,2.90625 L233.666016,2.90625 C233.541016,2.54296875 233.404297,2.2109375 233.255859,1.91015625 L232.59375,1.91015625 C232.347656,2.2734375 232.074219,2.60546875 231.773438,2.90625 Z M226.423828,2.90625 L228.158203,2.90625 C228.080078,2.63671875 227.958984,2.3046875 227.794922,1.91015625 L227.367188,1.91015625 C227.070312,2.26953125 226.755859,2.6015625 226.423828,2.90625 Z M234.035156,3.8671875 L227.707031,3.8671875 L227.707031,4.453125 L234.035156,4.453125 L234.035156,3.8671875 Z M227.707031,5.8359375 L234.035156,5.8359375 L234.035156,5.25 L227.707031,5.25 L227.707031,5.8359375 Z M234.035156,7.21875 L234.035156,6.6328125 L227.707031,6.6328125 L227.707031,7.21875 L234.035156,7.21875 Z M229.359375,8.75390625 L232.5,8.75390625 L232.5,8.1796875 L229.400391,8.1796875 C229.396484,8.36328125 229.382812,8.5546875 229.359375,8.75390625 Z" id="形状" fill-rule="nonzero"></path>
                <path d="M241.605469,4.1953125 L244.066406,4.1953125 L244.066406,2.91796875 L241.482422,2.91796875 L241.875,3.10546875 C240.90625,4.58203125 240.074219,5.78515625 239.378906,6.71484375 C239.941406,6.64453125 240.542969,6.578125 241.183594,6.515625 C241.136719,7.046875 241.105469,7.53125 241.089844,7.96875 C239.378906,8.15625 238.214844,8.33203125 237.597656,8.49609375 L237.140625,7.18359375 C237.636719,6.74609375 238.226562,6.01953125 238.910156,5.00390625 C238.324219,5.046875 237.816406,5.09765625 237.386719,5.15625 L236.953125,3.8203125 C237.570312,3.0625 238.246094,1.7890625 238.980469,0 L240.527344,0.57421875 C239.910156,1.73046875 239.300781,2.76953125 238.699219,3.69140625 L239.777344,3.63867188 L240.480469,2.4375 L241.253906,2.80664063 L241.253906,1.5234375 L244.066406,1.5234375 L244.066406,0.046875 L245.707031,0.046875 L245.707031,1.5234375 L248.636719,1.5234375 L248.636719,2.91796875 L245.707031,2.91796875 L245.707031,4.1953125 L248.285156,4.1953125 L248.285156,5.58984375 L241.605469,5.58984375 L241.605469,4.1953125 Z M241.710938,11.6367188 L241.710938,6.59765625 L248.144531,6.59765625 L248.144531,11.6367188 L246.574219,11.6367188 L246.574219,10.9453125 L243.28125,10.9453125 L243.28125,11.6367188 L241.710938,11.6367188 Z M246.574219,8.02734375 L243.28125,8.02734375 L243.28125,9.515625 L246.574219,9.515625 L246.574219,8.02734375 Z M237.28125,11.0273438 L237.023438,9.38671875 C238.375,9.21484375 239.820312,9.01171875 241.359375,8.77734375 C241.3125,9.43359375 241.292969,9.9765625 241.300781,10.40625 C239.910156,10.6015625 238.570312,10.8085938 237.28125,11.0273438 Z" id="形状" fill-rule="nonzero"></path>
                <path d="M249.269531,6.7734375 L254.074219,6.7734375 L254.074219,5.9765625 L250.324219,5.9765625 L250.324219,0.515625 L259.417969,0.515625 L259.417969,5.9765625 L255.667969,5.9765625 L255.667969,6.7734375 L260.4375,6.7734375 L260.4375,8.2265625 L256.716797,8.2265625 C257.966797,9.0078125 259.304688,9.5078125 260.730469,9.7265625 C260.433594,10.3125 260.207031,10.8359375 260.050781,11.296875 C258.226562,10.75 256.765625,9.92382812 255.667969,8.81835938 L255.667969,11.6367188 L254.074219,11.6367188 L254.074219,8.90625 C253.078125,9.890625 251.699219,10.7070312 249.9375,11.3554688 C249.695312,10.8867188 249.425781,10.3984375 249.128906,9.890625 C250.792969,9.5234375 252.117188,8.96875 253.101562,8.2265625 L249.269531,8.2265625 L249.269531,6.7734375 Z M257.847656,1.78125 L255.667969,1.78125 L255.667969,2.61328125 L257.847656,2.61328125 L257.847656,1.78125 Z M251.894531,2.61328125 L254.074219,2.61328125 L254.074219,1.78125 L251.894531,1.78125 L251.894531,2.61328125 Z M257.847656,4.7109375 L257.847656,3.87890625 L255.667969,3.87890625 L255.667969,4.7109375 L257.847656,4.7109375 Z M251.894531,4.7109375 L254.074219,4.7109375 L254.074219,3.87890625 L251.894531,3.87890625 L251.894531,4.7109375 Z" id="形状" fill-rule="nonzero"></path>
                <path d="M7.27148438,25.3789062 L1.30078125,25.3789062 L1.30078125,24.4941406 L7.27148438,24.4941406 L7.27148438,25.3789062 Z M7.27148438,28.0859375 L1.30078125,28.0859375 L1.30078125,27.2011719 L7.27148438,27.2011719 L7.27148438,28.0859375 Z" id="形状" fill-rule="nonzero"></path>
                <polygon id="路径" fill-rule="nonzero" points="16.4238281 33.03125 9.046875 33.03125 9.046875 32.4628906 13.2773438 26.9492188 9.27539062 21.6230469 9.27539062 20.984375 16.1777344 20.984375 16.1777344 22.0390625 10.9804688 22.0390625 14.6660156 26.9199219 10.78125 31.9824219 16.4238281 31.9824219"></polygon>
                <path d="M35.1972656,30.2539062 L36.7792969,30.2539062 L36.7792969,25.7070312 L37.7519531,25.7070312 L37.7519531,30.2539062 L40.1777344,30.2539062 L40.1777344,23.703125 L41.1503906,23.703125 L41.1503906,26.2929688 L44.7246094,26.2929688 L44.7246094,27.1484375 L41.1503906,27.1484375 L41.1503906,30.2539062 L45.8378906,30.2539062 L45.8378906,31.1210938 L35.1972656,31.1210938 L35.1972656,30.2539062 Z M41.3964844,20.1992188 L41.1621094,20.515625 C42.3808594,22.125 44.1113281,23.375 46.3535156,24.265625 C46.1816406,24.515625 45.9667969,24.8515625 45.7089844,25.2734375 C43.5761719,24.203125 41.8574219,22.859375 40.5527344,21.2421875 C39.3261719,22.828125 37.5566406,24.265625 35.2441406,25.5546875 C35.0410156,25.2578125 34.8144531,24.9375 34.5644531,24.59375 C36.9472656,23.5078125 38.8027344,22.0429688 40.1308594,20.1992188 L41.3964844,20.1992188 Z" id="形状" fill-rule="nonzero"></path>
                <path d="M46.7285156,29.9726562 L50.4902344,29.9726562 L50.4902344,20.2929688 L51.4746094,20.2929688 L51.4746094,29.9726562 L53.5253906,29.9726562 L53.5253906,20.2929688 L54.5097656,20.2929688 L54.5097656,29.9726562 L58.3066406,29.9726562 L58.3066406,30.8398438 L46.7285156,30.8398438 L46.7285156,29.9726562 Z M48.0878906,22.5898438 C48.7285156,24.0976562 49.3496094,25.6992188 49.9511719,27.3945312 L48.9902344,27.828125 C48.4667969,26.1796875 47.8808594,24.5585938 47.2324219,22.9648438 L48.0878906,22.5898438 Z M54.9316406,27.5 C55.7128906,25.84375 56.3691406,24.2421875 56.9003906,22.6953125 L57.8496094,23.0703125 C57.1230469,24.9375 56.4316406,26.5429688 55.7753906,27.8867188 L54.9316406,27.5 Z" id="形状" fill-rule="nonzero"></path>
                <path d="M69.3398438,20.1289062 C68.7695312,20.5625 68.1777344,21.2431641 67.5644531,22.1708984 C66.9511719,23.0986328 66.6445312,24.2734375 66.6445312,25.6953125 C66.6445312,27.9140625 67.5078125,29.8867188 69.234375,31.6132812 L65.2734375,31.6132812 L65.2734375,20.1289062 L69.3398438,20.1289062 Z" id="路径" fill-rule="nonzero"></path>
                <path d="M78.8085938,30.0605469 L77.5136719,30.0605469 L76.5878906,27.5761719 L72.8085938,27.5761719 L71.9355469,30.0605469 L70.640625,30.0605469 L74.0976562,20.984375 L75.3515625,20.984375 L78.8085938,30.0605469 Z M76.2246094,26.5507812 L74.8535156,22.7773438 C74.8105469,22.65625 74.7636719,22.4453125 74.7128906,22.1445312 L74.6835938,22.1445312 C74.640625,22.4179688 74.5917969,22.6289062 74.5371094,22.7773438 L73.1777344,26.5507812 L76.2246094,26.5507812 Z" id="形状" fill-rule="nonzero"></path>
                <path d="M83.7421875,25.71875 L89.9296875,25.71875 L89.9296875,31.6015625 L89.0390625,31.6015625 L89.0390625,30.8867188 L84.6328125,30.8867188 L84.6328125,31.6015625 L83.7421875,31.6015625 L83.7421875,25.71875 Z M79.1132812,26.3515625 C79.6914062,26.2148438 80.2460938,26.0800781 80.7773438,25.9472656 L80.7773438,23.2226562 L79.21875,23.2226562 L79.21875,22.3789062 L80.7773438,22.3789062 L80.7773438,20.1054688 L81.65625,20.1054688 L81.65625,22.3789062 L83.1679688,22.3789062 L83.1679688,23.2226562 L81.65625,23.2226562 L81.65625,25.7128906 C82.0742188,25.5996094 82.4765625,25.484375 82.8632812,25.3671875 C82.8789062,25.7265625 82.90625,26.03125 82.9453125,26.28125 C82.5,26.40625 82.0703125,26.5273438 81.65625,26.6445312 L81.65625,30.171875 C81.65625,31.0390625 81.2695312,31.4765625 80.4960938,31.484375 C80.2070312,31.4921875 79.828125,31.484375 79.359375,31.4609375 C79.328125,31.1484375 79.2773438,30.8398438 79.2070312,30.5351562 C79.6367188,30.5898438 79.984375,30.6171875 80.25,30.6171875 C80.6015625,30.6171875 80.7773438,30.421875 80.7773438,30.03125 L80.7773438,26.9023438 C80.2265625,27.0625 79.7109375,27.2148438 79.2304688,27.359375 L79.1132812,26.3515625 Z M83.625,20.0820312 L84.515625,20.0820312 L84.515625,21.8867188 C86.3828125,21.5351562 88.2382812,21.0820312 90.0820312,20.5273438 L90.3984375,21.359375 C88.875,21.8320312 86.9140625,22.2851562 84.515625,22.71875 L84.515625,23.1054688 C84.515625,23.6679688 84.8046875,23.9492188 85.3828125,23.9492188 L88.6171875,23.9492188 C89.1875,23.9492188 89.5273438,23.6992188 89.6367188,23.1992188 C89.7070312,22.9101562 89.7773438,22.515625 89.8476562,22.015625 C90.1289062,22.1328125 90.421875,22.2382812 90.7265625,22.3320312 C90.640625,22.8398438 90.5546875,23.25 90.46875,23.5625 C90.2890625,24.3515625 89.7265625,24.7460938 88.78125,24.7460938 L85.1132812,24.7460938 C84.1210938,24.7460938 83.625,24.21875 83.625,23.1640625 L83.625,20.0820312 Z M89.0390625,26.515625 L84.6328125,26.515625 L84.6328125,27.9335938 L89.0390625,27.9335938 L89.0390625,26.515625 Z M84.6328125,30.0898438 L89.0390625,30.0898438 L89.0390625,28.6835938 L84.6328125,28.6835938 L84.6328125,30.0898438 Z" id="形状" fill-rule="nonzero"></path>
                <path d="M91.0898438,27.4179688 C91.9570312,26.0820312 92.5507812,24.6835938 92.8710938,23.2226562 L91.171875,23.2226562 L91.171875,22.4257812 L92.953125,22.4257812 L92.953125,20.1289062 L93.7734375,20.1289062 L93.7734375,22.4257812 L95.3671875,22.4257812 L95.3671875,23.2226562 L93.7734375,23.2226562 L93.7734375,25.296875 L94.2773438,24.7695312 C94.7773438,25.1992188 95.21875,25.6132812 95.6015625,26.0117188 L94.9804688,26.65625 C94.6054688,26.2304688 94.203125,25.8007812 93.7734375,25.3671875 L93.7734375,31.5546875 L92.953125,31.5546875 L92.953125,25.2089844 C92.5390625,26.5527344 92.046875,27.6328125 91.4765625,28.4492188 C91.3671875,28.1132812 91.2382812,27.7695312 91.0898438,27.4179688 Z M95.3554688,24.2539062 L102.667969,24.2539062 L102.667969,25.0742188 L99.4335938,25.0742188 L99.4335938,29.9726562 C99.4335938,30.9492188 98.984375,31.4375 98.0859375,31.4375 C97.6640625,31.4453125 97.1445312,31.4414062 96.5273438,31.4257812 C96.4882812,31.1445312 96.4335938,30.8203125 96.3632812,30.453125 C96.9023438,30.515625 97.3945312,30.546875 97.8398438,30.546875 C98.3085938,30.546875 98.5429688,30.2578125 98.5429688,29.6796875 L98.5429688,25.0742188 L95.3554688,25.0742188 L95.3554688,24.2539062 Z M95.8945312,20.8203125 L102.128906,20.8203125 L102.128906,21.640625 L95.8945312,21.640625 L95.8945312,20.8203125 Z M100.207031,26.5859375 L101.039062,26.1875 C101.78125,27.609375 102.398438,28.8554688 102.890625,29.9257812 L101.953125,30.3359375 C101.445312,29.125 100.863281,27.875 100.207031,26.5859375 Z M96.4453125,26.1875 L97.3242188,26.5390625 C96.6835938,27.96875 96.046875,29.2382812 95.4140625,30.3476562 C95.171875,30.2070312 94.8867188,30.0703125 94.5585938,29.9375 C95.1835938,28.9296875 95.8125,27.6796875 96.4453125,26.1875 Z" id="形状" fill-rule="nonzero"></path>
                <path d="M104.138672,20.1289062 L108.193359,20.1289062 L108.193359,31.6132812 L104.244141,31.6132812 C104.783203,31.0664062 105.258789,30.4570312 105.670898,29.7851562 C106.083008,29.1132812 106.37793,28.4677734 106.555664,27.8486328 C106.733398,27.2294922 106.822266,26.5175781 106.822266,25.7128906 C106.822266,24.2792969 106.515625,23.0976562 105.902344,22.1679688 C105.289062,21.2382812 104.701172,20.5585938 104.138672,20.1289062 Z" id="路径" fill-rule="nonzero"></path>
                <polygon id="路径" fill-rule="nonzero" points="122.548828 28.484375 121.664062 29.3632812 119.525391 27.2070312 117.375 29.3632812 116.490234 28.4726562 118.646484 26.3457031 116.490234 24.1953125 117.357422 23.3105469 119.525391 25.4667969 121.6875 23.3105469 122.537109 24.2246094 120.398438 26.3457031"></polygon>
                <path d="M131.396484,28.4023438 C132.857422,27.6601562 134.083984,26.7734375 135.076172,25.7421875 C134.177734,25.8203125 133.369141,25.9023438 132.650391,25.9882812 C132.376953,26.0195312 132.099609,26.078125 131.818359,26.1640625 L131.384766,25.3085938 C131.650391,25.1601562 131.904297,24.9492188 132.146484,24.6757812 C132.611328,24.1132812 133.097656,23.4492188 133.605469,22.6835938 L131.314453,22.6835938 L131.314453,21.8398438 L135.246094,21.8398438 C134.910156,21.3320312 134.595703,20.8828125 134.302734,20.4921875 L135.064453,20.0117188 C135.361328,20.3789062 135.705078,20.828125 136.095703,21.359375 L135.375,21.8398438 L139.283203,21.8398438 L139.283203,22.6835938 L134.71875,22.6835938 C134.144531,23.5039062 133.544922,24.296875 132.919922,25.0625 C133.716797,25.0117188 134.691406,24.9453125 135.84375,24.8632812 C136.269531,24.3203125 136.638672,23.7421875 136.951172,23.1289062 L137.806641,23.5859375 C136.548828,25.8671875 134.634766,27.7109375 132.064453,29.1171875 C131.845703,28.875 131.623047,28.6367188 131.396484,28.4023438 Z M131.396484,30.8984375 C134.083984,29.7734375 136.283203,27.9453125 137.994141,25.4140625 L138.791016,25.953125 C138.142578,26.9023438 137.427734,27.7578125 136.646484,28.5195312 C137.541016,29.2226562 138.416016,29.9335938 139.271484,30.6523438 L138.556641,31.4140625 C137.833984,30.7226562 136.984375,29.9570312 136.007812,29.1171875 C134.816406,30.1601562 133.486328,31.0117188 132.017578,31.671875 C131.869141,31.4609375 131.662109,31.203125 131.396484,30.8984375 Z M131.279297,28.6132812 C131.310547,28.9726562 131.353516,29.3007812 131.408203,29.5976562 C130.923828,29.9726562 130.439453,30.359375 129.955078,30.7578125 C129.759766,30.9296875 129.583984,31.1054688 129.427734,31.2851562 L128.759766,30.546875 C129.001953,30.296875 129.123047,29.9296875 129.123047,29.4453125 L129.123047,24.8632812 L127.798828,24.8632812 L127.798828,24.0078125 L130.037109,24.0078125 L130.037109,29.6328125 C130.451172,29.296875 130.865234,28.9570312 131.279297,28.6132812 Z M129.041016,20.3164062 C129.697266,20.9726562 130.263672,21.5742188 130.740234,22.1210938 L129.978516,22.7773438 C129.416016,22.0898438 128.876953,21.4648438 128.361328,20.9023438 L129.041016,20.3164062 Z" id="形状" fill-rule="nonzero"></path>
                <path d="M144.064453,24.4765625 L151.482422,24.4765625 L151.482422,25.3554688 L149.208984,25.3554688 L149.208984,29.9375 C149.208984,30.90625 148.720703,31.390625 147.744141,31.390625 C147.087891,31.390625 146.419922,31.3867188 145.740234,31.3789062 C145.693359,31.0664062 145.634766,30.7148438 145.564453,30.3242188 C146.173828,30.3867188 146.787109,30.4179688 147.404297,30.4179688 C147.943359,30.4179688 148.212891,30.1523438 148.212891,29.6210938 L148.212891,25.3554688 L144.064453,25.3554688 L144.064453,24.4765625 Z M139.822266,27.1015625 C141.033203,26.109375 142.134766,24.7148438 143.126953,22.9179688 L143.947266,23.421875 C143.544922,24.1171875 143.119141,24.7675781 142.669922,25.3730469 L142.669922,31.578125 L141.697266,31.578125 L141.697266,26.5800781 C141.228516,27.1113281 140.740234,27.6015625 140.232422,28.0507812 C140.107422,27.7226562 139.970703,27.40625 139.822266,27.1015625 Z M144.744141,20.9375 L150.826172,20.9375 L150.826172,21.8164062 L144.744141,21.8164062 L144.744141,20.9375 Z M139.880859,23.3867188 C141.123047,22.4257812 142.123047,21.3085938 142.880859,20.0351562 L143.724609,20.5507812 C142.818359,21.9414062 141.693359,23.1875 140.349609,24.2890625 C140.208984,23.9921875 140.052734,23.6914062 139.880859,23.3867188 Z" id="形状" fill-rule="nonzero"></path>
                <path d="M151.857422,29.9726562 L155.619141,29.9726562 L155.619141,20.2929688 L156.603516,20.2929688 L156.603516,29.9726562 L158.654297,29.9726562 L158.654297,20.2929688 L159.638672,20.2929688 L159.638672,29.9726562 L163.435547,29.9726562 L163.435547,30.8398438 L151.857422,30.8398438 L151.857422,29.9726562 Z M153.216797,22.5898438 C153.857422,24.0976562 154.478516,25.6992188 155.080078,27.3945312 L154.119141,27.828125 C153.595703,26.1796875 153.009766,24.5585938 152.361328,22.9648438 L153.216797,22.5898438 Z M160.060547,27.5 C160.841797,25.84375 161.498047,24.2421875 162.029297,22.6953125 L162.978516,23.0703125 C162.251953,24.9375 161.560547,26.5429688 160.904297,27.8867188 L160.060547,27.5 Z" id="形状" fill-rule="nonzero"></path>
                <path d="M165.029297,24.7929688 L170.572266,24.7929688 C171.099609,24.015625 171.572266,23.2421875 171.990234,22.4726562 L172.892578,23.046875 C172.478516,23.6289062 172.044922,24.2109375 171.591797,24.7929688 L175.060547,24.7929688 L175.060547,25.6132812 L165.978516,25.6132812 L165.978516,26.4335938 C165.978516,27.8164062 165.873047,28.8476562 165.662109,29.5273438 C165.443359,30.2851562 165.029297,30.9960938 164.419922,31.6601562 C164.216797,31.4101562 164.005859,31.1445312 163.787109,30.8632812 C164.248047,30.3710938 164.572266,29.7929688 164.759766,29.1289062 C164.939453,28.4804688 165.029297,27.5820312 165.029297,26.4335938 L165.029297,24.7929688 Z M164.068359,21.4414062 L169.417969,21.4414062 C169.246094,21.1210938 169.056641,20.7929688 168.849609,20.4570312 L169.716797,20.0234375 C169.970703,20.4375 170.230469,20.9101562 170.496094,21.4414062 L175.365234,21.4414062 L175.365234,22.2734375 L164.068359,22.2734375 L164.068359,21.4414062 Z M166.517578,22.9414062 L167.291016,22.4257812 C167.775391,23.0351562 168.205078,23.6132812 168.580078,24.1601562 L167.748047,24.734375 C167.443359,24.21875 167.033203,23.6210938 166.517578,22.9414062 Z" id="形状" fill-rule="nonzero"></path>
                <path d="M177.591797,20.5976562 L185.677734,20.5976562 L185.677734,25.2382812 L184.740234,25.2382812 L184.740234,24.8632812 L178.529297,24.8632812 L178.529297,25.2382812 L177.591797,25.2382812 L177.591797,20.5976562 Z M182.361328,26.1992188 L186.837891,26.1992188 L186.837891,31.6132812 L185.947266,31.6132812 L185.947266,30.8164062 L183.251953,30.8164062 L183.251953,31.6132812 L182.361328,31.6132812 L182.361328,26.1992188 Z M176.443359,26.1992188 L180.908203,26.1992188 L180.908203,31.6132812 L180.017578,31.6132812 L180.017578,30.828125 L177.333984,30.828125 L177.333984,31.6132812 L176.443359,31.6132812 L176.443359,26.1992188 Z M184.740234,21.4179688 L178.529297,21.4179688 L178.529297,24.0429688 L184.740234,24.0429688 L184.740234,21.4179688 Z M185.947266,27.0195312 L183.251953,27.0195312 L183.251953,30.0546875 L185.947266,30.0546875 L185.947266,27.0195312 Z M180.017578,27.0195312 L177.333984,27.0195312 L177.333984,30.03125 L180.017578,30.03125 L180.017578,27.0195312 Z" id="形状" fill-rule="nonzero"></path>
                <path d="M189.251953,28.0742188 L198.017578,28.0742188 L198.017578,31.6484375 L197.126953,31.6484375 L197.126953,31.0625 L190.142578,31.0625 L190.142578,31.6484375 L189.251953,31.6484375 L189.251953,28.0742188 Z M190.095703,24.4648438 L197.173828,24.4648438 L197.173828,27.3945312 L196.283203,27.3945312 L196.283203,27.125 L190.986328,27.125 L190.986328,27.3945312 L190.095703,27.3945312 L190.095703,24.4648438 Z M195.017578,20.0703125 L195.873047,20.0703125 L195.873047,21.03125 L199.388672,21.03125 L199.388672,21.8046875 L195.873047,21.8046875 L195.873047,22.5078125 L195.017578,22.5078125 L195.017578,21.8046875 L192.240234,21.8046875 L192.240234,22.5078125 L191.384766,22.5078125 L191.384766,21.8046875 L187.916016,21.8046875 L187.916016,21.03125 L191.384766,21.03125 L191.384766,20.0703125 L192.240234,20.0703125 L192.240234,21.03125 L195.017578,21.03125 L195.017578,20.0703125 Z M188.267578,22.8242188 L199.001953,22.8242188 L199.001953,24.96875 L198.111328,24.96875 L198.111328,23.5976562 L189.158203,23.5976562 L189.158203,24.96875 L188.267578,24.96875 L188.267578,22.8242188 Z M197.126953,28.8007812 L190.142578,28.8007812 L190.142578,30.3359375 L197.126953,30.3359375 L197.126953,28.8007812 Z M196.283203,25.1914062 L190.986328,25.1914062 L190.986328,26.3984375 L196.283203,26.3984375 L196.283203,25.1914062 Z" id="形状" fill-rule="nonzero"></path>
                <path d="M199.857422,29.9726562 L203.619141,29.9726562 L203.619141,20.2929688 L204.603516,20.2929688 L204.603516,29.9726562 L206.654297,29.9726562 L206.654297,20.2929688 L207.638672,20.2929688 L207.638672,29.9726562 L211.435547,29.9726562 L211.435547,30.8398438 L199.857422,30.8398438 L199.857422,29.9726562 Z M201.216797,22.5898438 C201.857422,24.0976562 202.478516,25.6992188 203.080078,27.3945312 L202.119141,27.828125 C201.595703,26.1796875 201.009766,24.5585938 200.361328,22.9648438 L201.216797,22.5898438 Z M208.060547,27.5 C208.841797,25.84375 209.498047,24.2421875 210.029297,22.6953125 L210.978516,23.0703125 C210.251953,24.9375 209.560547,26.5429688 208.904297,27.8867188 L208.060547,27.5 Z" id="形状" fill-rule="nonzero"></path>
                <path d="M215.841797,25.0742188 C216.841797,23.3398438 217.564453,21.6640625 218.009766,20.046875 L218.958984,20.3164062 C218.708984,21.0390625 218.447266,21.7304688 218.173828,22.390625 L223.283203,22.390625 L223.283203,23.2578125 L221.90625,23.2578125 C221.789062,25.5195312 221.208984,27.3613281 220.166016,28.7832031 C220.958984,29.4863281 222.083984,30.0976562 223.541016,30.6171875 C223.298828,30.921875 223.076172,31.234375 222.873047,31.5546875 C221.482422,30.9609375 220.373047,30.2753906 219.544922,29.4980469 C218.791016,30.2402344 217.748047,30.9609375 216.416016,31.6601562 C216.251953,31.4023438 216.052734,31.140625 215.818359,30.875 C217.150391,30.2070312 218.179688,29.515625 218.90625,28.8007812 C218.003906,27.671875 217.419922,26.2695312 217.154297,24.59375 C216.935547,25.0195312 216.708984,25.4296875 216.474609,25.8242188 C216.326172,25.5976562 216.115234,25.3476562 215.841797,25.0742188 Z M214.787109,20.140625 L215.677734,20.140625 L215.677734,31.5898438 L214.787109,31.5898438 L214.787109,27.9746094 C214.310547,28.2402344 213.826172,28.5351562 213.333984,28.859375 C213.130859,29.0078125 212.931641,29.1835938 212.736328,29.3867188 L212.068359,28.6015625 C212.310547,28.34375 212.431641,28.0078125 212.431641,27.59375 L212.431641,21.78125 L213.322266,21.78125 L213.322266,27.78125 C213.787109,27.5351562 214.275391,27.2734375 214.787109,26.9960938 L214.787109,20.140625 Z M220.980469,23.2578125 L217.863281,23.2578125 C217.976562,25.1640625 218.527344,26.7695312 219.515625,28.0742188 C220.40625,26.8203125 220.894531,25.2148438 220.980469,23.2578125 Z" id="形状" fill-rule="nonzero"></path>
                <path d="M227.068359,20.7851562 L227.841797,20.234375 C228.716797,20.7734375 229.677734,22.15625 230.724609,24.3828125 C232.185547,27.578125 233.771484,29.5273438 235.482422,30.2304688 L234.662109,31.2617188 C232.951172,30.2460938 231.369141,28.1054688 229.916016,24.8398438 C229.798828,24.578125 229.683594,24.328125 229.570312,24.0898438 C228.664062,27.1953125 226.978516,29.609375 224.513672,31.3320312 C224.302734,31.0195312 224.064453,30.7265625 223.798828,30.453125 C226.333984,28.8554688 228.041016,26.328125 228.919922,22.8710938 C228.306641,21.8476562 227.689453,21.1523438 227.068359,20.7851562 Z" id="路径" fill-rule="nonzero"></path>
                <path d="M237.251953,25.4960938 L240.837891,25.4960938 L240.837891,20.1992188 L241.798828,20.1992188 L241.798828,22.1679688 L247.166016,22.1679688 L247.166016,23.0351562 L241.798828,23.0351562 L241.798828,25.4960938 L245.994141,25.4960938 L245.994141,31.6367188 L245.056641,31.6367188 L245.056641,30.9101562 L238.189453,30.9101562 L238.189453,31.6601562 L237.251953,31.6601562 L237.251953,25.4960938 Z M245.056641,26.3398438 L238.189453,26.3398438 L238.189453,30.078125 L245.056641,30.078125 L245.056641,26.3398438 Z" id="形状" fill-rule="nonzero"></path>
                <path d="M253.681641,20.09375 L254.654297,20.09375 L254.654297,25.0507812 C256.173828,23.953125 257.423828,22.8046875 258.404297,21.6054688 L259.236328,22.2265625 C257.970703,23.6210938 256.443359,24.9472656 254.654297,26.2050781 L254.654297,29.5976562 C254.654297,30.1132812 254.880859,30.3710938 255.333984,30.3710938 L257.337891,30.3710938 C257.853516,30.3710938 258.150391,30.140625 258.228516,29.6796875 C258.322266,29.0859375 258.392578,28.4335938 258.439453,27.7226562 C258.767578,27.8476562 259.103516,27.9609375 259.447266,28.0625 C259.376953,28.7890625 259.283203,29.4414062 259.166016,30.0195312 C259.001953,30.8242188 258.482422,31.2265625 257.607422,31.2265625 L255.029297,31.2265625 C254.130859,31.2265625 253.681641,30.7382812 253.681641,29.7617188 L253.681641,20.09375 Z M249.626953,20.3984375 L249.626953,23.9140625 L252.931641,23.9140625 L252.931641,24.7929688 L249.626953,24.7929688 L249.626953,29.7734375 C250.439453,29.4296875 251.501953,28.9453125 252.814453,28.3203125 C252.814453,28.6875 252.830078,29.0390625 252.861328,29.375 C251.712891,29.8359375 250.740234,30.2695312 249.943359,30.6757812 C249.599609,30.8554688 249.283203,31.0703125 248.994141,31.3203125 L248.279297,30.40625 C248.529297,30.21875 248.654297,29.9335938 248.654297,29.5507812 L248.654297,20.3984375 L249.626953,20.3984375 Z" id="形状" fill-rule="nonzero"></path>
                <g id="企业在该行业市场份额" transform="translate(86.882812, 46.028821)" fill-rule="nonzero">
                    <path d="M0.6328125,10.3007812 L2.21484375,10.3007812 L2.21484375,5.75390625 L3.1875,5.75390625 L3.1875,10.3007812 L5.61328125,10.3007812 L5.61328125,3.75 L6.5859375,3.75 L6.5859375,6.33984375 L10.1601562,6.33984375 L10.1601562,7.1953125 L6.5859375,7.1953125 L6.5859375,10.3007812 L11.2734375,10.3007812 L11.2734375,11.1679688 L0.6328125,11.1679688 L0.6328125,10.3007812 Z M6.83203125,0.24609375 L6.59765625,0.5625 C7.81640625,2.171875 9.546875,3.421875 11.7890625,4.3125 C11.6171875,4.5625 11.4023438,4.8984375 11.1445312,5.3203125 C9.01171875,4.25 7.29296875,2.90625 5.98828125,1.2890625 C4.76171875,2.875 2.9921875,4.3125 0.6796875,5.6015625 C0.4765625,5.3046875 0.25,4.984375 0,4.640625 C2.3828125,3.5546875 4.23828125,2.08984375 5.56640625,0.24609375 L6.83203125,0.24609375 Z" id="形状"></path>
                    <path d="M12.1640625,10.0195312 L15.9257812,10.0195312 L15.9257812,0.33984375 L16.9101562,0.33984375 L16.9101562,10.0195312 L18.9609375,10.0195312 L18.9609375,0.33984375 L19.9453125,0.33984375 L19.9453125,10.0195312 L23.7421875,10.0195312 L23.7421875,10.8867188 L12.1640625,10.8867188 L12.1640625,10.0195312 Z M13.5234375,2.63671875 C14.1640625,4.14453125 14.7851562,5.74609375 15.3867188,7.44140625 L14.4257812,7.875 C13.9023438,6.2265625 13.3164062,4.60546875 12.6679688,3.01171875 L13.5234375,2.63671875 Z M20.3671875,7.546875 C21.1484375,5.890625 21.8046875,4.2890625 22.3359375,2.7421875 L23.2851562,3.1171875 C22.5585938,4.984375 21.8671875,6.58984375 21.2109375,7.93359375 L20.3671875,7.546875 Z" id="形状"></path>
                    <path d="M24.4101562,1.5703125 L27.8554688,1.5703125 C28.046875,1.09765625 28.21875,0.61328125 28.3710938,0.1171875 L29.34375,0.36328125 C29.2070312,0.7734375 29.0605469,1.17578125 28.9042969,1.5703125 L35.7070312,1.5703125 L35.7070312,2.4375 L28.5351562,2.4375 C28.0703125,3.48046875 27.5273438,4.46289062 26.90625,5.38476562 L26.90625,11.5898438 L25.9921875,11.5898438 L25.9921875,6.6328125 C25.5703125,7.16015625 25.1210938,7.6640625 24.6445312,8.14453125 C24.4804688,7.87109375 24.2929688,7.58984375 24.0820312,7.30078125 C25.5195312,5.80859375 26.6503906,4.1875 27.4746094,2.4375 L24.4101562,2.4375 L24.4101562,1.5703125 Z M27.3164062,9.90234375 L30.984375,9.90234375 L30.984375,6.3984375 L27.9375,6.3984375 L27.9375,5.5546875 L30.984375,5.5546875 L30.984375,3.19921875 L31.9453125,3.19921875 L31.9453125,5.5546875 L35.0390625,5.5546875 L35.0390625,6.3984375 L31.9453125,6.3984375 L31.9453125,9.90234375 L35.7070312,9.90234375 L35.7070312,10.7226562 L27.3164062,10.7226562 L27.3164062,9.90234375 Z" id="形状"></path>
                    <path d="M39.703125,8.44921875 C41.1640625,7.70703125 42.390625,6.8203125 43.3828125,5.7890625 C42.484375,5.8671875 41.6757812,5.94921875 40.9570312,6.03515625 C40.6835938,6.06640625 40.40625,6.125 40.125,6.2109375 L39.6914062,5.35546875 C39.9570312,5.20703125 40.2109375,4.99609375 40.453125,4.72265625 C40.9179688,4.16015625 41.4042969,3.49609375 41.9121094,2.73046875 L39.6210938,2.73046875 L39.6210938,1.88671875 L43.5527344,1.88671875 C43.2167969,1.37890625 42.9023438,0.9296875 42.609375,0.5390625 L43.3710938,0.05859375 C43.6679688,0.42578125 44.0117188,0.875 44.4023438,1.40625 L43.6816406,1.88671875 L47.5898438,1.88671875 L47.5898438,2.73046875 L43.0253906,2.73046875 C42.4511719,3.55078125 41.8515625,4.34375 41.2265625,5.109375 C42.0234375,5.05859375 42.9980469,4.9921875 44.1503906,4.91015625 C44.5761719,4.3671875 44.9453125,3.7890625 45.2578125,3.17578125 L46.1132812,3.6328125 C44.8554688,5.9140625 42.9414062,7.7578125 40.3710938,9.1640625 C40.1523438,8.921875 39.9296875,8.68359375 39.703125,8.44921875 Z M39.703125,10.9453125 C42.390625,9.8203125 44.5898438,7.9921875 46.3007812,5.4609375 L47.0976562,6 C46.4492188,6.94921875 45.734375,7.8046875 44.953125,8.56640625 C45.8476562,9.26953125 46.7226562,9.98046875 47.578125,10.6992188 L46.8632812,11.4609375 C46.140625,10.7695312 45.2910156,10.0039062 44.3144531,9.1640625 C43.1230469,10.2070312 41.7929688,11.0585938 40.3242188,11.71875 C40.1757812,11.5078125 39.96875,11.25 39.703125,10.9453125 Z M39.5859375,8.66015625 C39.6171875,9.01953125 39.6601562,9.34765625 39.7148438,9.64453125 C39.2304688,10.0195312 38.7460938,10.40625 38.2617188,10.8046875 C38.0664062,10.9765625 37.890625,11.1523438 37.734375,11.3320312 L37.0664062,10.59375 C37.3085938,10.34375 37.4296875,9.9765625 37.4296875,9.4921875 L37.4296875,4.91015625 L36.1054688,4.91015625 L36.1054688,4.0546875 L38.34375,4.0546875 L38.34375,9.6796875 C38.7578125,9.34375 39.171875,9.00390625 39.5859375,8.66015625 Z M37.3476562,0.36328125 C38.0039062,1.01953125 38.5703125,1.62109375 39.046875,2.16796875 L38.2851562,2.82421875 C37.7226562,2.13671875 37.1835938,1.51171875 36.6679688,0.94921875 L37.3476562,0.36328125 Z" id="形状"></path>
                    <path d="M52.3710938,4.5234375 L59.7890625,4.5234375 L59.7890625,5.40234375 L57.515625,5.40234375 L57.515625,9.984375 C57.515625,10.953125 57.0273438,11.4375 56.0507812,11.4375 C55.3945312,11.4375 54.7265625,11.4335938 54.046875,11.4257812 C54,11.1132812 53.9414062,10.7617188 53.8710938,10.3710938 C54.4804688,10.4335938 55.09375,10.4648438 55.7109375,10.4648438 C56.25,10.4648438 56.5195312,10.1992188 56.5195312,9.66796875 L56.5195312,5.40234375 L52.3710938,5.40234375 L52.3710938,4.5234375 Z M48.1289062,7.1484375 C49.3398438,6.15625 50.4414062,4.76171875 51.4335938,2.96484375 L52.2539062,3.46875 C51.8515625,4.1640625 51.4257812,4.81445312 50.9765625,5.41992188 L50.9765625,11.625 L50.0039062,11.625 L50.0039062,6.62695312 C49.5351562,7.15820312 49.046875,7.6484375 48.5390625,8.09765625 C48.4140625,7.76953125 48.2773438,7.453125 48.1289062,7.1484375 Z M53.0507812,0.984375 L59.1328125,0.984375 L59.1328125,1.86328125 L53.0507812,1.86328125 L53.0507812,0.984375 Z M48.1875,3.43359375 C49.4296875,2.47265625 50.4296875,1.35546875 51.1875,0.08203125 L52.03125,0.59765625 C51.125,1.98828125 50,3.234375 48.65625,4.3359375 C48.515625,4.0390625 48.359375,3.73828125 48.1875,3.43359375 Z" id="形状"></path>
                    <path d="M60.1640625,10.0195312 L63.9257812,10.0195312 L63.9257812,0.33984375 L64.9101562,0.33984375 L64.9101562,10.0195312 L66.9609375,10.0195312 L66.9609375,0.33984375 L67.9453125,0.33984375 L67.9453125,10.0195312 L71.7421875,10.0195312 L71.7421875,10.8867188 L60.1640625,10.8867188 L60.1640625,10.0195312 Z M61.5234375,2.63671875 C62.1640625,4.14453125 62.7851562,5.74609375 63.3867188,7.44140625 L62.4257812,7.875 C61.9023438,6.2265625 61.3164062,4.60546875 60.6679688,3.01171875 L61.5234375,2.63671875 Z M68.3671875,7.546875 C69.1484375,5.890625 69.8046875,4.2890625 70.3359375,2.7421875 L71.2851562,3.1171875 C70.5585938,4.984375 69.8671875,6.58984375 69.2109375,7.93359375 L68.3671875,7.546875 Z" id="形状"></path>
                    <path d="M74.203125,10.4648438 L73.2890625,10.4648438 L73.2890625,4.40625 L77.4726562,4.40625 L77.4726562,2.7890625 L72.2929688,2.7890625 L72.2929688,1.8984375 L77.7597656,1.8984375 C77.5175781,1.41015625 77.234375,0.91796875 76.9101562,0.421875 L77.8125,0 C78.1484375,0.4921875 78.4570312,0.99609375 78.7382812,1.51171875 L77.9648438,1.8984375 L83.6367188,1.8984375 L83.6367188,2.7890625 L78.4101562,2.7890625 L78.4101562,4.40625 L82.6640625,4.40625 L82.6640625,8.7890625 C82.6640625,9.7734375 82.1992188,10.265625 81.2695312,10.265625 C80.8398438,10.265625 80.28125,10.2578125 79.59375,10.2421875 C79.5546875,9.984375 79.5,9.671875 79.4296875,9.3046875 C80.078125,9.34375 80.5976562,9.36328125 80.9882812,9.36328125 C81.4960938,9.36328125 81.75,9.10546875 81.75,8.58984375 L81.75,5.2734375 L78.4101562,5.2734375 L78.4101562,11.6835938 L77.4726562,11.6835938 L77.4726562,5.2734375 L74.203125,5.2734375 L74.203125,10.4648438 Z" id="路径"></path>
                    <path d="M92.9414062,1.6875 L88.3710938,1.6875 L88.3710938,0.84375 L94.6054688,0.84375 L94.6054688,1.69921875 L89.9882812,4.6171875 L95.3085938,4.6171875 C95.2148438,6.78125 95.125,8.453125 95.0390625,9.6328125 C94.9375,10.828125 94.3867188,11.4257812 93.3867188,11.4257812 C93.0429688,11.4257812 92.515625,11.4140625 91.8046875,11.390625 C91.75,11 91.6835938,10.6601562 91.6054688,10.3710938 C92.1445312,10.4570312 92.6914062,10.5 93.2460938,10.5 C93.8007812,10.5 94.1054688,10.1679688 94.1601562,9.50390625 C94.2382812,8.52734375 94.3164062,7.1796875 94.3945312,5.4609375 L93.140625,5.4609375 C92.7929688,8.08984375 91.578125,10.171875 89.4960938,11.7070312 C89.2773438,11.4335938 89.0585938,11.1953125 88.8398438,10.9921875 C90.7773438,9.65234375 91.9199219,7.80859375 92.2675781,5.4609375 L90.7675781,5.4609375 C90.3183594,7.41796875 89.2070312,9.03125 87.4335938,10.3007812 C87.2460938,10.0742188 87.0429688,9.84765625 86.8242188,9.62109375 C88.4414062,8.515625 89.4648438,7.12890625 89.8945312,5.4609375 L88.5,5.4609375 L88.5,4.5703125 L92.9414062,1.6875 Z M84.1171875,8.7890625 C84.6835938,8.55859375 85.2539062,8.31835938 85.828125,8.06835938 L85.828125,4.01953125 L84.2578125,4.01953125 L84.2578125,3.17578125 L85.828125,3.17578125 L85.828125,0.24609375 L86.6953125,0.24609375 L86.6953125,3.17578125 L88.125,3.17578125 L88.125,4.01953125 L86.6953125,4.01953125 L86.6953125,7.68164062 C87.1328125,7.48242188 87.5742188,7.27734375 88.0195312,7.06640625 C88.0351562,7.39453125 88.0703125,7.6875 88.125,7.9453125 C86.984375,8.4609375 85.7695312,9.04296875 84.4804688,9.69140625 L84.1171875,8.7890625 Z" id="形状"></path>
                    <path d="M100.195312,5.1328125 L106.054688,5.1328125 C106.046875,5.2421875 105.988281,6.671875 105.878906,9.421875 C105.847656,10.765625 105.234375,11.4453125 104.039062,11.4609375 C103.398438,11.4609375 102.839844,11.4492188 102.363281,11.4257812 C102.324219,11.0664062 102.265625,10.7421875 102.1875,10.453125 C102.726562,10.5234375 103.269531,10.5664062 103.816406,10.5820312 C104.574219,10.6367188 104.957031,10.2148438 104.964844,9.31640625 C105.027344,8.26953125 105.074219,7.1484375 105.105469,5.953125 L102.46875,5.953125 C102.445312,7.1953125 102.257812,8.22265625 101.90625,9.03515625 C101.484375,9.96484375 100.757812,10.8359375 99.7265625,11.6484375 C99.5234375,11.3984375 99.296875,11.1445312 99.046875,10.8867188 C100.039062,10.1132812 100.699219,9.37109375 101.027344,8.66015625 C101.347656,8.03125 101.525391,7.12890625 101.560547,5.953125 L100.195312,5.953125 L100.195312,5.1328125 Z M96.0820312,5.6953125 C97.1992188,4.21875 98.1054688,2.38671875 98.8007812,0.19921875 L99.7148438,0.515625 C99.3359375,1.5546875 98.921875,2.52734375 98.4726562,3.43359375 L98.4726562,11.625 L97.5820312,11.625 L97.5820312,5.0625 C97.2226562,5.65625 96.8476562,6.21484375 96.4570312,6.73828125 C96.3398438,6.40234375 96.2148438,6.0546875 96.0820312,5.6953125 Z M103.453125,0.515625 L104.226562,0.1875 C105,2.171875 106.191406,3.62109375 107.800781,4.53515625 C107.503906,4.87890625 107.28125,5.1640625 107.132812,5.390625 C105.390625,4.1953125 104.164062,2.5703125 103.453125,0.515625 Z M98.9179688,4.96875 C100.136719,3.8984375 101.121094,2.46484375 101.871094,0.66796875 L102.703125,0.984375 C101.976562,2.8046875 100.949219,4.34765625 99.6210938,5.61328125 C99.3398438,5.32421875 99.1054688,5.109375 98.9179688,4.96875 Z" id="形状"></path>
                    <path d="M109.558594,5.44921875 L109.992188,4.79296875 C110.453125,5.01953125 110.890625,5.234375 111.304688,5.4375 C111.710938,5.0390625 112.054688,4.59375 112.335938,4.1015625 L110.050781,4.1015625 C109.636719,4.78125 109.195312,5.37890625 108.726562,5.89453125 C108.554688,5.70703125 108.371094,5.51953125 108.175781,5.33203125 C108.917969,4.55078125 109.527344,3.59765625 110.003906,2.47265625 L110.777344,2.73046875 C110.667969,2.96484375 110.554688,3.1875 110.4375,3.3984375 L113.273438,3.3984375 L113.273438,4.06640625 C112.953125,4.71484375 112.546875,5.296875 112.054688,5.8125 C112.734375,6.15625 113.359375,6.4765625 113.929688,6.7734375 L113.449219,7.53515625 C112.785156,7.15234375 112.105469,6.7734375 111.410156,6.3984375 C110.824219,6.875 110.144531,7.28515625 109.371094,7.62890625 L113.109375,7.62890625 L113.109375,11.390625 L112.335938,11.390625 L112.335938,10.8867188 L109.933594,10.8867188 L109.933594,11.484375 L109.160156,11.484375 L109.160156,7.72265625 C108.925781,7.81640625 108.6875,7.90625 108.445312,7.9921875 C108.34375,7.78125 108.214844,7.54296875 108.058594,7.27734375 C109.066406,6.95703125 109.929688,6.53125 110.648438,6 C110.289062,5.8203125 109.925781,5.63671875 109.558594,5.44921875 Z M114.257812,3.1171875 L115.96875,3.1171875 L116.238281,1.640625 L114.023438,1.640625 L114.023438,0.84375 L119.625,0.84375 L119.625,1.640625 L117.140625,1.640625 L116.824219,3.1171875 L119.261719,3.1171875 L119.261719,9 L118.441406,9 L118.441406,3.9140625 L115.078125,3.9140625 L115.078125,9 L114.257812,9 L114.257812,3.1171875 Z M116.34375,4.640625 L117.1875,4.640625 C117.203125,6.6328125 117.113281,8.01171875 116.917969,8.77734375 C118.042969,9.56640625 119.023438,10.2929688 119.859375,10.9570312 L119.273438,11.7070312 C118.515625,11.0195312 117.625,10.3046875 116.601562,9.5625 C116.117188,10.4453125 115.210938,11.1992188 113.882812,11.8242188 C113.726562,11.5976562 113.539062,11.3476562 113.320312,11.0742188 C114.757812,10.4335938 115.648438,9.6640625 115.992188,8.765625 C116.273438,8.140625 116.390625,6.765625 116.34375,4.640625 Z M108.410156,1.5 L110.824219,1.5 C110.667969,1.1484375 110.484375,0.78515625 110.273438,0.41015625 L111.035156,0.08203125 C111.324219,0.62109375 111.5625,1.09375 111.75,1.5 L113.824219,1.5 L113.824219,3.15234375 L113.027344,3.15234375 L113.027344,2.203125 L109.207031,2.203125 L109.207031,3.15234375 L108.410156,3.15234375 L108.410156,1.5 Z M112.335938,8.35546875 L109.933594,8.35546875 L109.933594,10.1601562 L112.335938,10.1601562 L112.335938,8.35546875 Z" id="形状"></path>
                </g>
                <text id="➗3" font-family="AppleColorEmoji, Apple Color Emoji" font-size="12" font-weight="normal">
                    <tspan x="265.305664" y="42.1362424">➗</tspan>
                    <tspan x="281.305664" y="42.1362424" font-family="MicrosoftYaHei, Microsoft YaHei">3</tspan>
                </text>
                <rect id="矩形" transform="translate(146.824219, 38.636242) scale(1, -1) translate(-146.824219, -38.636242) " x="34.8242188" y="38.1362424" width="224" height="1"></rect>
                <text id="3" font-family="MicrosoftYaHei, Microsoft YaHei" font-size="10" font-weight="normal">
                    <tspan x="16.8242188" y="24.0605469">3</tspan>
                </text>
                <text id="i=1" font-family="MicrosoftYaHei, Microsoft YaHei" font-size="10" font-weight="normal">
                    <tspan x="16.8242188" y="35.0605469">i=1</tspan>
                </text>
            </g>
        </g>
    </g>
</svg>
