<?xml version="1.0" encoding="UTF-8"?>
<svg width="20px" height="19px" viewBox="0 0 20 19" version="1.1" xmlns="http://www.w3.org/2000/svg" xmlns:xlink="http://www.w3.org/1999/xlink">
    <title>形状</title>
    <g id="ESG数据库" stroke="none" stroke-width="1" fill="none" fill-rule="evenodd">
        <g id="03-数据详情" transform="translate(-1273.000000, -155.000000)" fill="#FFFFFF" fill-rule="nonzero">
            <g id="数据导出" transform="translate(1240.000000, 146.000000)">
                <g id="导出" transform="translate(33.000000, 9.000000)">
                    <path d="M7.36865739,13.1409969 C7.07229457,13.2128424 6.75348002,12.9277054 6.65693758,12.6201167 C6.46834306,11.9802425 6.37180063,11.3044454 6.37180063,10.6421194 C6.37180063,7.06331388 9.77323754,3.34306242 13.4238886,2.73686574 L13.4238886,2.61787158 C13.4238886,2.58194881 13.4238886,2.53480018 13.4351145,2.49887741 L13.4463404,2.45172878 C13.4822631,2.19128873 13.5765604,1.58733722 14.169286,1.20790301 C14.4072744,1.05298608 14.6677144,0.983385721 14.9393803,0.983385721 C15.2716659,0.983385721 15.5433318,1.10237988 15.7094746,1.19667714 C15.7453974,1.20790301 15.7678491,1.23259991 15.8037719,1.25505164 L19.3713516,4.07498877 C19.7620117,4.37135159 20,4.85630894 20,5.35473731 C20,5.86439156 19.7620117,6.3493489 19.3601257,6.64571172 L15.8082622,9.45666816 C15.5478222,9.65873372 15.2402335,9.76425685 14.9303996,9.76425685 C14.6587337,9.76425685 14.3960485,9.68118545 14.1490795,9.52626852 C13.675348,9.21867984 13.4373597,8.74494836 13.4373597,8.08037719 L13.4373597,8.05568029 C11.0664571,8.31836551 8.43735968,10.428828 7.8558599,12.4180512 C7.7480916,12.7391109 7.54827122,13.1409969 7.36865739,13.1409969 Z M14.9057027,2.66502021 L14.9057027,3.40143691 C14.9057027,3.79209699 14.5981141,4.11315671 14.207454,4.13560844 C11.3875168,4.29052537 8.42388864,7.0857656 7.92770543,9.84732824 C9.4207454,7.95240233 11.8724742,6.40996857 14.2186798,6.57611136 C14.6093399,6.60080826 14.9057027,6.91962281 14.9057027,7.31028289 L14.9057027,8.09384823 C14.9057027,8.19937135 14.9169286,8.24876515 14.9169286,8.27121688 L18.4485855,5.47373148 C18.4957342,5.43780871 18.50696,5.40188595 18.50696,5.35473731 C18.50696,5.30758868 18.4822631,5.26044005 18.4485855,5.23574315 L14.9416255,2.46519982 C14.9169286,2.50112259 14.9057027,2.59541985 14.8944769,2.65379434 L14.9057027,2.66502021 L14.9057027,2.66502021 Z M14.5756623,18.2263134 L2.73686574,18.2263134 C1.23259991,18.2263134 0,16.9937135 0,15.4894477 L0,2.73686574 C0,1.23259991 1.23259991,0 2.73686574,0 L12.5370454,0 L12.5370454,1.5648855 L2.73686574,1.5648855 C2.09699147,1.5648855 1.56264032,2.0857656 1.56264032,2.73911091 L1.56264032,15.5029187 C1.56264032,16.142793 2.08352043,16.6771441 2.73686574,16.6771441 L14.5756623,16.6771441 C15.2155366,16.6771441 15.7498877,16.156264 15.7498877,15.5029187 L15.7498877,10.9721599 L17.3013022,10.9721599 L17.3013022,15.4984284 C17.3013022,16.9937135 16.0799282,18.2263134 14.5756623,18.2263134 Z M2.61787158,10.3816794 L5.14144589,10.3816794 L5.14144589,11.7085766 L2.61787158,11.7085766 L2.61787158,10.3816794 L2.61787158,10.3816794 Z M2.61787158,13.8414908 L9.26582847,13.8414908 L9.26582847,15.168388 L2.61787158,15.168388 L2.61787158,13.8414908 Z M2.61787158,4.29052537 L7.9389313,4.29052537 L7.9389313,5.61742254 L2.61787158,5.61742254 L2.61787158,4.29052537 Z M2.61787158,7.45397396 L5.14144589,7.45397396 L5.14144589,8.78087113 L2.61787158,8.78087113 L2.61787158,7.45397396 L2.61787158,7.45397396 Z" id="形状"></path>
                </g>
            </g>
        </g>
    </g>
</svg>